<?xml version="1.0" encoding="utf-8"?>
<!-- Generator: Adobe Illustrator 18.1.1, SVG Export Plug-In . SVG Version: 6.00 Build 0)  -->
<svg version="1.1" id="Layer_1" xmlns="http://www.w3.org/2000/svg" xmlns:xlink="http://www.w3.org/1999/xlink" x="0px" y="0px"
	 width="181.7px" height="28.6px" viewBox="-388 266.4 181.7 28.6" enable-background="new -388 266.4 181.7 28.6"
	 xml:space="preserve">
<g>
	<path fill="#F5DC07" d="M-371,275.2c-1.1-0.2-2.3-0.1-3.4,0c0.1-0.3,0.3-0.5,0.4-0.8c0.4-1.1,0.6-2.2,0.7-3.3
		c0.1-1.3,0.4-2.5,0.8-3.7c0,0,0-0.1,0.1-0.2c0,0.3,0.1,0.5,0.1,0.8c0.1,1,0.5,1.9,0.8,2.8c0.2,0.5,0.4,1,0.5,1.6
		c0.2,0.9,0.3,1.8,0.1,2.7C-371,275.1-371,275.1-371,275.2z"/>
	<path fill="#F5DC07" d="M-388,281.4c0.6-0.1,1.3-0.2,2-0.4c1-0.3,1.9-0.6,2.8-0.9c1.1-0.3,2.2-0.4,3.3-0.2c0.2,0,0.2,0.1,0.2,0.2
		c0,0.6-0.1,1.2-0.1,1.9c0,0.4,0,0.8,0,1.2h-0.1c-1.1-0.5-2.3-0.8-3.5-0.9c-1.3-0.1-2.6-0.2-3.9-0.6
		C-387.5,281.6-387.8,281.5-388,281.4z"/>
	<path fill="#F5DC07" d="M-377.8,276.9c-0.8,0.9-1.3,1.9-1.8,2.9c-0.9-1.3-2.1-2.2-3.3-3.1c-1.1-0.7-2-1.5-2.9-2.5
		c0.1,0,0.2,0.1,0.2,0.1s0.1,0,0.2,0.1c1.2,0.5,2.6,0.8,3.9,1S-379,276.1-377.8,276.9C-377.9,276.8-377.9,276.9-377.8,276.9z"/>
	<path fill="#F5DC07" d="M-367.6,277.1c1.4,0,2.6-0.4,3.8-1c0.9-0.4,1.9-0.8,2.9-1.1c0.5-0.1,1-0.2,1.5-0.3c-0.3,0.3-0.7,0.5-1,0.8
		c-0.9,0.8-1.6,1.6-2.4,2.5s-1.8,1.6-2.9,2c-0.1,0-0.2,0.1-0.2-0.1c-0.4-0.9-0.9-1.8-1.5-2.6C-367.6,277.2-367.6,277.2-367.6,277.1z
		"/>
	<path fill="#F5DC07" d="M-367.8,277c-0.9-0.7-1.9-1.2-2.9-1.7l0,0c1.1-0.7,2-1.6,2.7-2.6c0.6-0.8,1.3-1.7,2.1-2.4
		c0.3-0.3,0.7-0.6,1-0.9c-0.2,0.7-0.5,1.4-0.7,2.1s-0.3,1.4-0.5,2c-0.2,1.2-0.7,2.4-1.6,3.4C-367.7,276.9-367.8,276.9-367.8,277z"/>
	<path fill="#F5DC07" d="M-377.7,276.8c0-1.7-0.7-3.1-1.4-4.6c-0.4-0.9-0.8-1.9-0.9-2.9c0-0.1,0-0.2,0-0.4c0.2,0.2,0.3,0.4,0.5,0.6
		c0.8,1,1.8,1.8,2.8,2.6c0.9,0.8,1.6,1.7,2.1,2.8c0,0.1,0.1,0.2-0.1,0.2c-1,0.4-1.9,0.9-2.7,1.5
		C-377.6,276.8-377.6,276.8-377.7,276.8z"/>
	<path fill="#F5DC07" d="M-378,286.4c-1.4,0-2.6,0.4-3.8,1c-0.9,0.4-1.7-1-1-1.8c0.8-0.9,1.8-1.6,2.9-2c0.1,0,0.2-0.1,0.2,0.1
		c0.4,0.9,0.9,1.8,1.5,2.6C-378,286.3-378,286.3-378,286.4z"/>
	<circle fill="#FFFF00" cx="-372.2" cy="282" r="7.8"/>
</g>
<path fill="#8DC63F" d="M-368.5,272.8"/>
<g>
	<g>
		<path fill="#21BA49" d="M-358.6,286.1c-0.1,0.1-0.4,0.6-0.4,0.7c0.1,0.2,0.2,1,0.3,1.2l0,0c0.1,0.7-0.3,1.1-0.9,1.2
			c-0.5,0.1-1.1,0.1-1.8,0.1c-0.3,0-0.6,0.4-0.4,0.7c1.3,2.1,3.9,3.5,1.8,4.2c-1.7-0.7-5.3-1.9-7.5-2.2c-1.9-0.3-5-1.4-7-1.1
			c-0.9,0.1-2.1,0-2.5,0.5c-0.3,0.4,0.1,1.5-0.3,1.7c-0.6,0.6-1.6-2-2-2.3c-1.8-1.1-3.5-1-4.1-1.7c-6-7.4,4.2-1.8,10.7-0.7
			c2.5,0.4,3.7,0.5,4.3,0.1c1.4-1-0.7-1.7,0.1-2.5c0.6-0.6-2.6-3-3.2-3.7c-0.8-0.8-0.9-2-0.4-3.1c0-0.1,0.3-1.3,0.3-1.3
			c-0.7-3.5-3.9-2.9-4.9-3.4c-1.2-0.6-1.1-2.1,0.2-2.3c2.7-0.3,5.8-1,8,0.1c3.6,1.8,6.9,1.3,7.2,1.8c0.8,0.9,1.6,2.7,1.5,3.2
			c-0.1,0.3-0.2,0.6-0.1,0.9c0.2,0.6,0.7,1.2,1,1.5c0.2,0.2,0.5,0.6,0.6,0.7s0.2,0.3,0.3,0.4l0,0c0.2,0.3,0.4,0.7,0.4,0.8
			c0,0.2,0.1,0.3-0.3,0.6c-0.3,0.2-0.6,0.2-0.9,0.3c-0.2,0.2-0.3,0.6,0,1c0.2,0.2,0.3,0.4,0.1,0.6c-0.1,0.1-0.4,0.3-0.4,0.4
			s0,0.1,0.1,0.2s0.2,0.2,0.2,0.3C-358.4,285.7-358.4,285.8-358.6,286.1z"/>
	</g>
</g>
<text transform="matrix(0.87 0 0 1 -357.0253 291.1636)" fill="#21BA49" font-family="'Lato-Light'" font-size="25.7951">ENERGY</text>
<g>
	<text transform="matrix(0.87 0 0 1 -247.9628 291.1636)" fill="#21BA49" font-family="'Lato-Light'" font-size="25.7951">LIFE</text>
</g>
<g>
	<text transform="matrix(0.87 0 0 1 -268.9571 291.1636)" fill="#21BA49" font-family="'Lato-Light'" font-size="18.4946">for</text>
</g>
</svg>
