<?xml version="1.0" encoding="utf-8"?>
<!-- Generator: Adobe Illustrator 18.1.1, SVG Export Plug-In . SVG Version: 6.00 Build 0)  -->
<svg version="1.1" id="Layer_1" xmlns="http://www.w3.org/2000/svg" xmlns:xlink="http://www.w3.org/1999/xlink" x="0px" y="0px"
	 width="269px" height="54.4px" viewBox="-345 253.6 269 54.4" enable-background="new -345 253.6 269 54.4" xml:space="preserve">
<text transform="matrix(0.87 0 0 1 -272.3564 291.3357)" fill="#21BA49" font-family="'Lato-Light'" font-size="33.4905">ENERGY</text>
<g>
	<text transform="matrix(0.87 0 0 1 -130.7568 291.3357)" fill="#21BA49" font-family="'Lato-Light'" font-size="33.4905">LIFE</text>
</g>
<g>
	<text transform="matrix(0.87 0 0 1 -158.0137 291.3357)" fill="#21BA49" font-family="'Lato-Light'" font-size="24.0121">for</text>
</g>
<g>
	<path fill="#F5DC07" d="M-298.4,267.9c-2-0.3-4.1-0.2-6.1-0.1c0.2-0.5,0.5-0.9,0.6-1.4c0.8-1.9,1.2-3.9,1.3-5.9
		c0.2-2.3,0.6-4.4,1.5-6.6c0-0.1,0.1-0.2,0.1-0.3c0.1,0.5,0.2,0.9,0.2,1.4c0.3,1.7,0.8,3.4,1.4,5.1c0.3,0.9,0.7,1.8,0.9,2.8
		c0.4,1.6,0.5,3.2,0.1,4.9C-298.3,267.7-298.3,267.7-298.4,267.9z"/>
	<path fill="#F5DC07" d="M-328.8,279c1.2-0.2,2.3-0.4,3.5-0.7c1.7-0.5,3.4-1.1,5.1-1.6c1.9-0.6,3.9-0.7,5.9-0.4
		c0.3,0,0.4,0.1,0.3,0.4c-0.1,1.1-0.2,2.2-0.2,3.3c0,0.7,0,1.5,0,2.2c-0.1,0-0.1,0-0.2,0c-2-1-4.1-1.5-6.3-1.6
		c-2.3-0.2-4.7-0.4-6.9-1.1C-327.9,279.3-328.4,279.1-328.8,279z"/>
	<path fill="#F5DC07" d="M-310.6,270.9c-1.4,1.6-2.3,3.3-3.2,5.1c-1.5-2.3-3.7-4-6-5.5c-1.9-1.2-3.6-2.7-5.1-4.5
		c0.2,0.1,0.3,0.1,0.4,0.2c0.1,0,0.2,0.1,0.3,0.1c2.2,0.9,4.6,1.4,7,1.7c2.3,0.4,4.5,1.2,6.4,2.6
		C-310.8,270.8-310.7,270.8-310.6,270.9z"/>
	<path fill="#F5DC07" d="M-292.4,271.3c2.4-0.1,4.7-0.8,6.8-1.7c1.7-0.7,3.3-1.5,5.1-2c0.9-0.2,1.8-0.4,2.7-0.6
		c-0.6,0.5-1.2,0.9-1.7,1.4c-1.6,1.4-2.9,2.9-4.4,4.4c-1.4,1.6-3.2,2.8-5.2,3.5c-0.2,0.1-0.3,0.1-0.4-0.1c-0.6-1.7-1.7-3.2-2.7-4.7
		C-292.3,271.4-292.3,271.4-292.4,271.3z"/>
	<path fill="#F5DC07" d="M-292.7,271c-1.6-1.3-3.4-2.2-5.2-3v-0.1c2-1.2,3.5-2.8,4.9-4.7c1.2-1.5,2.3-3,3.7-4.4
		c0.6-0.6,1.2-1.1,1.8-1.6c-0.4,1.3-0.9,2.5-1.3,3.8c-0.3,1.2-0.6,2.4-0.8,3.6c-0.4,2.2-1.3,4.3-2.8,6.1
		C-292.5,270.8-292.6,270.9-292.7,271z"/>
	<path fill="#F5DC07" d="M-310.3,270.7c-0.1-3-1.3-5.6-2.5-8.2c-0.8-1.7-1.4-3.4-1.7-5.2c0-0.2-0.1-0.4-0.1-0.6
		c0.3,0.4,0.6,0.7,0.9,1.1c1.5,1.7,3.2,3.2,5,4.6c1.7,1.4,2.9,3,3.7,5c0.1,0.2,0.1,0.3-0.1,0.4c-1.7,0.6-3.4,1.6-4.9,2.6
		C-310.2,270.6-310.2,270.7-310.3,270.7z"/>
	<path fill="#F5DC07" d="M-310.8,287.8c-2.4,0.1-4.7,0.8-6.8,1.7c-1.7,0.7-3.1-1.7-1.7-3.3s3.2-2.8,5.2-3.5c0.2-0.1,0.3-0.1,0.4,0.1
		c0.6,1.7,1.7,3.2,2.7,4.7C-311,287.6-310.9,287.7-310.8,287.8z"/>
	<circle fill="#FFFF00" cx="-300.5" cy="280.1" r="13.9"/>
</g>
<path fill="#8DC63F" d="M-294,263.5"/>
<g>
	<g>
		<path fill="#21BA49" d="M-276.2,287.3c-0.1,0.2-0.8,1.1-0.7,1.2c0.2,0.4,0.4,1.8,0.5,2.2v0.1c0.1,1.2-0.6,2-1.7,2.2
			c-0.9,0.2-1.9,0.2-3.2,0.2c-0.6,0-1,0.7-0.7,1.2c2.4,3.7,7,6.2,3.2,7.5c-3-1.3-9.4-3.4-13.4-4c-3.4-0.5-9-2.4-12.5-1.9
			c-1.7,0.2-3.7,0-4.5,1c-0.6,0.7,0.1,2.6-0.5,3.1c-1.1,1-2.8-3.6-3.5-4c-3.3-2-6.3-1.8-7.2-3c-10.7-13.2,7.5-3.3,19.1-1.2
			c4.5,0.8,6.7,0.9,7.6,0.3c2.6-1.8-1.2-3.1,0.3-4.4c1.1-1.1-4.6-5.4-5.6-6.5c-1.4-1.5-1.5-3.6-0.7-5.5c0-0.1,0.5-2.2,0.5-2.4
			c-1.3-6.3-7-5.1-8.7-6.1c-2.1-1.1-2-3.8,0.3-4c4.8-0.5,10.3-1.8,14.3,0.1c6.4,3.2,12.3,2.3,12.9,3.1c1.4,1.6,2.8,4.8,2.6,5.7
			c-0.2,0.6-0.3,1.1-0.2,1.6c0.3,1.1,1.2,2.2,1.8,2.8c0.3,0.3,0.9,1,1.1,1.3c0.3,0.3,0.4,0.5,0.5,0.7l0,0c0.4,0.6,0.7,1.2,0.6,1.5
			s0.1,0.6-0.5,1.1c-0.5,0.4-1.1,0.3-1.6,0.6c-0.4,0.3-0.5,1.1,0.1,1.8c0.3,0.4,0.5,0.7,0.2,1.1c-0.2,0.2-0.6,0.5-0.6,0.7
			s0.1,0.2,0.2,0.3c0.2,0.1,0.3,0.3,0.3,0.5C-275.9,286.6-275.9,286.8-276.2,287.3z"/>
	</g>
</g>
</svg>
