<?xml version="1.0" encoding="utf-8"?>
<!-- Generator: Adobe Illustrator 18.1.1, SVG Export Plug-In . SVG Version: 6.00 Build 0)  -->
<svg version="1.1" id="Layer_1" xmlns="http://www.w3.org/2000/svg" xmlns:xlink="http://www.w3.org/1999/xlink" x="0px" y="0px"
	 width="302.6px" height="70.7px" viewBox="-328 245.3 302.6 70.7" enable-background="new -328 245.3 302.6 70.7"
	 xml:space="preserve">
<g display="none">
	<circle display="inline" fill="#21BA49" cx="-963.4" cy="597.7" r="23.4"/>
	<circle display="inline" fill="#FFFF00" cx="-963.4" cy="597.7" r="19.7"/>
	<path display="inline" fill="#8DC63F" d="M-955,575.8"/>
	<g display="inline">
		<g>
			<path fill="#21BA49" d="M-931.8,606.9c-0.1,0.2-1,1.5-1,1.6c0.2,0.6,0.5,2.3,0.6,2.9v0.1c0.1,1.6-0.8,2.7-2.2,2.9
				c-1.1,0.2-2.5,0.2-4.1,0.2c-0.8,0-1.3,0.8-0.8,1.6c3,4.8,9.1,8.1,4.2,9.8c-3.9-1.7-12.3-4.4-17.5-5.2c-4.5-0.7-11.7-3.1-16.5-2.5
				c-2.2,0.4-4.8,0-5.8,1.3c-0.7,1,0.1,3.4-0.6,4.1c-1.5,1.3-3.6-4.7-4.6-5.2c-4.4-2.7-8.2-2.4-9.4-3.9c-14-17.2,9.8-4.2,25.1-1.6
				c5.9,1,8.7,1.2,9.9,0.4c3.4-2.3-1.6-4,0.4-5.8c1.5-1.3-6.1-7-7.4-8.6c-1.8-1.9-2.1-4.7-1-7.1c0.1-0.1,0.6-2.9,0.6-3.1
				c-1.7-8.2-9.1-6.7-11.4-8c-2.8-1.5-2.5-5,0.4-5.2c6.3-0.7,13.6-2.4,18.8,0.2c8.4,4.1,16.1,3,16.8,4.1c1.8,2.2,3.6,6.3,3.4,7.5
				c-0.2,0.7-0.5,1.5-0.2,2.1c0.4,1.5,1.6,2.9,2.3,3.6c0.4,0.4,1.1,1.3,1.5,1.7c0.4,0.4,0.5,0.6,0.7,0.8l0,0
				c0.5,0.7,0.8,1.6,0.8,1.9c-0.1,0.5,0.1,0.7-0.7,1.5c-0.7,0.6-1.5,0.4-2.2,0.7c-0.5,0.4-0.6,1.5,0.1,2.4c0.4,0.5,0.7,1,0.2,1.5
				c-0.2,0.2-0.8,0.6-0.8,1c0,0.2,0.1,0.4,0.2,0.4c0.2,0.1,0.4,0.4,0.5,0.6C-931.4,606.1-931.4,606.3-931.8,606.9z"/>
		</g>
	</g>
</g>
<g>
	<path fill="#F5DC07" d="M-285.4,269.5c-2.3-0.4-4.6-0.3-7-0.1c0.3-0.6,0.6-1.1,0.7-1.6c0.8-2.2,1.3-4.4,1.5-6.7
		c0.2-2.6,0.7-5.1,1.7-7.5c0.1-0.1,0.1-0.2,0.2-0.4c0.1,0.6,0.2,1,0.3,1.6c0.3,2,0.9,3.9,1.6,5.8c0.4,1.1,0.7,2.1,1.1,3.1
		c0.5,1.8,0.6,3.7,0.2,5.5C-285.3,269.3-285.3,269.4-285.4,269.5z"/>
	<path fill="#F5DC07" d="M-320,282.1c1.3-0.3,2.7-0.5,4.1-0.8c1.9-0.6,3.9-1.2,5.8-1.8c2.2-0.6,4.4-0.8,6.7-0.5
		c0.4,0.1,0.5,0.2,0.4,0.5c-0.1,1.3-0.2,2.5-0.2,3.8c0,0.8,0.1,1.7,0.1,2.5c-0.1,0-0.2,0-0.2-0.1c-2.2-1.1-4.6-1.7-7.1-1.8
		c-2.7-0.3-5.3-0.5-7.9-1.3C-319,282.4-319.4,282.2-320,282.1z"/>
	<path fill="#F5DC07" d="M-299.2,273c-1.6,1.8-2.6,3.8-3.7,5.8c-1.8-2.6-4.2-4.5-6.8-6.3c-2.2-1.4-4.1-3.1-5.8-5.2
		c0.2,0.1,0.4,0.2,0.5,0.2c0.1,0.1,0.3,0.1,0.4,0.2c2.5,1,5.2,1.6,7.9,2c2.7,0.5,5.2,1.4,7.3,3C-299.5,272.8-299.4,272.9-299.2,273z
		"/>
	<path fill="#F5DC07" d="M-278.5,273.3c2.8-0.1,5.3-0.8,7.8-1.9c1.8-0.8,3.8-1.7,5.8-2.2c1-0.3,2-0.5,3-0.6c-0.6,0.6-1.4,1-2,1.6
		c-1.8,1.6-3.3,3.3-5,5.1c-1.6,1.8-3.6,3.1-5.9,4c-0.2,0.1-0.4,0.2-0.5-0.2c-0.7-1.8-1.8-3.6-3-5.4
		C-278.4,273.5-278.4,273.4-278.5,273.3z"/>
	<path fill="#F5DC07" d="M-278.9,273.1c-1.8-1.5-3.9-2.5-6-3.4c0-0.1,0.1-0.1,0.1-0.1c2.3-1.4,4.1-3.2,5.5-5.3
		c1.3-1.7,2.6-3.4,4.2-5c0.6-0.6,1.4-1.2,2-1.8c-0.5,1.5-1,2.9-1.5,4.2c-0.4,1.4-0.6,2.8-0.9,4.2c-0.5,2.5-1.5,4.9-3.2,6.9
		C-278.7,272.9-278.8,273-278.9,273.1z"/>
	<path fill="#F5DC07" d="M-298.9,272.7c-0.1-3.4-1.5-6.4-2.9-9.3c-0.8-1.8-1.6-3.9-1.8-5.9c-0.1-0.3-0.1-0.5-0.1-0.7
		c0.4,0.5,0.6,0.8,1,1.3c1.7,1.9,3.7,3.6,5.7,5.3c1.8,1.6,3.3,3.4,4.2,5.7c0.1,0.3,0.2,0.4-0.2,0.5c-2,0.7-3.9,1.8-5.5,3
		C-298.8,272.6-298.8,272.7-298.9,272.7z"/>
	<path fill="#F5DC07" d="M-299.5,292.2c-2.8,0.1-5.3,0.8-7.8,1.9c-1.8,0.8-3.5-2-2-3.7c1.6-1.8,3.6-3.1,5.9-4
		c0.2-0.1,0.4-0.2,0.5,0.2c0.7,1.8,1.8,3.6,3,5.4C-299.7,291.9-299.6,292-299.5,292.2z"/>
	<circle fill="#FFFF00" cx="-287.9" cy="283.3" r="15.8"/>
</g>
<path fill="#8DC63F" d="M-280.4,264.6"/>
<g>
	<g>
		<path fill="#21BA49" d="M-260.1,291.5c-0.1,0.3-0.8,1.2-0.8,1.4c0.2,0.5,0.5,2,0.6,2.5v0.1c0.1,1.3-0.6,2.3-1.9,2.5
			c-0.9,0.2-2.2,0.3-3.6,0.2c-0.7,0-1.2,0.7-0.7,1.4c2.7,4.2,7.9,7.1,3.7,8.5c-3.4-1.5-10.7-3.8-15.2-4.5
			c-3.9-0.6-10.2-2.8-14.2-2.2c-1.8,0.3-4.2,0-5.1,1.1c-0.6,0.8,0.1,3-0.6,3.5c-1.2,1.1-3.2-4.1-4.1-4.6c-3.8-2.3-7.2-2.1-8.2-3.4
			c-12.2-15,8.5-3.7,21.7-1.3c5.1,0.8,7.6,1,8.7,0.3c3-2-1.4-3.5,0.3-5.1c1.3-1.2-5.2-6.1-6.4-7.5c-1.6-1.7-1.8-4.2-0.8-6.2
			c0.1-0.1,0.6-2.6,0.6-2.7c-1.5-7.2-7.9-5.8-9.9-6.9c-2.4-1.3-2.2-4.2,0.3-4.5c5.4-0.6,11.7-2.1,16.3,0.2
			c7.3,3.6,13.9,2.6,14.6,3.5c1.6,1.8,3.2,5.4,3,6.5c-0.2,0.6-0.4,1.2-0.3,1.8c0.3,1.3,1.4,2.5,2,3.1c0.3,0.3,1,1.2,1.3,1.5
			s0.5,0.6,0.6,0.7c0,0,0,0,0,0.1c0.5,0.6,0.7,1.3,0.7,1.7c-0.1,0.4,0.1,0.6-0.6,1.3c-0.6,0.5-1.2,0.3-1.8,0.6
			c-0.5,0.3-0.6,1.3,0.1,2.1c0.3,0.5,0.6,0.8,0.3,1.2c-0.2,0.2-0.7,0.6-0.7,0.8c0,0.2,0.1,0.3,0.2,0.4c0.2,0.1,0.4,0.4,0.4,0.6
			C-259.9,290.8-259.8,291-260.1,291.5z"/>
	</g>
</g>
<text transform="matrix(0.87 0 0 1 -252.8135 296.0358)" fill="#21BA49" font-family="'Lato-Light'" font-size="33.4905">ENERGY</text>
<g>
	<text transform="matrix(0.87 0 0 1 -107.2139 296.0358)" fill="#21BA49" font-family="'Lato-Light'" font-size="33.4905">LIFE</text>
</g>
<g>
	<text transform="matrix(0.87 0 0 1 -136.4707 296.0358)" fill="#21BA49" font-family="'Lato-Light'" font-size="24.0121">for</text>
</g>
</svg>
