<?xml version="1.0" encoding="utf-8"?>
<!-- Generator: Adobe Illustrator 18.1.1, SVG Export Plug-In . SVG Version: 6.00 Build 0)  -->
<svg version="1.1" id="Layer_1" xmlns="http://www.w3.org/2000/svg" xmlns:xlink="http://www.w3.org/1999/xlink" x="0px" y="0px"
	 width="133.5px" height="48.7px" viewBox="-250.7 257.2 133.5 48.7" enable-background="new -250.7 257.2 133.5 48.7"
	 xml:space="preserve">
<g>
	<text transform="matrix(0.87 0 0 1 -196.5952 279.3869)" fill="#F7F7F8" font-family="'Lato-Bold'" font-size="23.0848">ENERGY</text>
	<g>
		<g>
			<text transform="matrix(0.87 0 0 1 -156.518 299.2961)" fill="#F7F7F8" font-family="'Lato-Bold'" font-size="23.0848">LIFE</text>
		</g>
	</g>
	<g>
		<text transform="matrix(0.87 0 0 1 -196.5952 299.2961)" fill="#D5D7DB" font-family="'Lato-Thin'" font-size="23.0848">FOR</text>
	</g>
	<g>
		<path fill="#B1B4BB" d="M-223.2,270.1c-1.8-0.3-3.7-0.2-5.6-0.1c0.2-0.5,0.5-0.9,0.6-1.3c0.6-1.8,1-3.5,1.2-5.3
			c0.2-2.1,0.6-4.1,1.4-6c0.1-0.1,0.1-0.2,0.2-0.3c0.1,0.5,0.2,0.8,0.2,1.3c0.2,1.6,0.7,3.1,1.3,4.6c0.3,0.9,0.6,1.7,0.9,2.5
			c0.4,1.4,0.5,2.9,0.2,4.4C-223.1,270-223.1,270.1-223.2,270.1z"/>
		<path fill="#B1B4BB" d="M-250.7,280.2c1-0.2,2.2-0.4,3.3-0.6c1.5-0.5,3.1-1,4.6-1.4c1.8-0.5,3.5-0.6,5.3-0.4
			c0.3,0.1,0.4,0.2,0.3,0.4c-0.1,1-0.2,2-0.2,3c0,0.6,0.1,1.4,0.1,2c-0.1,0-0.2,0-0.2-0.1c-1.8-0.9-3.7-1.4-5.7-1.4
			c-2.2-0.2-4.2-0.4-6.3-1C-249.9,280.4-250.3,280.3-250.7,280.2z"/>
		<path fill="#B1B4BB" d="M-234.2,272.9c-1.3,1.4-2.1,3-2.9,4.6c-1.4-2.1-3.3-3.6-5.4-5c-1.8-1.1-3.3-2.5-4.6-4.1
			c0.2,0.1,0.3,0.2,0.4,0.2c0.1,0.1,0.2,0.1,0.3,0.2c2,0.8,4.1,1.3,6.3,1.6c2.2,0.4,4.1,1.1,5.8,2.4
			C-234.4,272.8-234.3,272.8-234.2,272.9z"/>
		<path fill="#B1B4BB" d="M-217.7,273.2c2.2-0.1,4.2-0.6,6.2-1.5c1.4-0.6,3-1.4,4.6-1.8c0.8-0.2,1.6-0.4,2.4-0.5
			c-0.5,0.5-1.1,0.8-1.6,1.3c-1.4,1.3-2.6,2.6-4,4.1c-1.3,1.4-2.9,2.5-4.7,3.2c-0.2,0.1-0.3,0.2-0.4-0.2c-0.6-1.4-1.4-2.9-2.4-4.3
			C-217.6,273.3-217.6,273.2-217.7,273.2z"/>
		<path fill="#B1B4BB" d="M-218,273c-1.4-1.2-3.1-2-4.8-2.7c0-0.1,0.1-0.1,0.1-0.1c1.8-1.1,3.3-2.5,4.4-4.2c1-1.4,2.1-2.7,3.3-4
			c0.5-0.5,1.1-1,1.6-1.4c-0.4,1.2-0.8,2.3-1.2,3.3c-0.3,1.1-0.5,2.2-0.7,3.3c-0.4,2-1.2,3.9-2.5,5.5
			C-217.8,272.8-217.9,272.9-218,273z"/>
		<path fill="#B1B4BB" d="M-233.9,272.7c-0.1-2.7-1.2-5.1-2.3-7.4c-0.6-1.4-1.3-3.1-1.4-4.7c-0.1-0.2-0.1-0.4-0.1-0.6
			c0.3,0.4,0.5,0.6,0.8,1c1.4,1.5,2.9,2.9,4.5,4.2c1.4,1.3,2.6,2.7,3.3,4.5c0.1,0.2,0.2,0.3-0.2,0.4c-1.6,0.6-3.1,1.4-4.4,2.4
			C-233.8,272.6-233.8,272.7-233.9,272.7z"/>
		<path fill="#B1B4BB" d="M-234.4,288.2c-2.2,0.1-4.2,0.6-6.2,1.5c-1.4,0.6-2.8-1.6-1.6-2.9c1.3-1.4,2.9-2.5,4.7-3.2
			c0.2-0.1,0.3-0.2,0.4,0.2c0.6,1.4,1.4,2.9,2.4,4.3C-234.6,288-234.5,288.1-234.4,288.2z"/>
		<circle fill="#D5D7DB" cx="-225.2" cy="281.1" r="12.6"/>
	</g>
	<g>
		<g>
			<path fill="#F7F7F8" d="M-203,287.7c-0.1,0.2-0.6,1-0.6,1.1c0.2,0.4,0.4,1.6,0.5,2v0.1c0.1,1-0.5,1.8-1.5,2
				c-0.7,0.2-1.8,0.2-2.9,0.2c-0.6,0-1,0.6-0.6,1.1c2.2,3.3,6.3,5.7,2.9,6.8c-2.7-1.2-8.5-3-12.1-3.6c-3.1-0.5-8.1-2.2-11.3-1.8
				c-1.4,0.2-3.3,0-4.1,0.9c-0.5,0.6,0.1,2.4-0.5,2.8c-1,0.9-2.5-3.3-3.3-3.7c-3-1.8-5.7-1.7-6.5-2.7c-9.7-11.9,6.8-2.9,17.3-1
				c4.1,0.6,6.1,0.8,6.9,0.2c2.4-1.6-1.1-2.8,0.2-4.1c1-1-4.1-4.9-5.1-6c-1.3-1.4-1.4-3.3-0.6-4.9c0.1-0.1,0.5-2.1,0.5-2.2
				c-1.2-5.7-6.3-4.6-7.9-5.5c-1.9-1-1.8-3.3,0.2-3.6c4.3-0.5,9.3-1.7,13,0.2c5.8,2.9,11.1,2.1,11.6,2.8c1.3,1.4,2.5,4.3,2.4,5.2
				c-0.2,0.5-0.3,1-0.2,1.4c0.2,1,1.1,2,1.6,2.5c0.2,0.2,0.8,1,1,1.2c0.2,0.2,0.4,0.5,0.5,0.6c0,0,0,0,0,0.1c0.4,0.5,0.6,1,0.6,1.4
				c-0.1,0.3,0.1,0.5-0.5,1c-0.5,0.4-1,0.2-1.4,0.5c-0.4,0.2-0.5,1,0.1,1.7c0.2,0.4,0.5,0.6,0.2,1c-0.2,0.2-0.6,0.5-0.6,0.6
				c0,0.2,0.1,0.2,0.2,0.3c0.2,0.1,0.3,0.3,0.3,0.5C-202.9,287.1-202.8,287.3-203,287.7z"/>
		</g>
	</g>
</g>
</svg>
