<?xml version="1.0" encoding="UTF-8" standalone="no"?>
<!-- Created with Inkscape (http://www.inkscape.org/) -->

<svg
   xmlns:dc="http://purl.org/dc/elements/1.1/"
   xmlns:cc="http://creativecommons.org/ns#"
   xmlns:rdf="http://www.w3.org/1999/02/22-rdf-syntax-ns#"
   xmlns:svg="http://www.w3.org/2000/svg"
   xmlns="http://www.w3.org/2000/svg"
   xmlns:sodipodi="http://sodipodi.sourceforge.net/DTD/sodipodi-0.dtd"
   xmlns:inkscape="http://www.inkscape.org/namespaces/inkscape"
   id="svg3403"
   height="50"
   width="335"
   version="1.1"
   inkscape:version="0.48.5 r10040"
   sodipodi:docname="sensaeLogo_color.svg">
  <sodipodi:namedview
     pagecolor="#ffffff"
     bordercolor="#666666"
     borderopacity="1"
     objecttolerance="10"
     gridtolerance="10"
     guidetolerance="10"
     inkscape:pageopacity="0"
     inkscape:pageshadow="2"
     inkscape:window-width="1920"
     inkscape:window-height="1018"
     id="namedview3029"
     showgrid="false"
     inkscape:zoom="5.116498"
     inkscape:cx="78.521666"
     inkscape:cy="10.614137"
     inkscape:window-x="-8"
     inkscape:window-y="-8"
     inkscape:window-maximized="1"
     inkscape:current-layer="layer1" />
  <defs
     id="defs3405" />
  <metadata
     id="metadata3408">
    <rdf:RDF>
      <cc:Work
         rdf:about="">
        <dc:format>image/svg+xml</dc:format>
        <dc:type
           rdf:resource="http://purl.org/dc/dcmitype/StillImage" />
        <dc:title />
      </cc:Work>
    </rdf:RDF>
  </metadata>
  <g
     id="layer1"
     transform="matrix(0.65775687,0,0,0.65775687,-3.1163925,19.678909)">
    <path
       id="path3181_4_"
       d="m 88.22966,-13.49723 c 0.1702,1.043351 0.1702,2.434457 0.1702,3.6516873 v 3.303931 h 0.1701 c 1.02085,-2.434457 2.89262,-4.3471973 5.44454,-5.9121813 2.55202,-1.564984 5.10403,-2.26058 7.99647,-2.26058 4.93395,0 8.67663,1.564985 11.05881,4.694952 2.55193,3.1299681 3.74278,7.3032878 3.74278,12.3465108 V 27.887774 H 111.1981 V 5.1086131 c 0,-2.2605806 -0.17016,-4.17331837 -0.5105,-5.91218078 -0.34018,-1.73886132 -0.85058,-3.30384512 -1.70135,-4.52107342 -0.85068,-1.2172293 -1.87134,-2.2605803 -3.23261,-2.9560902 -1.36117,-0.6955534 -3.06244,-1.0433514 -5.10402,-1.0433514 -1.53143,0 -2.89252,0.347781 -4.4237,1.0433514 -1.3611,0.695553 -2.72227,1.7388609 -3.74311,2.9560902 -1.02066,1.3911057 -2.04177,3.1299681 -2.72219,5.04279282 C 89.08,1.8048541 88.73979,4.239225 88.73979,7.021438 v 21.38797 H 83.12525 V -4.4556852 -8.8028817 c 0,-1.7388623 -0.17011,-3.3039323 -0.17011,-4.8688303 l 5.27412,0.173878 z"
       inkscape:connector-curvature="0"
       style="fill:#a567ab;fill-opacity:1" />
    <path
       id="path3183_4_"
       d="m 184.45741,0.63799491 c 0,-3.62244791 -0.85068,-6.20991201 -2.72209,-7.93488701 -1.70151,-1.7249756 -4.42379,-2.5874626 -7.82638,-2.5874626 -2.38219,0 -4.42371,0.517493 -6.46539,1.3799808 -2.04159,0.8624863 -3.74319,2.0699697 -5.10429,3.6224477 l -3.2326,-3.9674435 c 1.7016,-1.7249763 3.7432,-3.1049563 6.2953,-4.1399413 2.72201,-1.034985 5.61454,-1.724975 9.01731,-1.724975 2.04159,0 4.08336,0.344986 5.95478,0.862479 1.87152,0.517492 3.40261,1.552478 4.76378,2.75996 1.36109,1.2074843 2.55202,2.7599614 3.23252,4.6574334 0.68062,1.8974734 1.19109,4.139942 1.19109,6.55490652 V 18.232733 c 0,1.552478 0,3.277454 0.16996,5.00243 0.17012,1.724975 0.17012,3.104955 0.51052,4.312438 h -5.09731 c -0.17007,-1.034899 -0.34017,-2.069971 -0.34017,-3.277452 -0.17025,-1.207484 -0.17025,-2.242469 -0.17025,-3.449953 h -0.17015 c -1.70134,2.759962 -3.7432,4.829931 -6.12469,5.864917 -2.2122,1.207483 -4.9343,1.724976 -8.1669,1.724976 -1.53118,0 -3.06244,-0.172472 -4.59361,-0.68999 -1.53126,-0.517502 -3.06253,-1.207483 -4.42362,-2.242469 -1.36117,-1.034984 -2.38192,-2.242467 -3.23268,-3.967443 -0.85063,-1.552478 -1.36101,-3.622448 -1.36101,-5.864917 0,-3.104955 0.85063,-5.6924174 2.21184,-7.5898905 1.36123,-1.8974729 3.57269,-3.2774534 6.12487,-4.1399403 2.55211,-0.8624712 5.44455,-1.5524787 8.8474,-1.7249759 3.2326,-0.1724888 6.80529,-0.344986 10.20755,-0.344986 l 0.51056,-1.20748239 z m -1.70134,6.03741299 c -2.38192,0 -4.76387,0.1724975 -6.97563,0.3449951 -2.21184,0.1724889 -4.42369,0.5174926 -6.46521,1.2074827 -1.87159,0.5174926 -3.57294,1.5524778 -4.76378,2.7599603 -1.19109,1.207482 -1.87167,2.759961 -1.87167,4.657433 0,1.37998 0.1701,2.759962 0.85067,3.622449 0.51041,1.034985 1.19101,1.724975 2.21186,2.414965 0.85064,0.517484 1.8715,1.034986 2.89226,1.37998 1.02084,0.17249 2.21184,0.344996 3.2327,0.344996 2.04168,0 3.74301,-0.344996 5.27436,-1.034985 1.53118,-0.689965 2.89218,-1.724976 3.91311,-3.104956 1.02066,-1.207483 1.87168,-2.759961 2.38184,-4.312438 0.51024,-1.724975 0.85069,-3.277454 0.85069,-5.1749265 V 6.6753217 h -1.53117 z"
       inkscape:connector-curvature="0"
       style="fill:#a567ab;fill-opacity:1" />
    <path
       id="path3189_4_"
       d="M 232.99822,5.3077611 V 6.676788 8.2169322 h -32.32604 c 0,2.0534968 0.51025,3.9359628 1.19092,5.8183418 0.68042,1.882379 1.70152,3.422609 3.06261,4.791636 1.36101,1.369027 2.89219,2.395819 4.4237,3.251407 1.70117,0.855656 3.57269,1.19791 5.61419,1.19791 2.89261,0 5.4448,-0.684523 7.65648,-2.224702 2.21167,-1.540178 3.74319,-3.080289 4.93386,-4.962754 l 4.25344,3.593727 c -2.38184,3.080289 -4.93394,5.30499 -7.82629,6.674016 -2.89235,1.369028 -5.78471,2.053584 -9.01731,2.053584 -2.89219,0 -5.6142,-0.513362 -7.99631,-1.711262 -2.552,-1.026792 -4.59376,-2.566936 -6.29511,-4.449315 -1.70127,-1.882466 -3.23261,-4.107081 -4.25336,-6.845134 -1.02092,-2.566936 -1.53126,-5.4761069 -1.53126,-8.5563953 0,-3.0802882 0.51033,-5.9895447 1.53126,-8.5563952 1.02084,-2.5669354 2.38202,-4.962754 4.08328,-6.8451332 1.70143,-1.8823793 3.91319,-3.4226103 6.29512,-4.4493153 2.38193,-1.026792 4.93378,-1.711263 7.8263,-1.711263 3.06243,0 5.78479,0.51338 7.99656,1.711263 2.38201,1.026791 4.25335,2.566936 5.95469,4.4493153 1.53119,1.8823792 2.72228,3.9359628 3.57295,6.3317814 0.51042,2.05358262 0.85078,4.6204321 0.85078,7.5296025 z m -5.78487,-1.8823795 c -0.17006,-3.93596138 -1.36101,-7.0162507 -3.57278,-9.5831004 -2.21184,-2.5669359 -5.27446,-3.7648439 -9.35799,-3.7648439 -1.87151,0 -3.57285,0.342269 -5.27419,1.02679 -1.70135,0.6845148 -3.06253,1.7112636 -4.25328,2.9091719 -1.19109,1.1979089 -2.21219,2.7380537 -2.89261,4.2781973 -0.6807,1.71126272 -1.19092,3.2514065 -1.19092,4.9627542 l 26.54134,0.1711264 z"
       inkscape:connector-curvature="0"
       style="fill:#a567ab;fill-opacity:1" />
    <path
       id="path3191_4_"
       d="m 146.63733,-4.018059 c -0.85068,-1.6978064 -2.21176,-3.0560528 -4.08319,-4.0747365 -1.87169,-1.0186842 -3.91319,-1.6978072 -6.29513,-1.6978072 -1.02091,0 -2.21184,0.169772 -3.23268,0.339544 -1.02085,0.169798 -2.0416,0.509351 -2.89235,1.1885077 -0.85058,0.5093505 -1.53118,1.1885082 -2.04169,2.0373696 -0.5103,0.8489117 -0.85057,1.8676302 -0.85057,2.8863147 0,1.8676305 0.85057,3.39561322 2.38184,4.414298 1.70134,1.0186835 4.08354,1.8676303 7.65622,2.5467533 4.93412,1.0186836 8.67749,2.5467535 11.05882,4.4142979 2.38219,1.8675449 3.57294,4.4142975 3.57294,7.6401735 0,2.37693 -0.51028,4.414299 -1.36101,5.942368 -0.85078,1.697807 -2.21184,2.886316 -3.57285,3.904914 -1.53127,1.018684 -3.23278,1.697807 -5.10429,2.207192 -1.87151,0.509342 -3.91311,0.679123 -5.78479,0.679123 h -14.6321 v -5.093422 h 7.82655 6.97562 c 1.3611,0 2.55203,-0.16978 3.74303,-0.339561 1.19102,-0.169772 2.21185,-0.679123 3.2327,-1.188508 0.85062,-0.509343 1.70142,-1.358246 2.21185,-2.207192 0.51032,-0.848912 0.85068,-2.037369 0.85068,-3.395614 0,-2.207107 -1.02102,-3.735176 -3.23278,-4.923683 -2.21168,-1.018684 -5.2742,-2.0373686 -9.18722,-3.0560529 -1.19109,-0.3395701 -2.55219,-0.6791229 -4.08337,-1.0186842 -1.36109,-0.5093421 -2.72227,-1.0186838 -3.91301,-1.8676307 -1.19109,-0.8489038 -2.21211,-1.8675444 -3.0627,-3.2258765 -0.85068,-1.35824519 -1.19092,-2.88631508 -1.19092,-4.7538594 0,-2.0373681 0.34023,-3.9049989 1.19092,-5.4329828 0.85058,-1.5280682 2.04168,-2.7164915 3.40286,-3.7351755 1.36109,-1.018684 3.06253,-1.697807 4.76386,-2.207192 1.87134,-0.509341 3.57295,-0.679123 5.61454,-0.679123 2.89227,0 5.78471,0.679123 8.50681,1.867545 2.89252,1.358245 4.76386,3.0560533 6.29529,5.4329825 l -4.76394,3.3956146 z"
       inkscape:connector-curvature="0"
       style="fill:#a567ab;fill-opacity:1" />
    <path
       id="path3193_4_"
       d="m 30.287745,-4.018059 c -0.850663,-1.6978064 -2.211763,-3.0560528 -4.083275,-4.0747365 -1.871512,-1.0186842 -3.913193,-1.6978072 -6.295125,-1.6978072 -1.020841,0 -2.211764,0.169772 -3.232604,0.339544 -1.02084,0.169798 -2.041681,0.509351 -2.892353,1.1885077 -0.850696,0.5093505 -1.531259,1.1885082 -2.04168,2.0373696 -0.51043,0.8489117 -0.850697,1.8676302 -0.850697,2.8863147 0,1.8676305 0.850697,3.39561322 2.381932,4.414298 1.701342,1.0186835 4.083275,1.8676303 7.656216,2.5467533 4.933948,1.0186836 8.677489,2.5467535 11.058818,4.4142979 2.382018,1.8675449 3.573027,4.4142975 3.573027,7.6401735 0,2.37693 -0.510386,4.414299 -1.361092,5.942368 -0.850844,1.697807 -2.211935,2.886316 -3.573114,3.904914 -1.531088,1.018684 -3.232603,1.697807 -5.104115,2.207192 -1.871512,0.509342 -3.913193,0.679123 -5.784705,0.679123 H 4.7705034 v -5.093422 h 7.8263856 6.975629 c 1.361091,0 2.5521,-0.16978 3.743024,-0.339561 1.190922,-0.169772 2.211762,-0.679123 3.232603,-1.188508 0.850646,-0.509343 1.70143,-1.358246 2.211763,-2.207192 0.510412,-0.848912 0.850845,-2.037369 0.850845,-3.395614 0,-2.207107 -1.020841,-3.735176 -3.23269,-4.923683 C 24.169231,10.244537 21.106538,9.2257669 17.193431,8.2070825 16.002335,7.8675212 14.64133,7.5279597 13.110414,7.1883984 11.748547,6.6790132 10.387542,6.1697138 9.1973084,5.320768 8.0062124,4.4719072 6.9850264,3.4532226 6.1346144,2.0949776 5.2839334,0.73673238 4.9436914,-0.79133748 4.9436914,-2.6588818 c 0,-2.0373682 0.340269,-3.9049984 1.190923,-5.4329824 0.850697,-1.5280695 2.04168,-2.7164918 3.402773,-3.7351748 1.3610926,-1.018685 3.0625206,-1.697808 4.7638646,-2.207194 1.871512,-0.509341 3.572941,-0.679121 5.614536,-0.679121 2.892352,0 5.784704,0.679121 8.506888,1.867544 2.892438,1.358245 4.763951,3.0560523 6.295039,5.4329828 l -4.423528,3.3956132 z"
       inkscape:connector-curvature="0"
       style="fill:#a567ab;fill-opacity:1" />
    <path
       id="path3189_4_-1"
       d="M 78.31968,5.3077611 V 6.676788 8.2169322 H 45.993646 c 0,2.0534968 0.510247,3.9359628 1.190923,5.8183418 0.680426,1.882379 1.701516,3.422609 3.062607,4.791636 1.361006,1.369027 2.892181,2.395819 4.423699,3.251407 1.701171,0.855656 3.572683,1.19791 5.614192,1.19791 2.892611,0 5.444712,-0.684523 7.656475,-2.224702 2.211678,-1.540144 3.743198,-3.080289 4.933858,-4.962754 l 4.25345,3.593727 c -2.38185,3.080289 -4.93395,5.30499 -7.8263,6.674016 -2.892355,1.369028 -5.784707,2.053584 -9.017311,2.053584 -2.89218,0 -5.614191,-0.513362 -7.996296,-1.711262 C 49.736928,25.672044 47.695161,24.1319 45.993818,22.249521 44.292561,20.367055 42.761215,18.14244 41.74046,15.404387 40.719534,12.837451 40.2092,9.9282801 40.2092,6.8479917 c 0,-3.0802882 0.510325,-5.9895447 1.53126,-8.5563952 1.020841,-2.5669354 2.382019,-4.962754 4.083275,-6.8451332 1.70143,-1.8823793 3.913193,-3.4226103 6.295126,-4.4493153 2.381931,-1.026792 4.933774,-1.711263 7.826299,-1.711263 3.062435,0 5.784791,0.51338 7.996555,1.711263 2.382015,1.026791 4.253355,2.566936 5.954705,4.4493153 1.53117,1.8823792 2.72227,3.9359628 3.57294,6.3317814 0.51043,2.05358262 0.85078,4.6204321 0.85078,7.5296025 z M 72.53481,3.4253816 c -0.17007,-3.93596138 -1.36101,-7.0162507 -3.57277,-9.5831004 -2.211852,-2.5669359 -5.27446,-3.7648439 -9.357993,-3.7648439 -1.871427,0 -3.572855,0.342269 -5.274199,1.02679 -1.701343,0.6845148 -3.062522,1.7112636 -4.253272,2.9091719 -1.191095,1.1979089 -2.212194,2.7380537 -2.892611,4.2781973 -0.680701,1.71126272 -1.190924,3.2514065 -1.190924,4.9627542 L 72.53438,3.4254771 z"
       inkscape:connector-curvature="0"
       style="fill:#a567ab;fill-opacity:1" />
  </g>
</svg>
