<?xml version="1.0" encoding="UTF-8" standalone="no"?>
<!-- Created with Inkscape (http://www.inkscape.org/) -->

<svg
   xmlns:dc="http://purl.org/dc/elements/1.1/"
   xmlns:cc="http://creativecommons.org/ns#"
   xmlns:rdf="http://www.w3.org/1999/02/22-rdf-syntax-ns#"
   xmlns:svg="http://www.w3.org/2000/svg"
   xmlns="http://www.w3.org/2000/svg"
   xmlns:sodipodi="http://sodipodi.sourceforge.net/DTD/sodipodi-0.dtd"
   xmlns:inkscape="http://www.inkscape.org/namespaces/inkscape"
   id="svg3403"
   height="50"
   width="335"
   version="1.1"
   inkscape:version="0.48.5 r10040"
   sodipodi:docname="sensaeLogo_text.svg">
  <sodipodi:namedview
     pagecolor="#ffffff"
     bordercolor="#666666"
     borderopacity="1"
     objecttolerance="10"
     gridtolerance="10"
     guidetolerance="10"
     inkscape:pageopacity="0"
     inkscape:pageshadow="2"
     inkscape:window-width="1920"
     inkscape:window-height="1018"
     id="namedview3029"
     showgrid="false"
     inkscape:zoom="5.116498"
     inkscape:cx="109.01127"
     inkscape:cy="10.614137"
     inkscape:window-x="-8"
     inkscape:window-y="356"
     inkscape:window-maximized="1"
     inkscape:current-layer="layer1" />
  <defs
     id="defs3405" />
  <metadata
     id="metadata3408">
    <rdf:RDF>
      <cc:Work
         rdf:about="">
        <dc:format>image/svg+xml</dc:format>
        <dc:type
           rdf:resource="http://purl.org/dc/dcmitype/StillImage" />
        <dc:title></dc:title>
      </cc:Work>
    </rdf:RDF>
  </metadata>
  <g
     id="layer1"
     transform="matrix(0.65775687,0,0,0.65775687,-3.1163925,19.678909)">
    <path
       id="path3181_4_"
       d="m 101.76485,-16.146719 c 0.19734,1.2097 0.19734,2.8226 0.19734,4.2339 v 3.8306999 h 0.19721 c 1.1836,-2.8225999 3.3538,-5.0402999 6.3126,-6.8547999 2.9589,-1.8145 5.9178,-2.621 9.2714,-2.621 5.7206,0 10.06,1.8145 12.822,5.4435 2.9588,3.6289999 4.3395,8.4676999 4.3395,14.3149999 V 31.836581 h -6.5096 V 5.4255809 c 0,-2.621 -0.19729,-4.83869997 -0.5919,-6.8548 -0.39441,-2.0161 -0.98619,-3.8306 -1.9726,-5.2419 -0.98631,-1.4113 -2.1697,-2.621 -3.748,-3.4273999 -1.5782,-0.80645 -3.5507,-1.2097 -5.9178,-1.2097 -1.7756,0 -3.3537,0.40323 -5.129,1.2097 -1.5781,0.8064499 -3.1563,2.0160999 -4.3399,3.4273999 -1.1834,1.6129 -2.3673,3.629 -3.1562,5.84680003 -0.78915,2.41939997 -1.1836,5.24189997 -1.1836,8.46769997 V 32.441381 H 95.846601 V -5.6636191 -10.703919 c 0,-2.0161 -0.19723,-3.8307 -0.19723,-5.6451 l 6.114999,0.2016 z"
       inkscape:connector-curvature="0"
       style="fill:#ffffff" />
    <path
       id="path3183_4_"
       d="m 213.33485,0.24218093 c 0,-4.20000003 -0.98631,-7.20000003 -3.1561,-9.20000003 -1.9728,-1.9999999 -5.1291,-2.9999999 -9.0742,-2.9999999 -2.762,0 -5.129,0.6 -7.4962,1.6 -2.3671,0.9999999 -4.34,2.3999999 -5.9181,4.1999999 l -3.748,-4.5999999 c 1.9729,-2 4.34,-3.6 7.299,-4.8 3.156,-1.2 6.5097,-2 10.455,-2 2.3671,0 4.7344,0.39999 6.9042,0.99999 2.1699,0.6 3.9451,1.8 5.5233,3.2 1.5781,1.4 2.9589,3.2 3.7479,5.3999999 0.78914,2.2 1.381,4.8 1.381,7.60000003 V 20.642171 c 0,1.8 0,3.8 0.19706,5.8 0.19723,2 0.19723,3.6 0.5919,5 h -5.91 c -0.19718,-1.1999 -0.39441,-2.4 -0.39441,-3.8 -0.19739,-1.4 -0.19739,-2.6 -0.19739,-4 h -0.19728 c -1.9726,3.2 -4.34,5.6 -7.1012,6.8 -2.5649,1.4 -5.721,2 -9.469,2 -1.7753,0 -3.5507,-0.19997 -5.326,-0.8 -1.7754,-0.60001 -3.5508,-1.4 -5.1289,-2.6 -1.5782,-1.2 -2.7617,-2.6 -3.7481,-4.6 -0.98625,-1.8 -1.578,-4.2 -1.578,-6.8 0,-3.6 0.98626,-6.6 2.5645,-8.8000001 1.57824,-2.2 4.1423,-3.8 7.1014,-4.8 2.959,-0.99998 6.3126,-1.8 10.258,-2 3.748,-0.19999 7.8903,-0.39999 11.835,-0.39999 l 0.59196,-1.39999997 z m -1.9726,6.99999997 c -2.7617,0 -5.5234,0.2 -8.0878,0.4 -2.5645,0.19999 -5.129,0.6 -7.496,1.4 -2.17,0.6 -4.1426,1.8000001 -5.5233,3.2000001 -1.381,1.4 -2.1701,3.2 -2.1701,5.4 0,1.6 0.19723,3.2 0.98631,4.2 0.59178,1.2 1.3809,2 2.5645,2.8 0.98627,0.59999 2.1699,1.2 3.3534,1.6 1.1836,0.19999 2.5645,0.4 3.7481,0.4 2.3672,0 4.3398,-0.4 6.1153,-1.2 1.7753,-0.79997 3.3533,-2 4.537,-3.6 1.1834,-1.4 2.1701,-3.2 2.7616,-5 0.59159,-2 0.98632,-3.8 0.98632,-6 V 7.2420809 h -1.7753 z"
       inkscape:connector-curvature="0"
       style="fill:#ffffff" />
    <path
       id="path3189_4_"
       d="m 269.61485,5.6564809 v 1.5873 1.7857 h -37.48 c 0,2.3809001 0.5916,4.5635001 1.3808,6.7460001 0.7889,2.1825 1.9728,3.9683 3.5509,5.5556 1.578,1.5873 3.3533,2.7778 5.129,3.7698 1.9724,0.99208 4.1423,1.3889 6.5093,1.3889 3.3538,0 6.3129,-0.79366 8.8772,-2.5794 2.5643,-1.78574 4.34,-3.5714 5.7205,-5.754 l 4.9316,4.1667 c -2.7616,3.5714 -5.7206,6.1508 -9.0741,7.7381 -3.3535,1.5873 -6.707,2.381 -10.455,2.381 -3.3533,0 -6.5093,-0.59521 -9.2712,-1.9841 -2.9589,-1.1905 -5.3262,-2.9762 -7.2988,-5.1587 -1.9725,-2.1826 -3.748,-4.7619 -4.9315,-7.9365 -1.1837,-2.9762 -1.7754,-6.3492 -1.7754,-9.9206001 0,-3.5714 0.59169,-6.94449997 1.7754,-9.9206 1.1836,-2.9762 2.7618,-5.754 4.7343,-7.9364999 1.9727,-2.1825 4.5371,-3.9683 7.2988,-5.1587 2.7617,-1.1905 5.7204,-1.9841 9.0741,-1.9841 3.5507,0 6.7071,0.59523 9.2715,1.9841 2.7618,1.1905 4.9315,2.9762 6.9041,5.1587 1.7753,2.1824999 3.1563,4.5634999 4.1426,7.3412999 0.59181,2.38100003 0.98643,5.3571 0.98643,8.7301 z m -6.7072,-2.1825 c -0.19717,-4.5635 -1.578,-8.1349 -4.1424,-11.111 -2.5645,-2.9761999 -6.1154,-4.3650999 -10.85,-4.3650999 -2.1699,0 -4.1425,0.39684 -6.1151,1.1905 -1.9726,0.79365 -3.5508,1.9840999 -4.9314,3.3729999 -1.381,1.3889 -2.5649,3.1746 -3.3538,4.9603 -0.78923,1.98410003 -1.3808,3.7698 -1.3808,5.754 l 30.773,0.19841 z"
       inkscape:connector-curvature="0"
       style="fill:#ffffff" />
    <path
       id="path3191_4_"
       d="m 169.48485,-5.1562191 c -0.98631,-1.9685 -2.5644,-3.5433 -4.7342,-4.7244 -2.1701,-1.1810999 -4.5371,-1.9684999 -7.2988,-1.9684999 -1.1837,0 -2.5645,0.19684 -3.7481,0.39368 -1.1836,0.19687 -2.3671,0.59056 -3.3535,1.378 -0.98619,0.5905599 -1.7753,1.3779999 -2.3672,2.3621999 -0.59167,0.98426 -0.98619,2.1654 -0.98619,3.3465 0,2.1654 0.98619,3.93700003 2.7616,5.11810003 1.9726,1.18109997 4.7346,2.16539997 8.8769,2.95279997 5.7208,1.1811 10.061,2.9528 12.822,5.1181 2.762,2.1653001 4.1426,5.1181001 4.1426,8.8583001 0,2.7559 -0.59164,5.1181 -1.578,6.8898 -0.98642,1.9685 -2.5645,3.3465 -4.1425,4.5275 -1.7754,1.1811 -3.7482,1.9685 -5.9181,2.5591 -2.1699,0.59055 -4.537,0.7874 -6.7071,0.7874 h -16.965 v -5.9055 h 9.0744 8.0878 c 1.5781,0 2.9589,-0.19685 4.3398,-0.3937 1.3809,-0.19684 2.5645,-0.7874 3.7481,-1.378 0.98625,-0.59055 1.9727,-1.5748 2.5645,-2.5591 0.59169,-0.98426 0.98631,-2.3622 0.98631,-3.937 0,-2.559 -1.1838,-4.3307 -3.7482,-5.7087 -2.5643,-1.1811 -6.1151,-2.3622 -10.652,-3.5433001 -1.381,-0.39371 -2.9591,-0.7874 -4.7344,-1.1811 -1.5781,-0.59055 -3.1563,-1.1811 -4.5369,-2.1654 -1.381,-0.98425 -2.5648,-2.1653 -3.551,-3.7402 -0.98631,-1.57479997 -1.3808,-3.3465 -1.3808,-5.5118 0,-2.3622 0.39447,-4.5276 1.3808,-6.2992 0.98619,-1.7716999 2.3672,-3.1495999 3.9454,-4.3306999 1.5781,-1.1811 3.5508,-1.9685 5.5234,-2.5591 2.1697,-0.59055 4.1426,-0.7874 6.5097,-0.7874 3.3534,0 6.707,0.7874 9.8631,2.1653 3.3537,1.5748 5.5234,3.5433 7.299,6.2991999 l -5.5235,3.937 z"
       inkscape:connector-curvature="0"
       style="fill:#ffffff" />
    <path
       id="path3193_4_"
       d="m 34.584851,-5.1562191 c -0.98629,-1.9685 -2.5644,-3.5433 -4.7343,-4.7244 -2.1699,-1.1810999 -4.5371,-1.9684999 -7.2988,-1.9684999 -1.1836,0 -2.5644,0.19684 -3.748,0.39368 -1.1836,0.19687 -2.3672,0.59056 -3.3535,1.378 -0.98633,0.5905599 -1.7754,1.3779999 -2.3672,2.3621999 -0.59181,0.98426 -0.98633,2.1654 -0.98633,3.3465 0,2.1654 0.98633,3.93700003 2.7617,5.11810003 1.9726,1.18109997 4.7343,2.16539997 8.8769,2.95279997 5.7206,1.1811 10.061,2.9528 12.822,5.1181 2.7618,2.1653001 4.1427,5.1181001 4.1427,8.8583001 0,2.7559 -0.59176,5.1181 -1.5781,6.8898 -0.9865,1.9685 -2.5646,3.3465 -4.1428,4.5275 -1.7752,1.1811 -3.748,1.9685 -5.9179,2.5591 -2.1699,0.59055 -4.5371,0.7874 -6.707,0.7874 H 4.9992205 v -5.9055 h 9.0742005 8.0878 c 1.5781,0 2.959,-0.19685 4.3398,-0.3937 1.3808,-0.19684 2.5644,-0.7874 3.748,-1.378 0.98627,-0.59055 1.9727,-1.5748 2.5644,-2.5591 0.59179,-0.98426 0.9865,-2.3622 0.9865,-3.937 0,-2.559 -1.1836,-4.3307 -3.7481,-5.7087 -2.561,-1.18 -6.112,-2.3612 -10.649,-3.5423001 -1.381,-0.3937 -2.959,-0.7874 -4.734,-1.1811 -1.579,-0.5906 -3.157,-1.1811 -4.537,-2.1654 -1.3810005,-0.9842 -2.5650005,-2.1653 -3.5510005,-3.7401 -0.98631,-1.57479997 -1.3808,-3.3465 -1.3808,-5.5118 0,-2.3622 0.39452,-4.5276 1.3808,-6.2992 0.98633,-1.7716999 2.3672,-3.1495999 3.9453005,-4.3306999 1.5781,-1.1811 3.5508,-1.9685 5.5234,-2.5591 2.1699,-0.59055 4.1426,-0.7874 6.5097,-0.7874 3.3535,0 6.707,0.7874 9.8632,2.1653 3.3536,1.5748 5.5235,3.5433 7.2987,6.2991999 l -5.1288,3.937 z"
       inkscape:connector-curvature="0"
       style="fill:#ffffff;fill-opacity:1" />
    <path
       id="path3189_4_-1"
       d="m 90.274851,5.6564809 v 1.5873 1.7857 h -37.48 c 0,2.3809001 0.5916,4.5635001 1.3808,6.7460001 0.78891,2.1825 1.9728,3.9683 3.5509,5.5556 1.578,1.5873 3.3533,2.7778 5.129,3.7698 1.9724,0.99208 4.1423,1.3889 6.5093,1.3889 3.3538,0 6.3128,-0.79366 8.8772,-2.5794 2.5643,-1.7857 4.34,-3.5714 5.7205,-5.754 l 4.9316,4.1667 c -2.7616,3.5714 -5.7206,6.1508 -9.0741,7.7381 -3.3535,1.5873 -6.707,2.381 -10.455,2.381 -3.3533,0 -6.5093,-0.59521 -9.2712,-1.9841 -2.9589,-1.1905 -5.3262,-2.9762 -7.2988,-5.1587 -1.9725,-2.1826 -3.748,-4.7619 -4.9315,-7.9365 -1.1837,-2.9762 -1.7754,-6.3492 -1.7754,-9.9206001 0,-3.5714 0.59169,-6.94449997 1.7754,-9.9206 1.1836,-2.9762 2.7618,-5.754 4.7343,-7.9364999 1.9727,-2.1825 4.5371,-3.9683 7.2988,-5.1587 2.7617,-1.1905 5.7204,-1.9841 9.0741,-1.9841 3.5507,0 6.7071,0.59523 9.2715,1.9841 2.7618,1.1905 4.9315,2.9762 6.9041,5.1587 1.7753,2.1824999 3.1563,4.5634999 4.1426,7.3412999 0.59181,2.38100003 0.98643,5.3571 0.98643,8.7301 z m -6.7072,-2.1825 c -0.19718,-4.5635 -1.578,-8.1349 -4.1424,-11.111 -2.5645,-2.9761999 -6.1154,-4.3650999 -10.85,-4.3650999 -2.1698,0 -4.1425,0.39684 -6.1151,1.1905 -1.9726,0.79365 -3.5508,1.9840999 -4.9314,3.3729999 -1.381,1.3889 -2.5649,3.1746 -3.3538,4.9603 -0.78923,1.98410003 -1.3808,3.7698 -1.3808,5.754 l 30.773,0.19841 z"
       inkscape:connector-curvature="0"
       style="fill:#ffffff" />
  </g>
</svg>
