<?xml version="1.0" encoding="utf-8"?>
<!-- Generator: Adobe Illustrator 18.1.1, SVG Export Plug-In . SVG Version: 6.00 Build 0)  -->
<svg version="1.1"
	 id="svg3403" sodipodi:docname="sensaeLogo_full_small.svg" inkscape:version="0.48.5 r10040" xmlns:dc="http://purl.org/dc/elements/1.1/" xmlns:cc="http://creativecommons.org/ns#" xmlns:rdf="http://www.w3.org/1999/02/22-rdf-syntax-ns#" xmlns:svg="http://www.w3.org/2000/svg" xmlns:sodipodi="http://sodipodi.sourceforge.net/DTD/sodipodi-0.dtd" xmlns:inkscape="http://www.inkscape.org/namespaces/inkscape"
	 xmlns="http://www.w3.org/2000/svg" xmlns:xlink="http://www.w3.org/1999/xlink" x="0px" y="0px" width="318px" height="89.1px"
	 viewBox="-146 352.9 318 89.1" enable-background="new -146 352.9 318 89.1" xml:space="preserve">
<path id="path3181_4_" inkscape:connector-curvature="0" fill="#A567AB" d="M12.8,383.6c0.2,1.1,0.2,2.6,0.2,3.8v3.5h0.2
	c1.1-2.6,2.9-4.4,5.7-6c2.6-1.6,5.3-2.4,8.2-2.4c5.1,0,9,1.6,11.2,4.7c2.6,3.3,3.8,7.5,3.8,12.7v26h-5.8v-23.2c0-2.4-0.2-4.4-0.5-6
	c-0.4-1.8-0.9-3.5-1.8-4.6c-0.9-1.3-2-2.4-3.3-3.1c-1.5-0.7-3.1-1.1-5.3-1.1c-1.6,0-2.9,0.4-4.6,1.1c-1.5,0.7-2.7,1.8-3.8,3.1
	c-1.1,1.5-2,3.3-2.7,5.1c-0.7,2.2-1.1,4.6-1.1,7.5v21.8H7.4v-33.6v-4.4c0-1.8-0.2-3.5-0.2-4.9H12.8L12.8,383.6z"/>
<path id="path3183_4_" inkscape:connector-curvature="0" fill="#A567AB" d="M111.2,398.2c0-3.7-0.9-6.4-2.7-8.2
	c-1.8-1.8-4.6-2.7-8-2.7c-2.4,0-4.6,0.5-6.6,1.5s-3.8,2.2-5.3,3.7l-3.3-4c1.8-1.8,3.8-3.1,6.4-4.2c2.7-1.1,5.8-1.8,9.3-1.8
	c2,0,4.2,0.4,6.2,0.9s3.5,1.6,4.9,2.9c1.5,1.3,2.6,2.9,3.3,4.7c0.7,2,1.3,4.2,1.3,6.8v18.5c0,1.6,0,3.3,0.2,5.1
	c0.2,1.8,0.2,3.1,0.5,4.4h-5.3c-0.2-1.1-0.4-2.2-0.4-3.3c-0.2-1.3-0.2-2.4-0.2-3.5h-0.1c-1.8,2.9-3.8,4.9-6.2,6
	c-2.2,1.3-5.1,1.8-8.4,1.8c-1.6,0-3.1-0.2-4.7-0.7s-3.1-1.3-4.6-2.4s-2.4-2.4-3.3-4c-0.9-1.6-1.5-3.7-1.5-6c0-3.1,0.9-5.8,2.2-7.9
	c1.5-2,3.7-3.3,6.2-4.2c2.6-0.9,5.7-1.6,9.1-1.8c3.3-0.2,6.9-0.4,10.3-0.4L111.2,398.2L111.2,398.2z M109.4,404.3
	c-2.4,0-4.9,0.2-7.1,0.4c-2.2,0.2-4.6,0.5-6.6,1.3c-2,0.5-3.7,1.6-4.9,2.9c-1.3,1.3-2,2.9-2,4.7c0,1.5,0.2,2.9,0.9,3.7
	c0.5,1.1,1.3,1.8,2.2,2.6c0.9,0.5,2,1.1,2.9,1.5c1.1,0.2,2.2,0.4,3.3,0.4c2,0,3.8-0.4,5.5-1.1c1.6-0.7,2.9-1.8,4-3.1s2-2.9,2.4-4.4
	c0.5-1.8,0.9-3.3,0.9-5.3v-3.1L109.4,404.3L109.4,404.3z"/>
<path id="path3189_4_" inkscape:connector-curvature="0" fill="#A567AB" d="M160.9,402.9v1.5v1.6h-33c0,2.2,0.5,4,1.3,6
	c0.7,2,1.8,3.5,3.1,4.9c1.5,1.5,2.9,2.4,4.6,3.3c1.8,0.9,3.7,1.3,5.8,1.3c2.9,0,5.7-0.7,7.9-2.4c2.2-1.6,3.8-3.1,5.1-5.1l4.4,3.7
	c-2.4,3.1-5.1,5.5-8,6.9c-2.9,1.5-6,2.2-9.3,2.2c-2.9,0-5.8-0.5-8.2-1.8c-2.6-1.1-4.7-2.6-6.4-4.6c-1.8-2-3.3-4.2-4.4-7.1
	c-1.1-2.6-1.6-5.7-1.6-8.8s0.5-6.2,1.6-8.8c1.1-2.6,2.4-5.1,4.2-7.1s4-3.5,6.4-4.6s5.1-1.8,8-1.8c3.1,0,6,0.5,8.2,1.8
	c2.4,1.1,4.4,2.6,6.2,4.6c1.6,2,2.7,4,3.7,6.6C160.6,397.3,160.9,400,160.9,402.9L160.9,402.9z M154.9,401.1c-0.2-4-1.5-7.3-3.7-9.8
	c-2.2-2.6-5.5-3.8-9.6-3.8c-2,0-3.7,0.4-5.5,1.1s-3.1,1.8-4.4,2.9c-1.3,1.3-2.2,2.7-2.9,4.4c-0.7,1.8-1.3,3.3-1.3,5.1L154.9,401.1
	L154.9,401.1z"/>
<path id="path3191_4_" inkscape:connector-curvature="0" fill="#A567AB" d="M72.5,393.5c-0.9-1.8-2.2-3.1-4.2-4.2s-4-1.8-6.4-1.8
	c-1.1,0-2.2,0.2-3.3,0.4c-1.1,0.2-2,0.5-2.9,1.3c-0.9,0.5-1.6,1.3-2,2c-0.5,0.9-0.9,2-0.9,2.9c0,2,0.9,3.5,2.4,4.6
	c1.8,1.1,4.2,2,7.9,2.6c5.1,1.1,9,2.6,11.2,4.6c2.4,2,3.7,4.6,3.7,7.9c0,2.4-0.5,4.6-1.5,6c-0.9,1.8-2.2,2.9-3.7,4
	c-1.6,1.1-3.3,1.8-5.3,2.2c-2,0.5-4,0.7-6,0.7H46.6v-5.3h8h7.1c1.5,0,2.6-0.2,3.8-0.4c1.2-0.2,2.2-0.7,3.3-1.3
	c0.9-0.5,1.8-1.5,2.2-2.2c0.5-0.9,0.9-2,0.9-3.5c0-2.2-1.1-3.8-3.3-5.1c-2.2-1.1-5.5-2-9.5-3.1c-1.3-0.4-2.6-0.7-4.2-1.1
	c-1.5-0.5-2.7-1.1-4-2s-2.2-2-3.1-3.3c-0.9-1.5-1.3-2.9-1.3-4.9s0.4-4,1.3-5.7c0.9-1.6,2-2.7,3.5-3.8s3.1-1.8,4.9-2.2
	c2-0.5,3.7-0.7,5.8-0.7c2.9,0,6,0.7,8.8,2c2.9,1.5,4.9,3.1,6.4,5.7L72.5,393.5L72.5,393.5z"/>
<path id="path3193_4_" inkscape:connector-curvature="0" fill="#A567AB" d="M-46.6,393.5c-0.9-1.8-2.2-3.1-4.2-4.2s-4-1.8-6.4-1.8
	c-1.1,0-2.2,0.2-3.3,0.4c-1.1,0.2-2,0.5-2.9,1.3c-0.9,0.5-1.6,1.3-2,2c-0.5,0.9-0.9,2-0.9,2.9c0,2,0.9,3.5,2.4,4.6
	c1.8,1.1,4.2,2,7.9,2.6c5.1,1.1,9,2.6,11.2,4.6c2.4,2,3.7,4.6,3.7,7.9c0,2.4-0.5,4.6-1.5,6c-0.9,1.8-2.2,2.9-3.7,4
	c-1.6,1.1-3.3,1.8-5.3,2.2c-2,0.5-4,0.7-6,0.7h-15.2v-5.3h8h7.1c1.5,0,2.6-0.2,3.8-0.4c1.3-0.2,2.2-0.7,3.3-1.3
	c0.9-0.5,1.8-1.5,2.2-2.2c0.5-0.9,0.9-2,0.9-3.5c0-2.2-1.1-3.8-3.3-5.1c-2.2-1.1-5.5-2-9.5-3.1c-1.3-0.4-2.6-0.7-4.2-1.1
	c-1.5-0.5-2.7-1.1-4-2s-2.2-2-3.1-3.3c-0.9-1.5-1.3-2.9-1.3-4.9s0.4-4,1.3-5.7s2-2.7,3.5-3.8s3.1-1.8,4.9-2.2c2-0.5,3.7-0.7,5.8-0.7
	c2.9,0,6,0.7,8.8,2c2.9,1.5,4.9,3.1,6.4,5.7L-46.6,393.5L-46.6,393.5z"/>
<path id="path3189_4_-1" inkscape:connector-curvature="0" fill="#A567AB" d="M2.6,402.9v1.5v1.6h-33c0,2.2,0.5,4,1.3,6
	c0.7,2,1.8,3.5,3.1,4.9c1.5,1.5,2.9,2.4,4.6,3.3c1.8,0.9,3.7,1.3,5.8,1.3c2.9,0,5.7-0.7,7.9-2.4s3.8-3.1,5.1-5.1l4.4,3.7
	c-2.4,3.1-5.1,5.5-8,6.9c-2.9,1.5-6,2.2-9.3,2.2c-2.9,0-5.8-0.5-8.2-1.8c-2.6-1.1-4.7-2.6-6.4-4.6c-1.8-2-3.3-4.2-4.4-7.1
	c-1.1-2.6-1.6-5.7-1.6-8.8s0.5-6.2,1.6-8.8c1.1-2.6,2.4-5.1,4.2-7.1s4-3.5,6.4-4.6s5.1-1.8,8-1.8c3.1,0,6,0.5,8.2,1.8
	c2.4,1.1,4.4,2.6,6.2,4.6c1.6,2,2.7,4,3.7,6.6C2.2,397.3,2.6,400,2.6,402.9L2.6,402.9z M-3.4,401.1c-0.2-4-1.5-7.3-3.7-9.8
	c-2.2-2.6-5.5-3.8-9.6-3.8c-2,0-3.7,0.4-5.5,1.1s-3.1,1.8-4.4,2.9c-1.3,1.3-2.2,2.7-2.9,4.4c-0.7,1.8-1.3,3.3-1.3,5.1L-3.4,401.1
	L-3.4,401.1z"/>
<path id="path4692" inkscape:connector-curvature="0" fill="#FFFFFF" d="M-134.8,392.8c-1.3,19.4,11.4,32.7,28.4,33.8
	C-104.4,409.6-115.4,394.9-134.8,392.8z"/>
<path id="path4694" inkscape:connector-curvature="0" fill="#FFFFFF" d="M-77.9,392.8c1.3,19.4-11.4,32.7-28.4,33.8
	C-108.2,409.6-97.4,394.9-77.9,392.8z"/>
<path id="path4696" inkscape:connector-curvature="0" fill="#FFFFFF" d="M-121.5,385.1c-7.9,17.8-0.5,34.7,15.1,41.5
	C-98.8,411.5-103.9,393.8-121.5,385.1z"/>
<path id="path4698" inkscape:connector-curvature="0" fill="#FFFFFF" d="M-91.2,385.1c7.9,17.8,0.5,34.7-15.1,41.5
	C-113.9,411.5-108.8,393.8-91.2,385.1z"/>
<path id="path4700" inkscape:connector-curvature="0" fill="#FFFFFF" d="M-106.2,382.3c-13.4,14.1-12.3,32.3,0,44.2
	C-94.1,414.9-92.8,396.6-106.2,382.3z"/>
<path id="path4520" inkscape:connector-curvature="0" opacity="0.8" fill="#A567AB" enable-background="new    " d="M-134.8,392.8
	c-1.3,19.4,11.4,32.7,28.6,33.8C-104.2,409.6-115.2,394.9-134.8,392.8z"/>
<path id="path4522" inkscape:connector-curvature="0" opacity="0.8" fill="#A567AB" enable-background="new    " d="M-77.6,392.8
	c1.3,19.4-11.4,32.7-28.6,33.8C-108.1,409.6-97.2,394.9-77.6,392.8z"/>
<path id="path4516" inkscape:connector-curvature="0" opacity="0.8" fill="#F790DA" enable-background="new    " d="M-121.3,385.1
	c-7.9,17.8-0.5,34.7,15.2,41.5C-98.7,411.5-103.7,393.8-121.3,385.1z"/>
<path id="path4518" inkscape:connector-curvature="0" opacity="0.8" fill="#F790DA" enable-background="new    " d="M-91,385.1
	c7.9,17.8,0.5,34.7-15.2,41.5C-113.7,411.5-108.6,393.8-91,385.1z"/>
<path id="path3741" inkscape:connector-curvature="0" opacity="0.8" fill="#EECDE1" enable-background="new    " d="M-106.1,382.3
	c-13.6,14.1-12.3,32.3,0,44.2C-93.7,414.9-92.6,396.6-106.1,382.3z"/>
</svg>
