<?xml version="1.0" encoding="utf-8"?>
<!-- Generator: Adobe Illustrator 18.1.1, SVG Export Plug-In . SVG Version: 6.00 Build 0)  -->
<svg version="1.1"
	 id="svg3403" sodipodi:docname="sensaeLogo_full_small.svg" inkscape:version="0.48.5 r10040" xmlns:dc="http://purl.org/dc/elements/1.1/" xmlns:cc="http://creativecommons.org/ns#" xmlns:rdf="http://www.w3.org/1999/02/22-rdf-syntax-ns#" xmlns:svg="http://www.w3.org/2000/svg" xmlns:sodipodi="http://sodipodi.sourceforge.net/DTD/sodipodi-0.dtd" xmlns:inkscape="http://www.inkscape.org/namespaces/inkscape"
	 xmlns="http://www.w3.org/2000/svg" xmlns:xlink="http://www.w3.org/1999/xlink" x="0px" y="0px" width="238.4px" height="36.5px"
	 viewBox="-186 378.5 238.4 36.5" enable-background="new -186 378.5 238.4 36.5" xml:space="preserve">
<sodipodi:namedview  inkscape:current-layer="svg3403" inkscape:window-maximized="1" inkscape:window-height="1018" inkscape:window-x="-8" inkscape:window-y="-8" inkscape:pageopacity="0" inkscape:pageshadow="2" inkscape:window-width="1920" inkscape:cy="39.969514" inkscape:cx="77.094762" inkscape:zoom="2.558249" showgrid="false" id="namedview3029" guidetolerance="10" gridtolerance="10" objecttolerance="10" borderopacity="1" bordercolor="#666666" pagecolor="#ffffff">
	</sodipodi:namedview>
<path id="path3181_4_" inkscape:connector-curvature="0" fill="#A567AB" d="M-71.4,379.7c0.2,0.7,0.2,1.8,0.2,2.6v2.2h0.2
	c0.7-1.8,2-2.8,3.8-3.9c1.8-1.1,3.4-1.6,5.4-1.6c3.3,0,5.9,1.1,7.4,3c1.8,2.2,2.6,5,2.6,8.5v17.2h-3.9v-15.5c0-1.6-0.2-2.8-0.4-3.9
	c-0.2-1.3-0.7-2.2-1.3-3c-0.7-0.8-1.3-1.6-2.2-2c-0.8-0.4-2-0.7-3.4-0.7c-1.1,0-2,0.2-3,0.7c-0.8,0.4-1.8,1.3-2.6,2
	c-0.7,0.8-1.3,2.2-1.8,3.3c-0.4,1.6-0.7,3-0.7,5v14.4h-3.9V386v-3c0-1.3-0.2-2.2-0.2-3.3L-71.4,379.7L-71.4,379.7L-71.4,379.7z"/>
<path id="path3183_4_" inkscape:connector-curvature="0" fill="#A567AB" d="M-6.1,389.2c0-2.4-0.7-4.2-1.8-5.4
	c-1.3-1.3-3-1.8-5.2-1.8c-1.6,0-3,0.4-4.3,0.8c-1.3,0.7-2.6,1.6-3.4,2.4l-2.2-2.6c1.3-1.3,2.6-2,4.2-2.8c1.8-0.7,3.9-1.3,6.2-1.3
	c1.3,0,2.8,0.2,4.2,0.7c1.3,0.4,2.2,1.1,3.3,2c1.1,0.8,1.8,2,2.2,3c0.4,1.3,0.8,2.8,0.8,4.3v12.2c0,1.1,0,2.2,0.2,3.3
	c0.2,1.3,0.2,2,0.4,2.8h-3.4c-0.2-0.7-0.2-1.6-0.2-2.2c-0.2-0.8-0.2-1.6-0.2-2.2h-0.2c-1.3,2-2.6,3.3-4.2,3.9
	c-1.6,0.8-3.3,1.3-5.4,1.3c-1.1,0-2-0.2-3-0.4c-1.1-0.2-2-0.8-3-1.6c-0.8-0.7-1.6-1.6-2.2-2.6c-0.7-1.1-0.8-2.4-0.8-3.9
	c0-2,0.7-3.9,1.6-5.2c0.8-1.3,2.4-2.2,4.2-2.8c1.8-0.7,3.8-1.1,6.2-1.3c2.2-0.2,4.6-0.2,6.7-0.2v-0.3L-6.1,389.2L-6.1,389.2z
	 M-7.5,393.4c-1.6,0-3.3,0.2-4.6,0.2s-3,0.4-4.3,0.8c-1.3,0.4-2.4,1.1-3.3,2c-0.8,0.8-1.3,2-1.3,3c0,0.8,0.2,2,0.7,2.4
	c0.4,0.7,0.8,1.3,1.6,1.8c0.7,0.4,1.3,0.7,2,0.8c0.7,0.2,1.6,0.2,2.2,0.2c1.3,0,2.6-0.2,3.8-0.7c1.1-0.4,2-1.3,2.6-2
	c0.7-0.8,1.3-2,1.6-2.8c0.4-1.3,0.7-2.2,0.7-3.4v-2.2h-1.3L-7.5,393.4L-7.5,393.4z"/>
<path id="path3189_4_" inkscape:connector-curvature="0" fill="#A567AB" d="M26.5,392.5v0.8v1.1H4.7c0,1.6,0.4,2.6,0.8,3.9
	c0.4,1.3,1.3,2.2,2,3.3c0.8,0.8,2,1.6,3,2.2c1.3,0.7,2.4,0.8,3.9,0.8c2,0,3.8-0.4,5.2-1.6c1.6-1.1,2.6-2,3.3-3.3l2.8,2.4
	c-1.6,2-3.3,3.8-5.2,4.6c-2,0.8-3.9,1.6-6.2,1.6c-2,0-3.9-0.4-5.4-1.3c-1.8-0.7-3-1.8-4.2-3c-1.3-1.3-2.2-2.8-2.8-4.6
	c-0.7-1.8-1.1-3.8-1.1-5.7c0-2,0.4-4.2,1.1-5.7c0.7-1.8,1.6-3.3,2.8-4.6c1.3-1.3,2.6-2.2,4.2-3c1.6-0.7,3.3-1.3,5.2-1.3
	s3.9,0.4,5.4,1.3c1.6,0.7,2.8,1.8,4.2,3c1.1,1.3,1.8,2.6,2.4,4.3C26.3,388.8,26.5,390.6,26.5,392.5L26.5,392.5z M22.6,391.2
	c-0.2-2.6-0.8-4.8-2.4-6.6c-1.6-1.8-3.8-2.6-6.3-2.6c-1.3,0-2.4,0.2-3.8,0.7c-1.3,0.4-2,1.3-2.8,2c-0.8,0.8-1.6,1.8-2,2.8
	c-0.4,1.3-0.8,2.2-0.8,3.3L22.6,391.2L22.6,391.2z"/>
<path id="path3191_4_" inkscape:connector-curvature="0" fill="#A567AB" d="M-31.7,386.3c-0.7-1.3-1.6-2-2.8-2.8
	c-1.3-0.7-2.6-1.3-4.2-1.3c-0.7,0-1.6,0.2-2.2,0.2c-0.7,0.2-1.3,0.4-2,0.8c-0.7,0.4-1.1,0.8-1.3,1.3c-0.4,0.7-0.7,1.3-0.7,2
	c0,1.3,0.7,2.2,1.6,3c1.3,0.7,2.8,1.3,5.2,1.8c3.3,0.7,5.9,1.8,7.4,3c1.6,1.3,2.4,3,2.4,5.2c0,1.6-0.4,3-0.8,3.9
	c-0.7,1.3-1.6,2-2.4,2.6c-1.1,0.7-2.2,1.3-3.4,1.6c-1.3,0.4-2.6,0.4-3.9,0.4h-9.8v-3.4h5.2h4.6c0.8,0,1.8-0.2,2.6-0.2
	c0.8-0.2,1.6-0.4,2.2-0.8c0.7-0.4,1.3-0.8,1.6-1.6c0.4-0.7,0.7-1.3,0.7-2.2c0-1.6-0.7-2.6-2.2-3.3c-1.6-0.7-3.8-1.3-6.3-2
	c-0.8-0.2-1.8-0.4-2.8-0.7c-0.8-0.4-1.8-0.7-2.6-1.3c-0.8-0.7-1.6-1.3-2-2.2c-0.7-0.8-0.8-2-0.8-3.3c0-1.3,0.2-2.6,0.8-3.8
	c0.7-1.1,1.3-1.8,2.2-2.6c0.8-0.7,2-1.3,3.3-1.6c1.3-0.4,2.4-0.4,3.9-0.4c2,0,3.9,0.4,5.7,1.3c2,0.8,3.3,2,4.2,3.8L-31.7,386.3
	L-31.7,386.3z"/>
<path id="path3193_4_" inkscape:connector-curvature="0" fill="#A567AB" d="M-110.7,386.3c-0.7-1.3-1.6-2-2.8-2.8
	c-1.3-0.7-2.6-1.3-4.2-1.3c-0.7,0-1.6,0.2-2.2,0.2s-1.3,0.4-2,0.8c-0.7,0.4-1.1,0.8-1.3,1.3c-0.4,0.7-0.7,1.3-0.7,2
	c0,1.3,0.7,2.2,1.6,3c1.3,0.7,2.8,1.3,5.2,1.8c3.3,0.7,5.9,1.8,7.4,3c1.6,1.3,2.4,3,2.4,5.2c0,1.6-0.4,3-0.8,3.9
	c-0.7,1.3-1.6,2-2.4,2.6c-1.1,0.7-2.2,1.3-3.4,1.6c-1.3,0.4-2.6,0.4-3.9,0.4h-10v-3.4h5.2h4.6c0.8,0,1.8-0.2,2.6-0.2
	c0.8,0,1.6-0.4,2.2-0.8c0.7-0.4,1.3-0.8,1.6-1.6c0.4-0.7,0.7-1.3,0.7-2.2c0-1.6-0.7-2.6-2.2-3.3s-3.8-1.3-6.3-2
	c-0.8-0.2-1.8-0.4-2.8-0.7c-0.8-0.4-1.8-0.7-2.6-1.3c-0.8-0.7-1.6-1.3-2-2.2c-0.7-0.8-0.8-2-0.8-3.3c0-1.3,0.2-2.6,0.8-3.8
	c0.7-1.1,1.3-1.8,2.2-2.6c0.8-0.7,2-1.3,3.3-1.6c1.3-0.4,2.4-0.4,3.9-0.4c2,0,3.9,0.4,5.7,1.3c2,0.8,3.3,2,4.2,3.8L-110.7,386.3
	L-110.7,386.3z"/>
<path id="path3189_4_-1" inkscape:connector-curvature="0" fill="#A567AB" d="M-78.1,392.5v0.8v1.1H-100c0,1.6,0.4,2.6,0.8,3.9
	s1.3,2.2,2,3.3c0.8,0.8,2,1.6,3,2.2c1.3,0.7,2.4,0.8,3.9,0.8c2,0,3.8-0.4,5.2-1.6c1.6-1.1,2.6-2,3.3-3.3l2.8,2.4
	c-1.6,2-3.3,3.8-5.2,4.6c-2,0.8-3.9,1.6-6.2,1.6c-2,0-3.9-0.4-5.4-1.3c-1.8-0.7-3-1.8-4.2-3c-1.3-1.3-2.2-2.8-2.8-4.6
	c-0.7-1.8-1.1-3.8-1.1-5.7c0-2,0.4-4.2,1.1-5.7c0.7-1.8,1.6-3.3,2.8-4.6c1.3-1.3,2.6-2.2,4.2-3c1.6-0.7,3.3-1.3,5.2-1.3
	s3.9,0.4,5.4,1.3c1.6,0.7,2.8,1.8,4.2,3c1.1,1.3,1.8,2.6,2.4,4.3C-78.5,388.8-78.1,390.6-78.1,392.5L-78.1,392.5z M-82.1,391.2
	c-0.2-2.6-0.8-4.8-2.4-6.6c-1.6-1.8-3.8-2.6-6.3-2.6c-1.3,0-2.4,0.2-3.8,0.7c-1.3,0.4-2,1.3-2.8,2c-0.8,0.8-1.6,1.8-2,2.8
	c-0.4,1.3-0.8,2.2-0.8,3.3L-82.1,391.2L-82.1,391.2z"/>
<path id="path4692" inkscape:connector-curvature="0" fill="#FFFFFF" d="M-168.9,385.8c-0.8,12.8,7.6,21.6,18.8,22.2
	C-148.9,396.9-156.1,387.3-168.9,385.8z"/>
<path id="path4694" inkscape:connector-curvature="0" fill="#FFFFFF" d="M-131.5,385.8c0.8,12.8-7.6,21.6-18.8,22.2
	C-151.5,396.9-144.3,387.3-131.5,385.8z"/>
<path id="path4696" inkscape:connector-curvature="0" fill="#FFFFFF" d="M-160.3,380.8c-5.2,11.8-0.4,23,10,27.5
	C-145.2,398-148.5,386.5-160.3,380.8z"/>
<path id="path4698" inkscape:connector-curvature="0" fill="#FFFFFF" d="M-140.1,380.8c5.2,11.8,0.4,23-10,27.5
	C-155.3,398-151.8,386.5-140.1,380.8z"/>
<path id="path4700" inkscape:connector-curvature="0" fill="#FFFFFF" d="M-150.1,379.1c-8.9,9.4-8,21.4,0,29.2
	C-142.1,400.5-141.3,388.4-150.1,379.1z"/>
<path id="path4520" inkscape:connector-curvature="0" opacity="0.8" fill="#A567AB" enable-background="new    " d="M-168.9,385.8
	c-0.8,12.8,7.6,21.6,18.9,22.2C-148.9,396.9-156.1,387.3-168.9,385.8z"/>
<path id="path4522" inkscape:connector-curvature="0" opacity="0.8" fill="#A567AB" enable-background="new    " d="M-131.3,385.8
	c0.8,12.8-7.6,21.6-18.9,22.2C-151.3,396.9-144.1,387.3-131.3,385.8z"/>
<path id="path4516" inkscape:connector-curvature="0" opacity="0.8" fill="#F790DA" enable-background="new    " d="M-160.1,380.8
	c-5.2,11.8-0.4,23,10,27.5C-145,398-148.5,386.5-160.1,380.8z"/>
<path id="path4518" inkscape:connector-curvature="0" opacity="0.8" fill="#F790DA" enable-background="new    " d="M-139.9,380.8
	c5.2,11.8,0.4,23-10,27.5C-155,398-151.8,386.5-139.9,380.8z"/>
<path id="path3741" inkscape:connector-curvature="0" opacity="0.8" fill="#EECDE1" enable-background="new    " d="M-150,379.1
	c-8.9,9.4-8,21.4,0,29.2C-141.9,400.5-141.1,388.4-150,379.1z"/>
</svg>
