<?xml version="1.0" encoding="UTF-8" standalone="no"?>
<!-- Created with Inkscape (http://www.inkscape.org/) -->

<svg
   xmlns:dc="http://purl.org/dc/elements/1.1/"
   xmlns:cc="http://creativecommons.org/ns#"
   xmlns:rdf="http://www.w3.org/1999/02/22-rdf-syntax-ns#"
   xmlns:svg="http://www.w3.org/2000/svg"
   xmlns="http://www.w3.org/2000/svg"
   xmlns:sodipodi="http://sodipodi.sourceforge.net/DTD/sodipodi-0.dtd"
   xmlns:inkscape="http://www.inkscape.org/namespaces/inkscape"
   width="765"
   height="990"
   id="svg5215"
   version="1.1"
   inkscape:version="0.48.5 r10040"
   sodipodi:docname="Sensae_lotus.png">
  <defs
     id="defs5217" />
  <sodipodi:namedview
     id="base"
     pagecolor="#ffffff"
     bordercolor="#666666"
     borderopacity="1.0"
     inkscape:pageopacity="0"
     inkscape:pageshadow="2"
     inkscape:zoom="0.35"
     inkscape:cx="375"
     inkscape:cy="520"
     inkscape:document-units="px"
     inkscape:current-layer="layer1"
     showgrid="false"
     inkscape:window-width="1920"
     inkscape:window-height="1018"
     inkscape:window-x="-8"
     inkscape:window-y="-8"
     inkscape:window-maximized="1" />
  <metadata
     id="metadata5220">
    <rdf:RDF>
      <cc:Work
         rdf:about="">
        <dc:format>image/svg+xml</dc:format>
        <dc:type
           rdf:resource="http://purl.org/dc/dcmitype/StillImage" />
        <dc:title></dc:title>
      </cc:Work>
    </rdf:RDF>
  </metadata>
  <g
     inkscape:label="Layer 1"
     inkscape:groupmode="layer"
     id="layer1"
     transform="translate(0,-62.362183)">
    <path
       id="path4692"
       d="M 8.8158461,382.09069 C -6.7158607,631.28906 155.15987,801.34955 372.68727,814.81786 397.16086,598.71421 257.43784,410.10075 8.8158461,382.09069 z"
       inkscape:connector-curvature="0"
       style="fill:#ffffff" />
    <path
       id="path4694"
       d="M 736.5801,382.09069 C 752.10482,631.28906 590.23607,801.34955 372.70867,814.81786 348.23508,598.71421 487.95811,410.10075 736.5801,382.09069 z"
       inkscape:connector-curvature="0"
       style="fill:#ffffff" />
    <path
       id="path4696"
       d="M 178.96543,284.01117 C 78.958575,512.88276 172.78499,727.9246 372.57306,814.83601 469.6424,620.10979 403.00124,395.19288 178.96543,284.01117 z"
       inkscape:connector-curvature="0"
       style="fill:#ffffff" />
    <path
       id="path4698"
       d="M 566.21466,284.01117 C 666.22151,512.88276 572.3951,727.9246 372.60703,814.83601 275.53769,620.10979 342.19024,395.19288 566.21466,284.01117 z"
       inkscape:connector-curvature="0"
       style="fill:#ffffff" />
    <path
       id="path4700"
       d="m 372.59563,249.88835 c -172.4107,180.93018 -157.9592,415.03321 0,564.89113 157.95942,-149.84676 172.41069,-383.94955 0,-564.89113 z"
       inkscape:connector-curvature="0"
       style="fill:#ffffff" />
    <path
       id="path4520"
       d="M 8.8214287,382.09069 C -6.8072732,631.28906 156.08073,801.34955 374.98653,814.81786 399.60689,598.71421 259.01418,410.10075 8.8214287,382.09069 z"
       inkscape:connector-curvature="0"
       style="opacity:0.8;fill:#a567ab;fill-opacity:1" />
    <path
       id="path4522"
       d="M 741.17885,382.09069 C 756.80523,631.28906 593.91955,801.34955 375.01375,814.81786 350.39315,598.71421 490.98611,410.10075 741.17885,382.09069 z"
       inkscape:connector-curvature="0"
       style="opacity:0.8;fill:#a567ab;fill-opacity:1" />
    <path
       id="path4516"
       d="M 180.05027,284.01117 C 79.410519,512.88276 173.82447,727.9246 374.87814,814.83601 472.55759,620.10979 405.48705,395.19288 180.05027,284.01117 z"
       inkscape:connector-curvature="0"
       style="opacity:0.8;fill:#f790da" />
    <path
       id="path4518"
       d="M 569.73973,284.01117 C 670.37949,512.88276 575.95436,727.9246 374.9121,814.83601 277.23266,620.10979 344.2918,395.19288 569.73973,284.01117 z"
       inkscape:connector-curvature="0"
       style="opacity:0.8;fill:#f790da" />
    <path
       id="path3741"
       d="m 374.8893,249.88835 c -173.50671,180.93018 -158.95355,415.03321 0,564.89113 158.9538,-149.84676 173.50672,-383.94955 0,-564.89113 z"
       inkscape:connector-curvature="0"
       style="opacity:0.8;fill:#eecde1" />
  </g>
</svg>
