<?xml version="1.0" encoding="utf-8"?>
<!-- Generator: Adobe Illustrator 18.1.1, SVG Export Plug-In . SVG Version: 6.00 Build 0)  -->
<svg version="1.1"
	 id="svg3403" sodipodi:docname="sensaeLogo_full.svg" inkscape:version="0.48.5 r10040" xmlns:dc="http://purl.org/dc/elements/1.1/" xmlns:cc="http://creativecommons.org/ns#" xmlns:rdf="http://www.w3.org/1999/02/22-rdf-syntax-ns#" xmlns:svg="http://www.w3.org/2000/svg" xmlns:sodipodi="http://sodipodi.sourceforge.net/DTD/sodipodi-0.dtd" xmlns:inkscape="http://www.inkscape.org/namespaces/inkscape"
	 xmlns="http://www.w3.org/2000/svg" xmlns:xlink="http://www.w3.org/1999/xlink" x="0px" y="0px" width="397.8px" height="59.5px"
	 viewBox="-11 365.4 397.8 59.5" enable-background="new -11 365.4 397.8 59.5" xml:space="preserve">
<g>
	
		<sodipodi:namedview  inkscape:current-layer="svg3403" inkscape:window-maximized="1" inkscape:window-height="1018" inkscape:window-x="-8" inkscape:window-y="-8" inkscape:pageopacity="0" inkscape:pageshadow="2" inkscape:window-width="1920" inkscape:cy="39.969514" inkscape:cx="77.094762" inkscape:zoom="2.558249" showgrid="false" id="namedview3029" guidetolerance="10" gridtolerance="10" objecttolerance="10" borderopacity="1" bordercolor="#666666" pagecolor="#ffffff">
		</sodipodi:namedview>
	<path id="path3181_4_" inkscape:connector-curvature="0" fill="#A567AB" d="M187.4,367.3c0.2,1.5,0.2,3.4,0.2,5v4.6h0.2
		c1.5-3.4,3.9-5.9,7.6-8.1c3.4-2.2,7-3,11-3c6.8,0,12,2.2,15.1,6.5c3.4,4.3,5.3,10.1,5.3,17v35.1h-7.8V393c0-3-0.2-5.7-0.7-8.1
		c-0.5-2.4-1.1-4.6-2.4-6.2c-1.1-1.6-2.6-3-4.6-4.1c-1.8-0.9-4.1-1.5-7-1.5c-2.2,0-3.9,0.5-6.2,1.5c-1.8,0.9-3.8,2.4-5.3,4.1
		c-1.5,2-2.9,4.3-3.8,6.8c-0.9,2.9-1.5,6.2-1.5,10.1V425h-7.7v-45.2v-5.9c0-2.4-0.2-4.6-0.2-6.7L187.4,367.3L187.4,367.3z"/>
	<path id="path3183_4_" inkscape:connector-curvature="0" fill="#A567AB" d="M319.9,386.7c0-5-1.1-8.5-3.8-11
		c-2.4-2.4-6.2-3.7-10.9-3.7c-3.2,0-6.2,0.7-8.9,2c-2.9,1.3-5.3,2.9-7,5l-4.6-5.5c2.4-2.4,5.3-4.3,8.7-5.7c3.8-1.5,7.8-2.4,12.5-2.4
		c2.9,0,5.6,0.5,8.1,1.3c2.6,0.7,4.7,2.2,6.5,3.8s3.4,3.8,4.6,6.5c0.9,2.6,1.6,5.7,1.6,9v24.9c0,2.2,0,4.6,0.2,6.8
		c0.2,2.4,0.2,4.4,0.7,5.9h-7c-0.2-1.5-0.5-2.9-0.5-4.6c-0.2-1.6-0.2-3-0.2-4.7h-0.2c-2.4,3.8-5.3,6.7-8.5,8.1
		c-3,1.6-6.8,2.4-11.2,2.4c-2.2,0-4.1-0.2-6.4-0.9c-2.2-0.7-4.1-1.6-6.2-3c-1.8-1.5-3.2-3-4.6-5.5c-1.1-2.2-1.8-5-1.8-8.1
		c0-4.4,1.1-7.8,3-10.5c1.8-2.6,4.8-4.6,8.5-5.7c3.4-1.3,7.6-2.2,12-2.4c4.6-0.2,9.4-0.5,14.1-0.5L319.9,386.7L319.9,386.7z
		 M317.6,395.1c-3.2,0-6.5,0.2-9.6,0.5c-3,0.2-6.2,0.7-8.9,1.6c-2.6,0.7-4.8,2.2-6.5,3.8c-1.6,1.6-2.6,3.8-2.6,6.5
		c0,2,0.2,3.8,1.1,5c0.7,1.5,1.6,2.4,3,3.2c1.1,0.7,2.6,1.5,3.9,2c1.5,0.2,3,0.5,4.6,0.5c2.9,0,5.3-0.5,7.2-1.5
		c2.2-0.9,3.9-2.4,5.5-4.4c1.5-1.6,2.6-3.8,3.2-5.9c0.7-2.4,1.1-4.6,1.1-7v-4.7L317.6,395.1L317.6,395.1z"/>
	<path id="path3189_4_" inkscape:connector-curvature="0" fill="#A567AB" d="M386.8,393.1v1.8v2.2h-44.5c0,2.9,0.7,5.5,1.6,7.9
		c0.9,2.6,2.4,4.7,4.1,6.7c1.8,1.8,3.9,3.2,6.2,4.6c2.4,1.3,4.8,1.6,7.8,1.6c3.9,0,7.6-0.9,10.5-3c3-2.2,5.3-4.1,6.8-6.8l5.7,4.8
		c-3.2,4.1-6.8,7.2-10.9,9.2c-3.9,2-7.9,2.9-12.5,2.9c-3.9,0-7.8-0.7-11-2.4c-3.4-1.5-6.4-3.7-8.7-6.2c-2.4-2.6-4.6-5.6-5.7-9.4
		c-1.5-3.7-2.2-7.6-2.2-11.8c0-4.1,0.7-8.3,2.2-11.8c1.5-3.7,3.2-6.8,5.6-9.4c2.4-2.6,5.5-4.7,8.7-6.2c3.2-1.5,6.8-2.4,10.9-2.4
		c4.1,0,7.9,0.7,11,2.4c3.2,1.5,5.7,3.7,8.1,6.2c2.2,2.6,3.8,5.5,4.8,8.7C386.2,385.6,386.8,389.1,386.8,393.1L386.8,393.1z
		 M378.8,390.6c-0.2-5.5-1.8-9.7-4.8-13.2c-3-3.7-7.2-5.3-12.8-5.3c-2.6,0-4.8,0.5-7.2,1.5c-2.4,0.9-4.1,2.4-5.7,3.9
		c-1.6,1.6-3,3.8-3.9,5.9c-0.9,2.4-1.6,4.6-1.6,6.8L378.8,390.6L378.8,390.6z"/>
	<path id="path3191_4_" inkscape:connector-curvature="0" fill="#A567AB" d="M267.8,380.3c-1.1-2.4-3-4.1-5.6-5.6s-5.5-2.4-8.7-2.4
		c-1.5,0-3,0.2-4.6,0.5c-1.5,0.2-2.9,0.7-3.9,1.6c-1.1,0.7-2.2,1.6-2.9,2.9c-0.7,1.1-1.1,2.6-1.1,3.9c0,2.6,1.1,4.7,3.2,6.2
		c2.4,1.5,5.6,2.6,10.5,3.4c6.8,1.5,12,3.4,15.1,6.2c3.2,2.6,4.8,6.2,4.8,10.5c0,3.2-0.7,6.2-1.8,8.1c-1.1,2.4-3,3.9-4.8,5.5
		c-2.2,1.5-4.6,2.4-7,3c-2.6,0.7-5.5,0.9-7.9,0.9h-20.3v-7h10.9h9.6c1.8,0,3.4-0.2,5.3-0.5c1.6-0.2,3-0.9,4.6-1.6
		c1.1-0.7,2.4-1.8,3-3c0.7-1.1,1.1-2.9,1.1-4.7c0-3-1.5-5-4.6-6.8c-3-1.5-7.2-2.9-12.6-4.1c-1.6-0.5-3.4-0.9-5.6-1.5
		c-1.8-0.7-3.8-1.5-5.5-2.6c-1.6-1.1-3-2.6-4.1-4.6c-1.1-1.8-1.6-3.9-1.6-6.5c0-2.9,0.5-5.5,1.6-7.4c1.1-2.2,2.9-3.8,4.7-5
		c1.8-1.5,4.1-2.4,6.5-3c2.6-0.7,4.8-0.9,7.8-0.9c3.9,0,7.9,0.9,11.8,2.6c3.9,1.8,6.5,4.1,8.7,7.4L267.8,380.3L267.8,380.3z"/>
	<path id="path3193_4_" inkscape:connector-curvature="0" fill="#A567AB" d="M107.7,380.3c-1.1-2.4-3-4.1-5.6-5.6
		c-2.6-1.5-5.5-2.4-8.7-2.4c-1.5,0-3,0.2-4.6,0.5c-1.5,0.2-2.9,0.7-3.9,1.6c-1.1,0.7-2.2,1.6-2.9,2.9c-0.7,1.1-1.1,2.6-1.1,3.9
		c0,2.6,1.1,4.7,3.2,6.2c2.4,1.5,5.6,2.6,10.5,3.4c6.8,1.5,12,3.4,15.1,6.2c3.2,2.6,4.8,6.2,4.8,10.5c0,3.2-0.7,6.2-1.8,8.1
		c-1.1,2.4-3,3.9-4.8,5.5c-2.2,1.5-4.6,2.4-7,3c-2.6,0.7-5.5,0.9-7.9,0.9H72.4v-7h10.9h9.6c1.8,0,3.4-0.2,5.3-0.5
		c1.6-0.2,3-0.9,4.6-1.6c1.1-0.7,2.4-1.8,3-3c0.7-1.1,1.1-2.9,1.1-4.7c0-3-1.5-5-4.6-6.8c-3-1.5-7.2-2.9-12.6-4.1
		c-1.6-0.5-3.4-0.9-5.6-1.5c-1.8-0.7-3.8-1.5-5.5-2.6c-1.6-1.1-3-2.6-4.1-4.6c-1.1-1.8-1.6-3.9-1.6-6.5c0-2.9,0.5-5.5,1.6-7.4
		c1.1-2.2,2.9-3.8,4.7-5c1.8-1.5,4.1-2.4,6.5-3c2.6-0.7,4.8-0.9,7.8-0.9c3.9,0,7.9,0.9,11.8,2.6c3.9,1.8,6.5,4.1,8.7,7.4
		L107.7,380.3L107.7,380.3z"/>
	<path id="path3189_4_-1" inkscape:connector-curvature="0" fill="#A567AB" d="M173.6,393.1v1.8v2.2h-44.3c0,2.9,0.7,5.5,1.6,7.9
		c0.9,2.6,2.4,4.7,4.1,6.7c1.8,1.8,3.9,3.2,6.2,4.6c2.4,1.3,4.8,1.6,7.8,1.6c3.9,0,7.6-0.9,10.5-3c3-2.2,5.3-4.1,6.8-6.8l5.7,4.8
		c-3.2,4.1-6.8,7.2-10.9,9.2c-3.9,1.8-7.9,2.9-12.5,2.9c-3.9,0-7.8-0.7-11-2.4c-3.4-1.5-6.4-3.7-8.7-6.2c-2.4-2.6-4.6-5.6-5.7-9.4
		c-1.5-3.7-2.2-7.6-2.2-11.8c0-4.1,0.7-8.3,2.2-11.8c1.5-3.7,3.2-6.8,5.6-9.4c2.4-2.6,5.5-4.7,8.7-6.2c3.2-1.5,6.8-2.4,10.9-2.4
		c4.1,0,7.9,0.7,11,2.4c3.2,1.5,5.7,3.7,8.1,6.2c2.2,2.6,3.8,5.5,4.8,8.7C173.4,385.6,173.6,389.1,173.6,393.1L173.6,393.1z
		 M165.7,390.6c-0.2-5.5-1.8-9.7-4.8-13.2c-3-3.7-7.2-5.3-12.8-5.3c-2.6,0-4.8,0.5-7.2,1.5c-2.4,0.9-4.1,2.4-5.7,3.9s-3,3.8-3.9,5.9
		c-0.9,2.4-1.6,4.6-1.6,6.8L165.7,390.6L165.7,390.6z"/>
	<path id="path4692" inkscape:connector-curvature="0" fill="#FFFFFF" d="M-10.9,379.4c-1.6,26.2,15.3,44.1,38.2,45.5
		C29.9,402.2,15.2,382.4-10.9,379.4z"/>
	<path id="path4694" inkscape:connector-curvature="0" fill="#FFFFFF" d="M65.6,379.4c1.6,26.2-15.3,44.1-38.2,45.5
		C24.6,402.2,39.5,382.4,65.6,379.4z"/>
	<path id="path4696" inkscape:connector-curvature="0" fill="#FFFFFF" d="M6.9,369.1c-10.5,24-0.7,46.6,20.5,55.8
		C37.4,404.5,30.4,380.9,6.9,369.1z"/>
	<path id="path4698" inkscape:connector-curvature="0" fill="#FFFFFF" d="M47.6,369.1c10.5,24,0.7,46.6-20.3,55.8
		C17.1,404.5,24.1,380.9,47.6,369.1z"/>
	<path id="path4700" inkscape:connector-curvature="0" fill="#FFFFFF" d="M27.4,365.5c-18.1,19-16.6,43.7,0,59.3
		C43.9,409.2,45.4,384.6,27.4,365.5z"/>
	<path id="path4520" inkscape:connector-curvature="0" opacity="0.8" fill="#A567AB" enable-background="new    " d="M-10.9,379.4
		c-1.6,26.2,15.5,44.1,38.5,45.5C30.1,402.2,15.2,382.4-10.9,379.4z"/>
	<path id="path4522" inkscape:connector-curvature="0" opacity="0.8" fill="#A567AB" enable-background="new    " d="M66,379.4
		c1.6,26.2-15.5,44.1-38.5,45.5C25,402.2,39.8,382.4,66,379.4z"/>
	<path id="path4516" inkscape:connector-curvature="0" opacity="0.8" fill="#F790DA" enable-background="new    " d="M7.1,369.1
		c-10.7,24-0.7,46.6,20.5,55.8C37.9,404.5,30.9,380.9,7.1,369.1z"/>
	<path id="path4518" inkscape:connector-curvature="0" opacity="0.8" fill="#F790DA" enable-background="new    " d="M47.9,369.1
		c10.7,24,0.7,46.6-20.3,55.8C17.4,404.5,24.2,380.9,47.9,369.1z"/>
	<path id="path3741" inkscape:connector-curvature="0" opacity="0.8" fill="#EECDE1" enable-background="new    " d="M27.6,365.5
		c-18.3,19-16.8,43.7,0,59.3C44.2,409.2,45.8,384.6,27.6,365.5z"/>
</g>
</svg>
