<?xml version="1.0" encoding="utf-8"?>
<!-- Generator: Adobe Illustrator 18.1.1, SVG Export Plug-In . SVG Version: 6.00 Build 0)  -->
<svg version="1.1"
	 id="svg3403" sodipodi:docname="sensaeLogo_full.svg" inkscape:version="0.48.5 r10040" xmlns:dc="http://purl.org/dc/elements/1.1/" xmlns:cc="http://creativecommons.org/ns#" xmlns:rdf="http://www.w3.org/1999/02/22-rdf-syntax-ns#" xmlns:svg="http://www.w3.org/2000/svg" xmlns:sodipodi="http://sodipodi.sourceforge.net/DTD/sodipodi-0.dtd" xmlns:inkscape="http://www.inkscape.org/namespaces/inkscape"
	 xmlns="http://www.w3.org/2000/svg" xmlns:xlink="http://www.w3.org/1999/xlink" x="0px" y="0px" width="272px" height="59.5px"
	 viewBox="-37 367.5 272 59.5" enable-background="new -37 367.5 272 59.5" xml:space="preserve">
<g>
	<path id="path3181_4_" inkscape:connector-curvature="0" fill="#A567AB" d="M97.1,376.1c0.1,0.9,0.1,2.1,0.1,3.1v2.8h0.1
		c0.9-2.1,2.4-3.7,4.7-5c2.1-1.3,4.3-1.9,6.7-1.9c4.2,0,7.4,1.3,9.3,4c2.1,2.7,3.2,6.2,3.2,10.5v21.6h-4.8v-19.4
		c0-1.9-0.1-3.5-0.4-5s-0.7-2.8-1.5-3.8c-0.7-1-1.6-1.9-2.8-2.5c-1.1-0.5-2.5-0.9-4.3-0.9c-1.3,0-2.4,0.3-3.8,0.9
		c-1.1,0.5-2.3,1.5-3.2,2.5c-0.9,1.2-1.8,2.7-2.3,4.2c-0.5,1.8-0.9,3.8-0.9,6.2v18.1h-4.7v-27.8V380c0-1.5-0.1-2.8-0.1-4.1
		L97.1,376.1L97.1,376.1z"/>
	<path id="path3183_4_" inkscape:connector-curvature="0" fill="#A567AB" d="M178.7,388c0-3.1-0.7-5.2-2.3-6.7
		c-1.5-1.5-3.8-2.3-6.7-2.3c-2,0-3.8,0.4-5.5,1.2c-1.8,0.8-3.2,1.8-4.3,3.1l-2.8-3.4c1.5-1.5,3.2-2.7,5.4-3.5
		c2.3-0.9,4.8-1.5,7.7-1.5c1.8,0,3.5,0.3,5,0.8c1.6,0.4,2.9,1.3,4,2.3c1.1,1,2.1,2.3,2.8,4c0.5,1.6,1,3.5,1,5.5v15.4
		c0,1.3,0,2.8,0.1,4.2c0.1,1.5,0.1,2.7,0.4,3.7h-4.3c-0.1-0.9-0.3-1.8-0.3-2.8c-0.1-1-0.1-1.9-0.1-2.9h-0.1c-1.5,2.3-3.2,4.1-5.2,5
		c-1.9,1-4.2,1.5-6.9,1.5c-1.3,0-2.5-0.1-3.9-0.5c-1.3-0.4-2.5-1-3.8-1.9c-1.1-0.9-2-1.9-2.8-3.4c-0.7-1.3-1.1-3.1-1.1-5
		c0-2.7,0.7-4.8,1.9-6.5c1.1-1.6,3-2.8,5.2-3.5c2.1-0.8,4.7-1.3,7.4-1.5c2.8-0.1,5.8-0.3,8.7-0.3L178.7,388L178.7,388z M177.3,393.2
		c-2,0-4,0.1-5.9,0.3c-1.9,0.1-3.8,0.4-5.5,1c-1.6,0.4-3,1.3-4,2.3s-1.6,2.3-1.6,4c0,1.2,0.1,2.3,0.7,3.1c0.4,0.9,1,1.5,1.9,2
		c0.7,0.4,1.6,0.9,2.4,1.2c0.9,0.1,1.9,0.3,2.8,0.3c1.8,0,3.2-0.3,4.5-0.9c1.3-0.5,2.4-1.5,3.4-2.7c0.9-1,1.6-2.3,2-3.7
		c0.4-1.5,0.7-2.8,0.7-4.3v-2.9L177.3,393.2L177.3,393.2z"/>
	<path id="path3189_4_" inkscape:connector-curvature="0" fill="#A567AB" d="M219.9,391.9v1.1v1.3h-27.4c0,1.8,0.4,3.4,1,4.9
		c0.5,1.6,1.5,2.9,2.5,4.1c1.1,1.1,2.4,2,3.8,2.8c1.5,0.8,3,1,4.8,1c2.4,0,4.7-0.5,6.5-1.9c1.9-1.3,3.2-2.5,4.2-4.2l3.5,3
		c-2,2.5-4.2,4.5-6.7,5.7c-2.4,1.2-4.9,1.8-7.7,1.8c-2.4,0-4.8-0.4-6.7-1.5c-2.1-0.9-3.9-2.3-5.4-3.8c-1.5-1.6-2.8-3.5-3.5-5.8
		c-0.9-2.3-1.3-4.7-1.3-7.2s0.4-5.1,1.3-7.2c0.9-2.3,2-4.2,3.5-5.8s3.4-2.9,5.4-3.8s4.2-1.5,6.7-1.5s4.9,0.4,6.7,1.5
		c2,0.9,3.5,2.3,5,3.8c1.3,1.6,2.3,3.4,3,5.4C219.5,387.3,219.9,389.5,219.9,391.9L219.9,391.9z M215,390.4c-0.1-3.4-1.1-6-3-8.1
		c-1.9-2.3-4.5-3.2-7.9-3.2c-1.6,0-3,0.3-4.5,0.9s-2.5,1.5-3.5,2.4c-1,1-1.9,2.3-2.4,3.7c-0.5,1.5-1,2.8-1,4.2L215,390.4L215,390.4z
		"/>
	<path id="path3191_4_" inkscape:connector-curvature="0" fill="#A567AB" d="M146.6,384c-0.7-1.5-1.9-2.5-3.5-3.5
		c-1.6-0.9-3.4-1.5-5.4-1.5c-0.9,0-1.9,0.1-2.8,0.3c-0.9,0.1-1.8,0.4-2.4,1c-0.7,0.4-1.3,1-1.8,1.8c-0.4,0.7-0.7,1.6-0.7,2.4
		c0,1.6,0.7,2.9,2,3.8c1.5,0.9,3.5,1.6,6.5,2.1c4.2,0.9,7.4,2.1,9.3,3.8c2,1.6,3,3.8,3,6.5c0,2-0.4,3.8-1.1,5
		c-0.7,1.5-1.9,2.4-3,3.4c-1.3,0.9-2.8,1.5-4.3,1.9c-1.6,0.4-3.4,0.5-4.9,0.5H125v-4.3h6.7h5.9c1.1,0,2.1-0.1,3.2-0.3
		c1-0.1,1.9-0.5,2.8-1c0.7-0.4,1.5-1.1,1.9-1.9c0.4-0.7,0.7-1.8,0.7-2.9c0-1.9-0.9-3.1-2.8-4.2c-1.9-0.9-4.5-1.8-7.8-2.5
		c-1-0.3-2.1-0.5-3.5-0.9c-1.1-0.4-2.3-0.9-3.4-1.6c-1-0.7-1.9-1.6-2.5-2.8c-0.7-1.1-1-2.4-1-4c0-1.8,0.3-3.4,1-4.5
		c0.7-1.3,1.8-2.3,2.9-3.1c1.1-0.9,2.5-1.5,4-1.9c1.6-0.4,3-0.5,4.8-0.5c2.4,0,4.9,0.5,7.2,1.6c2.4,1.1,4,2.5,5.4,4.5L146.6,384
		L146.6,384z"/>
	<path id="path3193_4_" inkscape:connector-curvature="0" fill="#A567AB" d="M48,384c-0.7-1.5-1.9-2.5-3.5-3.5
		c-1.6-0.9-3.4-1.5-5.4-1.5c-0.9,0-1.9,0.1-2.8,0.3c-0.9,0.1-1.8,0.4-2.4,1c-0.7,0.4-1.3,1-1.8,1.8c-0.4,0.7-0.7,1.6-0.7,2.4
		c0,1.6,0.7,2.9,2,3.8c1.5,0.9,3.5,1.6,6.5,2.1c4.2,0.9,7.4,2.1,9.3,3.8c2,1.6,3,3.8,3,6.5c0,2-0.4,3.8-1.1,5
		c-0.7,1.5-1.9,2.4-3,3.4c-1.3,0.9-2.8,1.5-4.3,1.9c-1.6,0.4-3.4,0.5-4.9,0.5H26.2v-4.3h6.7h5.9c1.1,0,2.1-0.1,3.2-0.3
		c1-0.1,1.9-0.5,2.8-1c0.7-0.4,1.5-1.1,1.9-1.9c0.4-0.7,0.7-1.8,0.7-2.9c0-1.9-0.9-3.1-2.8-4.2c-1.9-0.9-4.5-1.8-7.8-2.5
		c-1-0.3-2.1-0.5-3.5-0.9c-1.1-0.4-2.3-0.9-3.4-1.6c-1-0.7-1.9-1.6-2.5-2.8c-0.7-1.1-1-2.4-1-4c0-1.8,0.3-3.4,1-4.5
		c0.7-1.3,1.8-2.3,2.9-3.1c1.1-0.9,2.5-1.5,4-1.9c1.6-0.4,3-0.5,4.8-0.5c2.4,0,4.9,0.5,7.2,1.6c2.4,1.1,4,2.5,5.4,4.5L48,384L48,384
		z"/>
	<path id="path3189_4_-1" inkscape:connector-curvature="0" fill="#A567AB" d="M88.6,391.9v1.1v1.3H61.3c0,1.8,0.4,3.4,1,4.9
		c0.5,1.6,1.5,2.9,2.5,4.1c1.1,1.1,2.4,2,3.8,2.8c1.5,0.8,3,1,4.8,1c2.4,0,4.7-0.5,6.5-1.9c1.9-1.3,3.2-2.5,4.2-4.2l3.5,3
		c-2,2.5-4.2,4.5-6.7,5.7c-2.4,1.1-4.9,1.8-7.7,1.8c-2.4,0-4.8-0.4-6.7-1.5c-2.1-0.9-3.9-2.3-5.4-3.8c-1.5-1.6-2.8-3.5-3.5-5.8
		c-0.9-2.3-1.3-4.7-1.3-7.2s0.4-5.1,1.3-7.2c0.9-2.3,2-4.2,3.5-5.8s3.4-2.9,5.4-3.8s4.2-1.5,6.7-1.5s4.9,0.4,6.7,1.5
		c2,0.9,3.5,2.3,5,3.8c1.3,1.6,2.3,3.4,3,5.4C88.5,387.3,88.6,389.5,88.6,391.9L88.6,391.9z M83.7,390.4c-0.1-3.4-1.1-6-3-8.1
		c-1.9-2.3-4.5-3.2-7.9-3.2c-1.6,0-3,0.3-4.5,0.9s-2.5,1.5-3.5,2.4c-1,1-1.9,2.3-2.4,3.7c-0.5,1.5-1,2.8-1,4.2L83.7,390.4
		L83.7,390.4z"/>
	<path id="path4692" inkscape:connector-curvature="0" fill="#FFFFFF" d="M-25,383.5c-1,16.1,9.4,27.1,23.5,28
		C0.1,397.5-8.9,385.3-25,383.5z"/>
	<path id="path4694" inkscape:connector-curvature="0" fill="#FFFFFF" d="M22.1,383.5c1,16.1-9.4,27.1-23.5,28
		C-3.2,397.5,6,385.3,22.1,383.5z"/>
	<path id="path4696" inkscape:connector-curvature="0" fill="#FFFFFF" d="M-14.1,377.1c-6.5,14.8-0.4,28.7,12.6,34.4
		C4.7,398.9,0.4,384.4-14.1,377.1z"/>
	<path id="path4698" inkscape:connector-curvature="0" fill="#FFFFFF" d="M11,377.1c6.5,14.8,0.4,28.7-12.5,34.4
		C-7.8,398.9-3.5,384.4,11,377.1z"/>
	<path id="path4700" inkscape:connector-curvature="0" fill="#FFFFFF" d="M-1.5,374.9c-11.2,11.7-10.2,26.9,0,36.5
		C8.7,401.9,9.7,386.7-1.5,374.9z"/>
	<path id="path4520" inkscape:connector-curvature="0" opacity="0.8" fill="#A567AB" enable-background="new    " d="M-25,383.5
		c-1,16.1,9.6,27.1,23.7,28C0.2,397.5-8.9,385.3-25,383.5z"/>
	<path id="path4522" inkscape:connector-curvature="0" opacity="0.8" fill="#A567AB" enable-background="new    " d="M22.3,383.5
		c1,16.1-9.6,27.1-23.7,28C-2.9,397.5,6.2,385.3,22.3,383.5z"/>
	<path id="path4516" inkscape:connector-curvature="0" opacity="0.8" fill="#F790DA" enable-background="new    " d="M-13.9,377.1
		c-6.6,14.8-0.4,28.7,12.6,34.4C5,398.9,0.7,384.4-13.9,377.1z"/>
	<path id="path4518" inkscape:connector-curvature="0" opacity="0.8" fill="#F790DA" enable-background="new    " d="M11.2,377.1
		c6.6,14.8,0.4,28.7-12.5,34.4C-7.6,398.9-3.4,384.4,11.2,377.1z"/>
	<path id="path3741" inkscape:connector-curvature="0" opacity="0.8" fill="#EECDE1" enable-background="new    " d="M-1.3,374.9
		c-11.2,11.7-10.3,26.9,0,36.5C8.9,401.9,9.9,386.7-1.3,374.9z"/>
</g>
</svg>
