<?xml version="1.0" encoding="utf-8"?>
<!-- Generator: Adobe Illustrator 18.1.1, SVG Export Plug-In . SVG Version: 6.00 Build 0)  -->
<svg version="1.1"
	 id="svg3403" sodipodi:docname="sensaeLogo_full_small.svg" inkscape:version="0.48.5 r10040" xmlns:dc="http://purl.org/dc/elements/1.1/" xmlns:cc="http://creativecommons.org/ns#" xmlns:rdf="http://www.w3.org/1999/02/22-rdf-syntax-ns#" xmlns:svg="http://www.w3.org/2000/svg" xmlns:sodipodi="http://sodipodi.sourceforge.net/DTD/sodipodi-0.dtd" xmlns:inkscape="http://www.inkscape.org/namespaces/inkscape"
	 xmlns="http://www.w3.org/2000/svg" xmlns:xlink="http://www.w3.org/1999/xlink" x="0px" y="0px" width="238.4px" height="36.5px"
	 viewBox="64.6 349.2 238.4 36.5" enable-background="new 64.6 349.2 238.4 36.5" xml:space="preserve">
<path id="path3181_4_" inkscape:connector-curvature="0" fill="#A567AB" d="M183.6,350.7c0.2,0.8,0.2,2.2,0.2,3.2v2.7h0.2
	c0.8-2.2,2.4-3.4,4.6-4.8c2.2-1.3,4.2-1.9,6.6-1.9c4,0,7.2,1.3,9,3.7c2.2,2.7,3.2,6.1,3.2,10.4v21h-4.7v-18.9c0-1.9-0.2-3.4-0.5-4.8
	c-0.2-1.6-0.8-2.7-1.6-3.7c-0.8-1-1.6-1.9-2.7-2.4c-1-0.5-2.4-0.8-4.2-0.8c-1.3,0-2.4,0.2-3.7,0.8c-1,0.5-2.2,1.6-3.2,2.4
	c-0.8,1-1.6,2.7-2.2,4c-0.5,1.9-0.8,3.7-0.8,6.1v17.6H179v-26.9v-3.6c0-1.6-0.2-2.7-0.2-4h4.8L183.6,350.7L183.6,350.7z"/>
<path id="path3183_4_" inkscape:connector-curvature="0" fill="#A567AB" d="M263.2,362.3c0-2.9-0.8-5.1-2.2-6.6
	c-1.6-1.6-3.7-2.2-6.4-2.2c-1.9,0-3.7,0.5-5.3,1c-1.6,0.8-3.2,1.9-4.2,2.9l-2.7-3.2c1.6-1.6,3.2-2.4,5.1-3.4
	c2.2-0.8,4.8-1.6,7.5-1.6c1.6,0,3.4,0.2,5.1,0.8c1.6,0.5,2.7,1.3,4,2.4c1.3,1,2.2,2.4,2.7,3.7c0.5,1.6,1,3.4,1,5.3v14.9
	c0,1.3,0,2.7,0.2,4c0.2,1.6,0.2,2.4,0.5,3.4h-4.2c-0.2-0.8-0.2-1.9-0.2-2.7c-0.2-1-0.2-1.9-0.2-2.7h-0.2c-1.6,2.4-3.2,4-5.1,4.8
	c-1.9,1-4,1.6-6.6,1.6c-1.3,0-2.4-0.2-3.7-0.5c-1.3-0.2-2.4-1-3.7-1.9c-1-0.8-1.9-1.9-2.7-3.2c-0.8-1.3-1-2.9-1-4.8
	c0-2.4,0.8-4.8,1.9-6.4c1-1.6,2.9-2.7,5.1-3.4c2.2-0.8,4.6-1.3,7.5-1.6c2.7-0.2,5.6-0.2,8.2-0.2v-0.4L263.2,362.3L263.2,362.3z
	 M261.6,367.4c-1.9,0-4,0.2-5.6,0.2s-3.7,0.5-5.3,1c-1.6,0.5-2.9,1.3-4,2.4c-1,1-1.6,2.4-1.6,3.7c0,1,0.2,2.4,0.8,2.9
	c0.5,0.8,1,1.6,1.9,2.2c0.8,0.5,1.6,0.8,2.4,1c0.8,0.2,1.9,0.2,2.7,0.2c1.6,0,3.2-0.2,4.6-0.8c1.3-0.5,2.4-1.6,3.2-2.4
	c0.8-1,1.6-2.4,1.9-3.4c0.5-1.6,0.8-2.7,0.8-4.2v-2.7h-1.6L261.6,367.4L261.6,367.4z"/>
<path id="path3189_4_" inkscape:connector-curvature="0" fill="#A567AB" d="M303,366.3v1v1.3h-26.6c0,1.9,0.5,3.2,1,4.8
	c0.5,1.6,1.6,2.7,2.4,4c1,1,2.4,1.9,3.7,2.7c1.6,0.8,2.9,1,4.8,1c2.4,0,4.6-0.5,6.4-1.9c1.9-1.3,3.2-2.4,4-4l3.4,2.9
	c-1.9,2.4-4,4.6-6.4,5.6s-4.8,1.9-7.5,1.9c-2.4,0-4.8-0.5-6.6-1.6c-2.2-0.8-3.7-2.2-5.1-3.7c-1.6-1.6-2.7-3.4-3.4-5.6
	c-0.8-2.2-1.3-4.6-1.3-6.9c0-2.4,0.5-5.1,1.3-6.9c0.8-2.2,1.9-4,3.4-5.6c1.6-1.6,3.2-2.7,5.1-3.7c1.9-0.8,4-1.6,6.4-1.6
	s4.8,0.5,6.6,1.6c1.9,0.8,3.4,2.2,5.1,3.7c1.3,1.6,2.2,3.2,2.9,5.3C302.8,361.8,303,364,303,366.3L303,366.3z M298.3,364.7
	c-0.2-3.2-1-5.8-2.9-8c-1.9-2.2-4.6-3.2-7.7-3.2c-1.6,0-2.9,0.2-4.6,0.8c-1.6,0.5-2.4,1.6-3.4,2.4c-1,1-1.9,2.2-2.4,3.4
	c-0.5,1.6-1,2.7-1,4L298.3,364.7L298.3,364.7z"/>
<path id="path3191_4_" inkscape:connector-curvature="0" fill="#A567AB" d="M232,358.7c-0.8-1.6-1.9-2.4-3.4-3.4
	c-1.6-0.8-3.2-1.6-5.1-1.6c-0.8,0-1.9,0.2-2.7,0.2c-0.8,0.2-1.6,0.5-2.4,1c-0.8,0.5-1.3,1-1.6,1.6c-0.5,0.8-0.8,1.6-0.8,2.4
	c0,1.6,0.8,2.7,1.9,3.7c1.6,0.8,3.4,1.6,6.4,2.2c4,0.8,7.2,2.2,9,3.7c1.9,1.6,2.9,3.7,2.9,6.4c0,1.9-0.5,3.7-1,4.8
	c-0.8,1.6-1.9,2.4-2.9,3.2c-1.3,0.8-2.7,1.6-4.2,1.9c-1.6,0.5-3.2,0.5-4.8,0.5h-12v-4.2h6.4h5.6c1,0,2.2-0.2,3.2-0.2
	c1-0.2,1.9-0.5,2.7-1c0.8-0.5,1.6-1,1.9-1.9c0.5-0.8,0.8-1.6,0.8-2.7c0-1.9-0.8-3.2-2.7-4c-1.9-0.8-4.6-1.6-7.7-2.4
	c-1-0.2-2.2-0.5-3.4-0.8c-1-0.5-2.2-0.8-3.2-1.6c-1-0.8-1.9-1.6-2.4-2.7c-0.8-1-1-2.4-1-4s0.2-3.2,1-4.6c0.8-1.3,1.6-2.2,2.7-3.2
	c1-0.8,2.4-1.6,4-1.9c1.6-0.5,2.9-0.5,4.8-0.5c2.4,0,4.8,0.5,6.9,1.6c2.4,1,4,2.4,5.1,4.6L232,358.7L232,358.7z"/>
<path id="path3193_4_" inkscape:connector-curvature="0" fill="#A567AB" d="M135.7,358.7c-0.8-1.6-1.9-2.4-3.4-3.4
	c-1.6-0.8-3.2-1.6-5.1-1.6c-0.8,0-1.9,0.2-2.7,0.2c-0.8,0-1.6,0.5-2.4,1s-1.3,1-1.6,1.6c-0.5,0.8-0.8,1.6-0.8,2.4
	c0,1.6,0.8,2.7,1.9,3.7c1.6,0.8,3.4,1.6,6.4,2.2c4,0.8,7.2,2.2,9,3.7c1.9,1.6,2.9,3.7,2.9,6.4c0,1.9-0.5,3.7-1,4.8
	c-0.8,1.6-1.9,2.4-2.9,3.2c-1.3,0.8-2.7,1.6-4.2,1.9c-1.6,0.5-3.2,0.5-4.8,0.5h-12.2v-4.2h6.4h5.6c1,0,2.2-0.2,3.2-0.2
	s1.9-0.5,2.7-1c0.8-0.5,1.6-1,1.9-1.9c0.5-0.8,0.8-1.6,0.8-2.7c0-1.9-0.8-3.2-2.7-4c-1.9-0.8-4.6-1.6-7.7-2.4
	c-1-0.2-2.2-0.5-3.4-0.8c-1-0.5-2.2-0.8-3.2-1.6c-1-0.8-1.9-1.6-2.4-2.7c-0.8-1-1-2.4-1-4s0.2-3.2,1-4.6c0.8-1.3,1.6-2.2,2.7-3.2
	c1-0.8,2.4-1.6,4-1.9c1.6-0.5,2.9-0.5,4.8-0.5c2.4,0,4.8,0.5,6.9,1.6c2.4,1,4,2.4,5.1,4.6L135.7,358.7L135.7,358.7z"/>
<path id="path3189_4_-1" inkscape:connector-curvature="0" fill="#A567AB" d="M175.4,366.3v1v1.3h-26.6c0,1.9,0.5,3.2,1,4.8
	c0.5,1.6,1.6,2.7,2.4,4c1,1,2.4,1.9,3.7,2.7c1.6,0.8,2.9,1,4.8,1c2.4,0,4.6-0.5,6.4-1.9c1.9-1.3,3.2-2.4,4-4l3.4,2.9
	c-1.9,2.4-4,4.6-6.4,5.6c-2.4,1-4.8,1.9-7.5,1.9c-2.4,0-4.8-0.5-6.6-1.6c-2.2-0.8-3.7-2.2-5.1-3.7c-1.6-1.6-2.7-3.4-3.4-5.6
	c-0.8-2.2-1.3-4.6-1.3-6.9c0-2.4,0.5-5.1,1.3-6.9c0.8-2.2,1.9-4,3.4-5.6c1.6-1.6,3.2-2.7,5.1-3.7c1.9-0.8,4-1.6,6.4-1.6
	s4.8,0.5,6.6,1.6c1.9,0.8,3.4,2.2,5.1,3.7c1.3,1.6,2.2,3.2,2.9,5.3C175,361.8,175.4,364,175.4,366.3L175.4,366.3z M170.6,364.7
	c-0.2-3.2-1-5.8-2.9-8c-1.9-2.2-4.6-3.2-7.7-3.2c-1.6,0-2.9,0.2-4.6,0.8c-1.6,0.5-2.4,1.6-3.4,2.4c-1,1-1.9,2.2-2.4,3.4
	c-0.5,1.6-1,2.7-1,4L170.6,364.7L170.6,364.7z"/>
<path id="path4692" inkscape:connector-curvature="0" fill="#FFFFFF" d="M64.7,358.1c-1,15.6,9.3,26.3,22.9,27.1
	C89.1,371.6,80.3,359.9,64.7,358.1z"/>
<path id="path4694" inkscape:connector-curvature="0" fill="#FFFFFF" d="M110.4,358.1c1,15.6-9.3,26.3-22.9,27.1
	C85.9,371.6,94.7,359.9,110.4,358.1z"/>
<path id="path4696" inkscape:connector-curvature="0" fill="#FFFFFF" d="M75.2,352c-6.4,14.4-0.5,28,12.2,33.5
	C93.6,373,89.6,358.9,75.2,352z"/>
<path id="path4698" inkscape:connector-curvature="0" fill="#FFFFFF" d="M99.8,352c6.4,14.4,0.5,28-12.2,33.5
	C81.3,373,85.6,358.9,99.8,352z"/>
<path id="path4700" inkscape:connector-curvature="0" fill="#FFFFFF" d="M87.6,349.9c-10.9,11.5-9.8,26.1,0,35.6
	C97.4,376,98.4,361.3,87.6,349.9z"/>
<path id="path4520" inkscape:connector-curvature="0" opacity="0.8" fill="#A567AB" enable-background="new    " d="M64.7,358.1
	c-1,15.6,9.3,26.3,23.1,27.1C89.1,371.6,80.3,359.9,64.7,358.1z"/>
<path id="path4522" inkscape:connector-curvature="0" opacity="0.8" fill="#A567AB" enable-background="new    " d="M110.6,358.1
	c1,15.6-9.3,26.3-23.1,27.1C86.2,371.6,95,359.9,110.6,358.1z"/>
<path id="path4516" inkscape:connector-curvature="0" opacity="0.8" fill="#F790DA" enable-background="new    " d="M75.5,352
	c-6.4,14.4-0.5,28,12.2,33.5C93.9,373,89.6,358.9,75.5,352z"/>
<path id="path4518" inkscape:connector-curvature="0" opacity="0.8" fill="#F790DA" enable-background="new    " d="M100.1,352
	c6.4,14.4,0.5,28-12.2,33.5C81.7,373,85.6,358.9,100.1,352z"/>
<path id="path3741" inkscape:connector-curvature="0" opacity="0.8" fill="#EECDE1" enable-background="new    " d="M87.8,349.9
	c-10.9,11.5-9.8,26.1,0,35.6C97.6,376,98.6,361.3,87.8,349.9z"/>
</svg>
