<?xml version="1.0" encoding="utf-8"?>
<!-- Generator: Adobe Illustrator 18.1.1, SVG Export Plug-In . SVG Version: 6.00 Build 0)  -->
<svg version="1.1"
	 id="svg3403" sodipodi:docname="sensaeLogo_full_small.svg" inkscape:version="0.48.5 r10040" xmlns:dc="http://purl.org/dc/elements/1.1/" xmlns:cc="http://creativecommons.org/ns#" xmlns:rdf="http://www.w3.org/1999/02/22-rdf-syntax-ns#" xmlns:svg="http://www.w3.org/2000/svg" xmlns:sodipodi="http://sodipodi.sourceforge.net/DTD/sodipodi-0.dtd" xmlns:inkscape="http://www.inkscape.org/namespaces/inkscape"
	 xmlns="http://www.w3.org/2000/svg" xmlns:xlink="http://www.w3.org/1999/xlink" x="0px" y="0px" width="318px" height="41px"
	 viewBox="-146 352.9 318 41" enable-background="new -146 352.9 318 41" xml:space="preserve">
<sodipodi:namedview  inkscape:current-layer="svg3403" inkscape:window-maximized="1" inkscape:window-height="1018" inkscape:window-x="-8" inkscape:window-y="-8" inkscape:pageopacity="0" inkscape:pageshadow="2" inkscape:window-width="1920" inkscape:cy="39.969514" inkscape:cx="77.094762" inkscape:zoom="2.558249" showgrid="false" id="namedview3029" guidetolerance="10" gridtolerance="10" objecttolerance="10" borderopacity="1" bordercolor="#666666" pagecolor="#ffffff">
	</sodipodi:namedview>
<path id="path3181_4_" inkscape:connector-curvature="0" fill="#A567AB" d="M10.4,359.9c0.1,0.8,0.1,1.8,0.1,2.6v2.4h0.1
	c0.8-1.8,2-3,3.9-4.1c1.8-1.1,3.6-1.6,5.6-1.6c3.5,0,6.2,1.1,7.7,3.2c1.8,2.3,2.6,5.2,2.6,8.7V389h-4V373c0-1.6-0.1-3-0.3-4.1
	c-0.3-1.2-0.6-2.4-1.2-3.2c-0.6-0.9-1.4-1.6-2.3-2.1c-1-0.5-2.1-0.8-3.6-0.8c-1.1,0-2,0.3-3.2,0.8c-1,0.5-1.9,1.2-2.6,2.1
	c-0.8,1-1.4,2.3-1.9,3.5c-0.5,1.5-0.8,3.2-0.8,5.2v15h-4v-23.1v-3c0-1.2-0.1-2.4-0.1-3.4H10.4L10.4,359.9z"/>
<path id="path3183_4_" inkscape:connector-curvature="0" fill="#A567AB" d="M78.1,369.9c0-2.5-0.6-4.4-1.9-5.6s-3.2-1.9-5.5-1.9
	c-1.6,0-3.2,0.3-4.5,1c-1.4,0.7-2.6,1.5-3.6,2.5l-2.3-2.7c1.2-1.2,2.6-2.1,4.4-2.9c1.9-0.8,4-1.2,6.4-1.2c1.4,0,2.9,0.3,4.3,0.6
	c1.4,0.3,2.4,1.1,3.4,2c1,0.9,1.8,2,2.3,3.2c0.5,1.4,0.9,2.9,0.9,4.7v12.7c0,1.1,0,2.3,0.1,3.5c0.1,1.2,0.1,2.1,0.3,3h-3.6
	c-0.1-0.8-0.3-1.5-0.3-2.3c-0.1-0.9-0.1-1.6-0.1-2.4h-0.1c-1.2,2-2.6,3.4-4.3,4.1c-1.5,0.9-3.5,1.2-5.8,1.2c-1.1,0-2.1-0.1-3.2-0.5
	s-2.1-0.9-3.2-1.6c-1-0.8-1.6-1.6-2.3-2.7c-0.6-1.1-1-2.5-1-4.1c0-2.1,0.6-4,1.5-5.4c1-1.4,2.5-2.3,4.3-2.9c1.8-0.6,3.9-1.1,6.3-1.2
	c2.3-0.1,4.7-0.3,7.1-0.3L78.1,369.9L78.1,369.9z M76.8,374.1c-1.6,0-3.4,0.1-4.9,0.3c-1.5,0.1-3.2,0.3-4.5,0.9
	c-1.4,0.3-2.5,1.1-3.4,2c-0.9,0.9-1.4,2-1.4,3.2c0,1,0.1,2,0.6,2.5c0.3,0.8,0.9,1.2,1.5,1.8c0.6,0.3,1.4,0.8,2,1
	c0.8,0.1,1.5,0.3,2.3,0.3c1.4,0,2.6-0.3,3.8-0.8c1.1-0.5,2-1.2,2.7-2.1c0.8-0.9,1.4-2,1.6-3c0.3-1.2,0.6-2.3,0.6-3.6v-2.1
	L76.8,374.1L76.8,374.1z"/>
<path id="path3189_4_" inkscape:connector-curvature="0" fill="#A567AB" d="M112.3,373.2v1v1.1H89.6c0,1.5,0.3,2.7,0.9,4.1
	c0.5,1.4,1.2,2.4,2.1,3.4c1,1,2,1.6,3.2,2.3c1.2,0.6,2.5,0.9,4,0.9c2,0,3.9-0.5,5.4-1.6c1.5-1.1,2.6-2.1,3.5-3.5l3,2.5
	c-1.6,2.1-3.5,3.8-5.5,4.7c-2,1-4.1,1.5-6.4,1.5c-2,0-4-0.3-5.6-1.2c-1.8-0.8-3.2-1.8-4.4-3.2c-1.2-1.4-2.3-2.9-3-4.9
	c-0.8-1.8-1.1-3.9-1.1-6s0.3-4.3,1.1-6c0.8-1.8,1.6-3.5,2.9-4.9c1.2-1.4,2.7-2.4,4.4-3.2c1.6-0.8,3.5-1.2,5.5-1.2
	c2.1,0,4.1,0.3,5.6,1.2c1.6,0.8,3,1.8,4.3,3.2c1.1,1.4,1.9,2.7,2.5,4.5C112,369.3,112.3,371.2,112.3,373.2L112.3,373.2z
	 M108.1,371.9c-0.1-2.7-1-5-2.5-6.7c-1.5-1.8-3.8-2.6-6.6-2.6c-1.4,0-2.5,0.3-3.8,0.8c-1.2,0.5-2.1,1.2-3,2c-0.9,0.9-1.5,1.9-2,3
	c-0.5,1.2-0.9,2.3-0.9,3.5L108.1,371.9L108.1,371.9z"/>
<path id="path3191_4_" inkscape:connector-curvature="0" fill="#A567AB" d="M51.5,366.7c-0.6-1.2-1.5-2.1-2.9-2.9
	c-1.4-0.8-2.7-1.2-4.4-1.2c-0.8,0-1.5,0.1-2.3,0.3c-0.8,0.1-1.4,0.3-2,0.9c-0.6,0.3-1.1,0.9-1.4,1.4c-0.3,0.6-0.6,1.4-0.6,2
	c0,1.4,0.6,2.4,1.6,3.2c1.2,0.8,2.9,1.4,5.4,1.8c3.5,0.8,6.2,1.8,7.7,3.2c1.6,1.4,2.5,3.2,2.5,5.4c0,1.6-0.3,3.2-1,4.1
	c-0.6,1.2-1.5,2-2.5,2.7c-1.1,0.8-2.3,1.2-3.6,1.5c-1.4,0.3-2.7,0.5-4.1,0.5H33.7v-3.6h5.5h4.9c1,0,1.8-0.1,2.6-0.3
	c0.8-0.1,1.5-0.5,2.3-0.9c0.6-0.3,1.2-1,1.5-1.5c0.3-0.6,0.6-1.4,0.6-2.4c0-1.5-0.8-2.6-2.3-3.5c-1.5-0.8-3.8-1.4-6.5-2.1
	c-0.9-0.3-1.8-0.5-2.9-0.8c-1-0.3-1.9-0.8-2.7-1.4c-0.9-0.6-1.5-1.4-2.1-2.3c-0.6-1-0.9-2-0.9-3.4c0-1.4,0.3-2.7,0.9-3.9
	c0.6-1.1,1.4-1.9,2.4-2.6c1-0.8,2.1-1.2,3.4-1.5c1.4-0.3,2.5-0.5,4-0.5c2,0,4.1,0.5,6,1.4c2,1,3.4,2.1,4.4,3.9L51.5,366.7
	L51.5,366.7z"/>
<path id="path3193_4_" inkscape:connector-curvature="0" fill="#A567AB" d="M-30.4,366.7c-0.6-1.2-1.5-2.1-2.9-2.9
	c-1.4-0.8-2.7-1.2-4.4-1.2c-0.8,0-1.5,0.1-2.3,0.3c-0.8,0.1-1.4,0.3-2,0.9c-0.6,0.3-1.1,0.9-1.4,1.4c-0.3,0.6-0.6,1.4-0.6,2
	c0,1.4,0.6,2.4,1.6,3.2c1.2,0.8,2.9,1.4,5.4,1.8c3.5,0.8,6.2,1.8,7.7,3.2c1.6,1.4,2.5,3.2,2.5,5.4c0,1.6-0.3,3.2-1,4.1
	c-0.6,1.2-1.5,2-2.5,2.7c-1.1,0.8-2.3,1.2-3.6,1.5c-1.4,0.3-2.7,0.5-4.1,0.5h-10.4v-3.6h5.5h4.9c1,0,1.8-0.1,2.6-0.3
	c0.9-0.1,1.5-0.5,2.3-0.9c0.6-0.3,1.2-1,1.5-1.5c0.3-0.6,0.6-1.4,0.6-2.4c0-1.5-0.8-2.6-2.3-3.5c-1.5-0.8-3.8-1.4-6.5-2.1
	c-0.9-0.3-1.8-0.5-2.9-0.8c-1-0.3-1.9-0.8-2.7-1.4c-0.9-0.6-1.5-1.4-2.1-2.3c-0.6-1-0.9-2-0.9-3.4c0-1.4,0.3-2.7,0.9-3.9
	c0.6-1.2,1.4-1.9,2.4-2.6c1-0.8,2.1-1.2,3.4-1.5c1.4-0.3,2.5-0.5,4-0.5c2,0,4.1,0.5,6,1.4c2,1,3.4,2.1,4.4,3.9L-30.4,366.7
	L-30.4,366.7z"/>
<path id="path3189_4_-1" inkscape:connector-curvature="0" fill="#A567AB" d="M3.4,373.2v1v1.1h-22.7c0,1.5,0.3,2.7,0.9,4.1
	c0.5,1.4,1.2,2.4,2.1,3.4c1,1,2,1.6,3.2,2.3c1.2,0.6,2.5,0.9,4,0.9c2,0,3.9-0.5,5.4-1.6s2.6-2.1,3.5-3.5l3,2.5
	c-1.6,2.1-3.5,3.8-5.5,4.7c-2,1-4.1,1.5-6.4,1.5c-2,0-4-0.3-5.6-1.2c-1.8-0.8-3.2-1.8-4.4-3.2c-1.2-1.4-2.3-2.9-3-4.9
	c-0.8-1.8-1.1-3.9-1.1-6s0.3-4.3,1.1-6c0.8-1.8,1.6-3.5,2.9-4.9c1.2-1.4,2.7-2.4,4.4-3.2c1.6-0.8,3.5-1.2,5.5-1.2
	c2.1,0,4.1,0.3,5.6,1.2c1.6,0.8,3,1.8,4.3,3.2c1.1,1.4,1.9,2.7,2.5,4.5C3.1,369.3,3.4,371.2,3.4,373.2L3.4,373.2z M-0.7,371.9
	c-0.1-2.7-1-5-2.5-6.7c-1.5-1.8-3.8-2.6-6.6-2.6c-1.4,0-2.5,0.3-3.8,0.8c-1.2,0.5-2.1,1.2-3,2c-0.9,0.9-1.5,1.9-2,3
	c-0.5,1.2-0.9,2.3-0.9,3.5L-0.7,371.9L-0.7,371.9z"/>
<path id="path4692" inkscape:connector-curvature="0" fill="#FFFFFF" d="M-91,366.2c-0.9,13.3,7.8,22.5,19.5,23.2
	C-70.1,377.8-77.7,367.7-91,366.2z"/>
<path id="path4694" inkscape:connector-curvature="0" fill="#FFFFFF" d="M-51.9,366.2c0.9,13.3-7.8,22.5-19.5,23.2
	C-72.7,377.8-65.3,367.7-51.9,366.2z"/>
<path id="path4696" inkscape:connector-curvature="0" fill="#FFFFFF" d="M-81.9,360.9c-5.4,12.2-0.3,23.9,10.4,28.5
	C-66.3,379.1-69.8,366.9-81.9,360.9z"/>
<path id="path4698" inkscape:connector-curvature="0" fill="#FFFFFF" d="M-61.1,360.9c5.4,12.2,0.3,23.9-10.4,28.5
	C-76.7,379.1-73.2,366.9-61.1,360.9z"/>
<path id="path4700" inkscape:connector-curvature="0" fill="#FFFFFF" d="M-71.4,359c-9.2,9.7-8.5,22.2,0,30.4
	C-63.1,381.4-62.2,368.8-71.4,359z"/>
<path id="path4520" inkscape:connector-curvature="0" opacity="0.8" fill="#A567AB" enable-background="new    " d="M-91,366.2
	c-0.9,13.3,7.8,22.5,19.7,23.2C-70,377.8-77.6,367.7-91,366.2z"/>
<path id="path4522" inkscape:connector-curvature="0" opacity="0.8" fill="#A567AB" enable-background="new    " d="M-51.7,366.2
	c0.9,13.3-7.8,22.5-19.7,23.2C-72.7,377.8-65.2,367.7-51.7,366.2z"/>
<path id="path4516" inkscape:connector-curvature="0" opacity="0.8" fill="#F790DA" enable-background="new    " d="M-81.8,360.9
	c-5.4,12.2-0.3,23.9,10.4,28.5C-66.2,379.1-69.7,366.9-81.8,360.9z"/>
<path id="path4518" inkscape:connector-curvature="0" opacity="0.8" fill="#F790DA" enable-background="new    " d="M-60.9,360.9
	c5.4,12.2,0.3,23.9-10.4,28.5C-76.5,379.1-73,366.9-60.9,360.9z"/>
<path id="path3741" inkscape:connector-curvature="0" opacity="0.8" fill="#EECDE1" enable-background="new    " d="M-71.3,359
	c-9.3,9.7-8.5,22.2,0,30.4C-62.8,381.4-62,368.8-71.3,359z"/>
</svg>
