<?xml version="1.0" encoding="UTF-8" standalone="no"?>
<!-- Created with Inkscape (http://www.inkscape.org/) -->

<svg
   xmlns:dc="http://purl.org/dc/elements/1.1/"
   xmlns:cc="http://creativecommons.org/ns#"
   xmlns:rdf="http://www.w3.org/1999/02/22-rdf-syntax-ns#"
   xmlns:svg="http://www.w3.org/2000/svg"
   xmlns="http://www.w3.org/2000/svg"
   xmlns:sodipodi="http://sodipodi.sourceforge.net/DTD/sodipodi-0.dtd"
   xmlns:inkscape="http://www.inkscape.org/namespaces/inkscape"
   id="svg3403"
   height="48"
   width="335"
   version="1.1"
   inkscape:version="0.48.5 r10040"
   sodipodi:docname="sensaeLogo_small.svg">
  <sodipodi:namedview
     pagecolor="#ffffff"
     bordercolor="#666666"
     borderopacity="1"
     objecttolerance="10"
     gridtolerance="10"
     guidetolerance="10"
     inkscape:pageopacity="0"
     inkscape:pageshadow="2"
     inkscape:window-width="1920"
     inkscape:window-height="1018"
     id="namedview3029"
     showgrid="false"
     inkscape:zoom="5.116498"
     inkscape:cx="109.01127"
     inkscape:cy="10.614137"
     inkscape:window-x="-8"
     inkscape:window-y="-8"
     inkscape:window-maximized="1"
     inkscape:current-layer="layer1" />
  <defs
     id="defs3405" />
  <metadata
     id="metadata3408">
    <rdf:RDF>
      <cc:Work
         rdf:about="">
        <dc:format>image/svg+xml</dc:format>
        <dc:type
           rdf:resource="http://purl.org/dc/dcmitype/StillImage" />
        <dc:title />
      </cc:Work>
    </rdf:RDF>
  </metadata>
  <g
     id="layer1"
     transform="matrix(0.65775687,0,0,0.65775687,-3.1163925,19.678909)">
    <path
       id="path3181_4_"
       d="m 84.627373,-28.878211 c 0.16216,0.99403 0.16216,2.319377 0.16216,3.479066 v 3.14775 h 0.16205 c 0.97259,-2.319377 2.75588,-4.141699 5.18717,-5.632704 2.43138,-1.491005 4.86276,-2.153719 7.61847,-2.153719 4.700707,0 8.266467,1.491005 10.536047,4.473015 2.43129,2.98201 3.56584,6.958051 3.56584,11.762874 v 24.352397 h -5.34905 v -21.70236 c 0,-2.15372 -0.16212,-3.97604 -0.48637,-5.632704 -0.3241,-1.656663 -0.81037,-3.147668 -1.62092,-4.307356 -0.81047,-1.159689 -1.78288,-2.15372 -3.0798,-2.816352 -1.29683,-0.662674 -2.917667,-0.994031 -4.862747,-0.994031 -1.45904,0 -2.75579,0.331341 -4.21459,0.994031 -1.29675,0.662673 -2.59358,1.656663 -3.56616,2.816352 -0.97242,1.325346 -1.94525,2.98201 -2.59351,4.804413 -0.64845,1.988061 -0.97258,4.307356 -0.97258,6.9580501 V 11.047443 h -5.34913 v -31.311516 -4.141699 c 0,-1.656663 -0.16207,-3.14775 -0.16207,-4.638673 l 5.0248,0.165658 z"
       inkscape:connector-curvature="0"
       style="fill:#a361aa" />
    <path
       id="path3183_4_"
       d="m 176.30631,-15.411178 c 0,-3.45121 -0.81047,-5.916361 -2.59342,-7.559794 -1.62108,-1.643434 -4.21467,-2.46515 -7.45642,-2.46515 -2.26958,0 -4.21459,0.49303 -6.15976,1.314747 -1.94508,0.821716 -3.56625,1.97212 -4.863,3.45121 l -3.07979,-3.779897 c 1.62116,-1.643434 3.56625,-2.95818 5.99771,-3.94424 2.59334,-0.98606 5.34913,-1.643434 8.59105,-1.643434 1.94508,0 3.89033,0.328679 5.67329,0.821709 1.78305,0.49303 3.24176,1.47909 4.53859,2.629493 1.29675,1.150404 2.43138,2.629494 3.07971,4.43727 0.64845,1.807777 1.13479,3.944241 1.13479,6.245047 V 1.3518339 c 0,1.47909 0,3.122524 0.16193,4.765958 0.16207,1.643433 0.16207,2.95818 0.48638,4.1085831 h -4.85635 c -0.16203,-0.9859781 -0.32409,-1.9721201 -0.32409,-3.1225231 -0.1622,-1.150404 -0.1622,-2.136464 -0.1622,-3.286868 h -0.16211 c -1.62092,2.629494 -3.56625,4.601614 -5.83517,5.587674 -2.10763,1.1504041 -4.70105,1.6434341 -7.78084,1.6434341 -1.45879,0 -2.91767,-0.164319 -4.37646,-0.657373 -1.45888,-0.4930391 -2.91776,-1.1504041 -4.21451,-2.1364641 -1.29683,-0.98606 -2.26933,-2.136463 -3.07987,-3.779897 -0.81042,-1.47909 -1.29667,-3.45121 -1.29667,-5.587674 0,-2.95818 0.81042,-5.4233302 2.10729,-7.2311071 1.29687,-1.8077768 3.4038,-3.1225238 5.83534,-3.9442398 2.43146,-0.821701 5.18717,-1.479091 8.42917,-1.643434 3.07979,-0.164335 6.48359,-0.328678 9.72502,-0.328678 l 0.48642,-1.150403 z m -1.62092,5.7520163 c -2.26933,0 -4.53867,0.1643433 -6.64588,0.3286867 -2.10729,0.1643351 -4.21458,0.49303 -6.15959,1.1504034 -1.78312,0.49303 -3.40404,1.4790902 -4.53859,2.6294935 -1.13479,1.150403 -1.7832,2.629494 -1.7832,4.43727 0,1.314747 0.16206,2.629494 0.81046,3.451211 0.48628,0.98606 1.13471,1.643433 2.1073,2.300806 0.81043,0.493022 1.78304,0.986061 2.75554,1.314747 0.97258,0.164336 2.10729,0.328687 3.07988,0.328687 1.94517,0 3.56608,-0.328687 5.02504,-0.98606 1.4588,-0.657349 2.75546,-1.643434 3.72813,-2.95818 0.97242,-1.150404 1.78321,-2.629494 2.26925,-4.108584 0.48612,-1.643433 0.81048,-3.122524 0.81048,-4.9303003 v -2.9582625 h -1.45879 z"
       inkscape:connector-curvature="0"
       style="fill:#a361aa" />
    <path
       id="path3189_4_"
       d="m 222.55253,-10.962158 v 1.3043111 1.4673395 h -30.79795 c 0,1.9564254 0.48613,3.7499043 1.13463,5.5433013 0.64825,1.793396 1.62108,3.260818 2.91783,4.565129 1.29667,1.304311 2.75547,2.282565 4.21459,3.097708 1.62075,0.815209 3.4038,1.141283 5.3488,1.141283 2.75587,0 5.18741,-0.652164 7.29454,-2.119537 2.10713,-1.467372 3.56625,-2.934679 4.70063,-4.728158 l 4.05238,3.423847 c -2.26925,2.93468 -4.70071,5.054216 -7.45634,6.358527 -2.75562,1.3043111 -5.51125,1.9565071 -8.59105,1.9565071 -2.75546,0 -5.3488,-0.489094 -7.6183,-1.6303681 -2.43137,-0.978254 -4.37662,-2.445593 -5.99754,-4.23899 -1.62084,-1.793479 -3.0798,-3.912933 -4.0523,-6.521555 -0.97266,-2.445593 -1.45887,-5.2172439 -1.45887,-8.1519231 0,-2.9346788 0.4862,-5.7064108 1.45887,-8.1519228 0.97259,-2.445593 2.26942,-4.728158 3.89026,-6.521554 1.621,-1.793397 3.72821,-3.260819 5.99754,-4.23899 2.26934,-0.978254 4.70055,-1.630369 7.45634,-1.630369 2.91767,0 5.51134,0.489111 7.61855,1.630369 2.26941,0.978253 4.05229,2.445593 5.67321,4.23899 1.4588,1.793396 2.59359,3.749904 3.40405,6.032469 0.4863,1.956507 0.81056,4.402018 0.81056,7.173668 z m -5.51142,-1.793397 c -0.16202,-3.749903 -1.29667,-6.684583 -3.40388,-9.130094 -2.10729,-2.445593 -5.02513,-3.586875 -8.91563,-3.586875 -1.78304,0 -3.40396,0.32609 -5.02488,0.978253 -1.62092,0.652156 -2.91775,1.630369 -4.05221,2.771651 -1.13479,1.141282 -2.10762,2.608622 -2.75588,4.075961 -0.64852,1.630369 -1.13462,3.097708 -1.13462,4.728158 l 25.28669,0.163037 z"
       inkscape:connector-curvature="0"
       style="fill:#a361aa" />
    <path
       id="path3191_4_"
       d="m 140.27403,-19.847134 c -0.81047,-1.617549 -2.10721,-2.911589 -3.89017,-3.882118 -1.78321,-0.97053 -3.72821,-1.61755 -5.99755,-1.61755 -0.97266,0 -2.10729,0.161747 -3.07987,0.323494 -0.97259,0.161771 -1.94509,0.485273 -2.75563,1.132325 -0.81037,0.485273 -1.45879,1.132326 -1.94517,1.94106 -0.48618,0.808783 -0.81037,1.779345 -0.81037,2.749875 0,1.779345 0.81037,3.235098 2.26926,4.205628 1.62091,0.970529 3.8905,1.779345 7.29429,2.426365 4.70088,0.970529 8.2673,2.426365 10.53606,4.205628 2.26958,1.7792633 3.40404,4.2056279 3.40404,7.2790129 0,2.264569 -0.48616,4.205629 -1.29667,5.661464 -0.81056,1.61755 -2.10729,2.749876 -3.40396,3.720323 -1.45888,0.97053 -3.07996,1.617549 -4.863,2.1028551 -1.78305,0.485265 -3.72813,0.64702 -5.51134,0.64702 H 116.28353 V 6.1955999 h 7.45658 6.64588 c 1.29675,0 2.43138,-0.161755 3.56609,-0.32351 1.13471,-0.161747 2.10729,-0.64702 3.07988,-1.132326 0.81041,-0.485265 1.621,-1.294039 2.10729,-2.102855 0.4862,-0.808783 0.81047,-1.941059 0.81047,-3.235099 0,-2.102773 -0.97275,-3.558609 -3.07996,-4.690934 -2.10713,-0.9705297 -5.02488,-1.9410593 -8.75293,-2.911589 -1.13479,-0.3235181 -2.43154,-0.6470198 -3.89034,-0.9705296 -1.29675,-0.4852648 -2.59358,-0.9705293 -3.72804,-1.7793453 -1.13479,-0.808775 -2.10754,-1.779263 -2.91792,-3.073385 -0.81047,-1.294039 -1.13462,-2.749875 -1.13462,-4.529138 0,-1.941059 0.32414,-3.720404 1.13462,-5.176158 0.81037,-1.455835 1.94517,-2.588079 3.242,-3.558608 1.29675,-0.97053 2.91776,-1.61755 4.53867,-2.102856 1.78288,-0.485264 3.40405,-0.647019 5.34913,-0.647019 2.75555,0 5.51126,0.647019 8.10468,1.779263 2.75579,1.294039 4.53867,2.911589 5.99771,5.176158 l -4.53875,3.235099 z"
       inkscape:connector-curvature="0"
       style="fill:#a361aa" />
    <path
       id="path3193_4_"
       d="m 29.424449,-19.847134 c -0.810451,-1.617549 -2.10721,-2.911589 -3.890253,-3.882118 -1.783043,-0.97053 -3.728211,-1.61755 -5.997546,-1.61755 -0.972584,0 -2.107211,0.161747 -3.079795,0.323494 -0.972583,0.161771 -1.945167,0.485273 -2.755627,1.132325 -0.810483,0.485273 -1.458875,1.132326 -1.945167,1.94106 -0.486301,0.808783 -0.810484,1.779345 -0.810484,2.749875 0,1.779345 0.810484,3.235098 2.269335,4.205628 1.620918,0.970529 3.890253,1.779345 7.294297,2.426365 4.700713,0.970529 8.267292,2.426365 10.536052,4.205628 2.269417,1.7792633 3.404126,4.2056279 3.404126,7.2790129 0,2.264569 -0.48626,4.205629 -1.296752,5.661464 -0.810623,1.61755 -2.107374,2.749876 -3.404208,3.720323 -1.458711,0.97053 -3.079794,1.617549 -4.862837,2.1028551 -1.783043,0.485265 -3.728211,0.64702 -5.511254,0.64702 H 5.1134418 V 6.1955999 h 7.4564222 6.645881 c 1.296751,0 2.431459,-0.161755 3.566086,-0.32351 1.134626,-0.161747 2.10721,-0.64702 3.079794,-1.132326 0.810435,-0.485265 1.621001,-1.294039 2.10721,-2.102855 0.486284,-0.808783 0.810624,-1.941059 0.810624,-3.235099 0,-2.102773 -0.972584,-3.558609 -3.079876,-4.690934 -2.104417,-0.9696258 -5.022333,-1.9402376 -8.750462,-2.9107673 -1.134791,-0.3235099 -2.43146,-0.6470198 -3.890007,-0.9705296 -1.29749,-0.4853059 -2.594159,-0.97053 -3.7281282,-1.779345 -1.134791,-0.808734 -2.107704,-1.779264 -2.917916,-3.073303 -0.810468,-1.294039 -1.134627,-2.749875 -1.134627,-4.529138 0,-1.941059 0.324184,-3.720404 1.134627,-5.176158 0.810483,-1.455835 1.945167,-2.588079 3.241919,-3.558608 1.2967512,-0.97053 2.9177512,-1.61755 4.5386702,-2.102856 1.783043,-0.485264 3.404043,-0.647019 5.349129,-0.647019 2.755627,0 5.511254,0.647019 8.104756,1.779263 2.755709,1.294039 4.538753,2.911589 5.997464,5.176158 l -4.214421,3.235098 z"
       inkscape:connector-curvature="0"
       style="fill:#a061aa;fill-opacity:1" />
    <path
       id="path3189_4_-1"
       d="m 75.185853,-10.962158 v 1.3043111 1.4673395 H 44.387911 c 0,1.9564254 0.486127,3.7499043 1.134626,5.5433013 0.648261,1.793396 1.621083,3.260818 2.917834,4.565129 1.296669,1.304311 2.755463,2.282565 4.214585,3.097708 1.620754,0.815209 3.403797,1.141283 5.348801,1.141283 2.755873,0 5.187333,-0.652164 7.294543,-2.119537 2.107129,-1.467339 3.566251,-2.934679 4.700631,-4.728158 l 4.052378,3.423847 c -2.269253,2.93468 -4.700713,5.054216 -7.45634,6.358527 -2.755627,1.3043111 -5.511254,1.9565071 -8.591048,1.9565071 -2.755463,0 -5.348801,-0.489094 -7.6183,-1.6303681 -2.431378,-0.978254 -4.376628,-2.445593 -5.997546,-4.23899 -1.620836,-1.793479 -3.079794,-3.912933 -4.052296,-6.521555 -0.972666,-2.445593 -1.458876,-5.2172439 -1.458876,-8.1519231 0,-2.9346788 0.486202,-5.7064108 1.458876,-8.1519228 0.972584,-2.445593 2.269417,-4.728158 3.890253,-6.521554 1.621001,-1.793397 3.728211,-3.260819 5.997546,-4.23899 2.269335,-0.978254 4.700549,-1.630369 7.45634,-1.630369 2.91767,0 5.511336,0.489111 7.618547,1.630369 2.269417,0.978253 4.052296,2.445593 5.673214,4.23899 1.458794,1.793396 2.593585,3.749904 3.404044,6.032469 0.4863,1.956507 0.810566,4.402018 0.810566,7.173668 z m -5.511418,-1.793397 c -0.162026,-3.749903 -1.296669,-6.684583 -3.403879,-9.130094 -2.107293,-2.445593 -5.025127,-3.586875 -8.915627,-3.586875 -1.782961,0 -3.403961,0.32609 -5.02488,0.978253 -1.620918,0.652156 -2.917752,1.630369 -4.052214,2.771651 -1.13479,1.141282 -2.107621,2.608622 -2.755873,4.075961 -0.648524,1.630369 -1.134627,3.097708 -1.134627,4.728158 l 25.286689,0.163037 z"
       inkscape:connector-curvature="0"
       style="fill:#a361aa" />
  </g>
</svg>
