<?xml version="1.0" encoding="utf-8"?>
<!-- Generator: Adobe Illustrator 18.1.1, SVG Export Plug-In . SVG Version: 6.00 Build 0)  -->
<svg version="1.1" id="Layer_1" xmlns="http://www.w3.org/2000/svg" xmlns:xlink="http://www.w3.org/1999/xlink" x="0px" y="0px"
	 width="157.6px" height="56.3px" viewBox="-400 252.7 157.6 56.3" enable-background="new -400 252.7 157.6 56.3"
	 xml:space="preserve">
<text transform="matrix(0.87 0 0 1 -328.4258 282.149)" fill="#F7F7F8" font-family="'Lato-Bold'" font-size="23.0848">ENERGY</text>
<g>
	<g>
		<text transform="matrix(0.87 0 0 1 -288.3486 302.0582)" fill="#F7F7F8" font-family="'Lato-Bold'" font-size="23.0848">LIFE</text>
	</g>
</g>
<g>
	<text transform="matrix(0.87 0 0 1 -328.4258 302.0582)" fill="#D5D7DB" font-family="'Lato-Thin'" font-size="23.0848">FOR</text>
</g>
<g>
	<path fill="#F5DC07" d="M-360.3,270c-2.2-0.4-4.4-0.3-6.8-0.1c0.3-0.6,0.6-1.1,0.7-1.5c0.8-2.1,1.3-4.2,1.4-6.5
		c0.2-2.5,0.7-4.9,1.6-7.2c0.1-0.1,0.1-0.2,0.2-0.4c0.1,0.6,0.2,1,0.3,1.5c0.3,1.9,0.9,3.8,1.5,5.6c0.4,1.1,0.7,2,1.1,3
		c0.5,1.7,0.6,3.6,0.2,5.3C-360.2,269.9-360.2,269.9-360.3,270z"/>
	<path fill="#F5DC07" d="M-393.7,282.2c1.3-0.3,2.6-0.5,4-0.8c1.8-0.6,3.8-1.2,5.6-1.7c2.1-0.6,4.2-0.8,6.5-0.5
		c0.4,0.1,0.5,0.2,0.4,0.5c-0.1,1.3-0.2,2.4-0.2,3.7c0,0.8,0.1,1.6,0.1,2.4c-0.1,0-0.2,0-0.2-0.1c-2.1-1.1-4.4-1.6-6.9-1.7
		c-2.6-0.3-5.1-0.5-7.6-1.3C-392.8,282.4-393.2,282.4-393.7,282.2z"/>
	<path fill="#F5DC07" d="M-373.6,273.4c-1.5,1.7-2.5,3.7-3.6,5.6c-1.7-2.5-4.1-4.3-6.6-6.1c-2.1-1.4-4-3-5.6-5
		c0.2,0.1,0.4,0.2,0.5,0.2c0.1,0.1,0.3,0.1,0.4,0.2c2.4,1,5,1.5,7.6,1.9c2.6,0.5,5,1.4,7,2.9C-373.9,273.2-373.8,273.4-373.6,273.4z
		"/>
	<path fill="#F5DC07" d="M-353.7,273.8c2.7-0.1,5.1-0.8,7.5-1.8c1.7-0.8,3.7-1.6,5.6-2.1c1-0.3,1.9-0.5,2.9-0.6
		c-0.6,0.6-1.4,1-1.9,1.5c-1.7,1.5-3.2,3.2-4.8,4.9c-1.5,1.7-3.5,3-5.7,3.9c-0.2,0.1-0.4,0.2-0.5-0.2c-0.7-1.7-1.7-3.5-2.9-5.2
		C-353.6,273.9-353.6,273.9-353.7,273.8z"/>
	<path fill="#F5DC07" d="M-354,273.5c-1.7-1.4-3.8-2.4-5.8-3.3c0-0.1,0.1-0.1,0.1-0.1c2.2-1.4,4-3.1,5.3-5.1
		c1.3-1.6,2.5-3.3,4.1-4.8c0.6-0.6,1.4-1.2,1.9-1.7c-0.5,1.4-1,2.8-1.4,4.1c-0.4,1.4-0.6,2.7-0.9,4.1c-0.5,2.4-1.4,4.7-3.1,6.7
		C-353.9,273.4-353.9,273.4-354,273.5z"/>
	<path fill="#F5DC07" d="M-373.4,273.1c-0.1-3.3-1.4-6.2-2.8-9c-0.8-1.7-1.5-3.8-1.7-5.7c-0.1-0.3-0.1-0.5-0.1-0.7
		c0.4,0.5,0.6,0.8,1,1.3c1.6,1.8,3.6,3.5,5.5,5.1c1.7,1.5,3.2,3.3,4.1,5.5c0.1,0.3,0.2,0.4-0.2,0.5c-1.9,0.7-3.8,1.7-5.3,2.9
		C-373.3,273-373.3,273.1-373.4,273.1z"/>
	<path fill="#F5DC07" d="M-373.9,291.9c-2.7,0.1-5.1,0.8-7.5,1.8c-1.7,0.8-3.4-1.9-1.9-3.6s3.5-3,5.7-3.9c0.2-0.1,0.4-0.2,0.5,0.2
		c0.7,1.7,1.7,3.5,2.9,5.2C-374.1,291.6-374,291.8-373.9,291.9z"/>
	<circle fill="#F5DC07" cx="-362.7" cy="283.4" r="15.3"/>
</g>
<g>
	<g>
		<path fill="#87D37C" d="M-335.9,291.2c-0.1,0.3-0.8,1.2-0.8,1.4c0.2,0.5,0.5,1.9,0.6,2.4v0.1c0.1,1.3-0.6,2.2-1.8,2.4
			c-0.9,0.2-2.1,0.3-3.5,0.2c-0.7,0-1.2,0.7-0.7,1.4c2.6,4.1,7.6,6.9,3.6,8.2c-3.3-1.4-10.3-3.7-14.7-4.3c-3.8-0.6-9.8-2.7-13.7-2.1
			c-1.7,0.3-4.1,0-4.9,1.1c-0.6,0.8,0.1,2.9-0.6,3.4c-1.2,1.1-3.1-4-4-4.4c-3.7-2.2-7-2-7.9-3.3c-11.8-14.5,8.2-3.6,21-1.3
			c4.9,0.8,7.3,1,8.4,0.3c2.9-1.9-1.4-3.4,0.3-4.9c1.3-1.2-5-5.9-6.2-7.2c-1.5-1.6-1.7-4.1-0.8-6c0.1-0.1,0.6-2.5,0.6-2.6
			c-1.4-7-7.6-5.6-9.6-6.7c-2.3-1.3-2.1-4.1,0.3-4.3c5.2-0.6,11.3-2,15.7,0.2c7,3.5,13.4,2.5,14.1,3.4c1.5,1.7,3.1,5.2,2.9,6.3
			c-0.2,0.6-0.4,1.2-0.3,1.7c0.3,1.3,1.4,2.4,1.9,3c0.3,0.3,1,1.2,1.3,1.4c0.3,0.3,0.5,0.6,0.6,0.7c0,0,0,0,0,0.1
			c0.5,0.6,0.7,1.3,0.7,1.6c-0.1,0.4,0.1,0.6-0.6,1.3c-0.6,0.5-1.2,0.3-1.7,0.6c-0.5,0.3-0.6,1.3,0.1,2c0.3,0.5,0.6,0.8,0.3,1.2
			c-0.2,0.2-0.7,0.6-0.7,0.8s0.1,0.3,0.2,0.4c0.2,0.1,0.4,0.4,0.4,0.6C-335.7,290.6-335.6,290.9-335.9,291.2z"/>
	</g>
</g>
</svg>
