<?xml version="1.0" encoding="utf-8"?>
<!-- Generator: Adobe Illustrator 18.1.1, SVG Export Plug-In . SVG Version: 6.00 Build 0)  -->
<svg version="1.1" id="Layer_1" xmlns="http://www.w3.org/2000/svg" xmlns:xlink="http://www.w3.org/1999/xlink" x="0px" y="0px"
	 width="157.6px" height="56.3px" viewBox="-250.7 257.2 157.6 56.3" enable-background="new -250.7 257.2 157.6 56.3"
	 xml:space="preserve">
<text transform="matrix(0.87 0 0 1 -185.4257 284.9992)" fill="#F7F7F8" font-family="'Lato-Bold'" font-size="23.0848">ENERGY</text>
<g>
	<g>
		<text transform="matrix(0.87 0 0 1 -145.3485 304.9084)" fill="#F7F7F8" font-family="'Lato-Bold'" font-size="23.0848">LIFE</text>
	</g>
</g>
<g>
	<text transform="matrix(0.87 0 0 1 -185.4257 304.9084)" fill="#D5D7DB" font-family="'Lato-Thin'" font-size="23.0848">FOR</text>
</g>
<g>
	<path fill="#F5DC07" d="M-217.3,272.9c-2.2-0.4-4.4-0.3-6.8-0.1c0.3-0.6,0.6-1.1,0.7-1.5c0.8-2.1,1.3-4.2,1.4-6.5
		c0.2-2.5,0.7-4.9,1.6-7.2c0.1-0.1,0.1-0.2,0.2-0.4c0.1,0.6,0.2,1,0.3,1.5c0.3,1.9,0.9,3.8,1.5,5.6c0.4,1.1,0.7,2,1.1,3
		c0.5,1.7,0.6,3.6,0.2,5.3C-217.2,272.7-217.2,272.8-217.3,272.9z"/>
	<path fill="#F5DC07" d="M-250.7,285.1c1.3-0.3,2.6-0.5,4-0.8c1.8-0.6,3.8-1.2,5.6-1.7c2.1-0.6,4.2-0.8,6.5-0.5
		c0.4,0.1,0.5,0.2,0.4,0.5c-0.1,1.3-0.2,2.4-0.2,3.7c0,0.8,0.1,1.6,0.1,2.4c-0.1,0-0.2,0-0.2-0.1c-2.1-1.1-4.4-1.6-6.9-1.7
		c-2.6-0.3-5.1-0.5-7.6-1.3C-249.8,285.3-250.2,285.2-250.7,285.1z"/>
	<path fill="#F5DC07" d="M-230.6,276.3c-1.5,1.7-2.5,3.7-3.6,5.6c-1.7-2.5-4.1-4.3-6.6-6.1c-2.1-1.4-4-3-5.6-5
		c0.2,0.1,0.4,0.2,0.5,0.2c0.1,0.1,0.3,0.1,0.4,0.2c2.4,1,5,1.5,7.6,1.9c2.6,0.5,5,1.4,7,2.9C-230.9,276.1-230.8,276.2-230.6,276.3z
		"/>
	<path fill="#F5DC07" d="M-210.7,276.6c2.7-0.1,5.1-0.8,7.5-1.8c1.7-0.8,3.7-1.6,5.6-2.1c1-0.3,1.9-0.5,2.9-0.6
		c-0.6,0.6-1.4,1-1.9,1.5c-1.7,1.5-3.2,3.2-4.8,4.9c-1.5,1.7-3.5,3-5.7,3.9c-0.2,0.1-0.4,0.2-0.5-0.2c-0.7-1.7-1.7-3.5-2.9-5.2
		C-210.6,276.8-210.6,276.7-210.7,276.6z"/>
	<path fill="#F5DC07" d="M-211,276.4c-1.7-1.4-3.8-2.4-5.8-3.3c0-0.1,0.1-0.1,0.1-0.1c2.2-1.4,4-3.1,5.3-5.1
		c1.3-1.6,2.5-3.3,4.1-4.8c0.6-0.6,1.4-1.2,1.9-1.7c-0.5,1.4-1,2.8-1.4,4.1c-0.4,1.4-0.6,2.7-0.9,4.1c-0.5,2.4-1.4,4.7-3.1,6.7
		C-210.9,276.2-210.9,276.3-211,276.4z"/>
	<path fill="#F5DC07" d="M-230.4,276c-0.1-3.3-1.4-6.2-2.8-9c-0.8-1.7-1.5-3.8-1.7-5.7c-0.1-0.3-0.1-0.5-0.1-0.7
		c0.4,0.5,0.6,0.8,1,1.3c1.6,1.8,3.6,3.5,5.5,5.1c1.7,1.5,3.2,3.3,4.1,5.5c0.1,0.3,0.2,0.4-0.2,0.5c-1.9,0.7-3.8,1.7-5.3,2.9
		C-230.3,275.9-230.3,276-230.4,276z"/>
	<path fill="#F5DC07" d="M-230.9,294.8c-2.7,0.1-5.1,0.8-7.5,1.8c-1.7,0.8-3.4-1.9-1.9-3.6c1.5-1.7,3.5-3,5.7-3.9
		c0.2-0.1,0.4-0.2,0.5,0.2c0.7,1.7,1.7,3.5,2.9,5.2C-231.1,294.5-231,294.6-230.9,294.8z"/>
	<circle fill="#F5DC07" cx="-219.7" cy="286.2" r="15.3"/>
</g>
<g>
	<g>
		<path fill="#87D37C" d="M-192.9,294.1c-0.1,0.3-0.8,1.2-0.8,1.4c0.2,0.5,0.5,1.9,0.6,2.4v0.1c0.1,1.3-0.6,2.2-1.8,2.4
			c-0.9,0.2-2.1,0.3-3.5,0.2c-0.7,0-1.2,0.7-0.7,1.4c2.6,4.1,7.6,6.9,3.6,8.2c-3.3-1.4-10.3-3.7-14.7-4.3c-3.8-0.6-9.8-2.7-13.7-2.1
			c-1.7,0.3-4.1,0-4.9,1.1c-0.6,0.8,0.1,2.9-0.6,3.4c-1.2,1.1-3.1-4-4-4.4c-3.7-2.2-7-2-7.9-3.3c-11.8-14.5,8.2-3.6,21-1.3
			c4.9,0.8,7.3,1,8.4,0.3c2.9-1.9-1.4-3.4,0.3-4.9c1.3-1.2-5-5.9-6.2-7.2c-1.5-1.6-1.7-4.1-0.8-6c0.1-0.1,0.6-2.5,0.6-2.6
			c-1.4-7-7.6-5.6-9.6-6.7c-2.3-1.3-2.1-4.1,0.3-4.3c5.2-0.6,11.3-2,15.7,0.2c7,3.5,13.4,2.5,14.1,3.4c1.5,1.7,3.1,5.2,2.9,6.3
			c-0.2,0.6-0.4,1.2-0.3,1.7c0.3,1.3,1.4,2.4,1.9,3c0.3,0.3,1,1.2,1.3,1.4c0.3,0.3,0.5,0.6,0.6,0.7c0,0,0,0,0,0.1
			c0.5,0.6,0.7,1.3,0.7,1.6c-0.1,0.4,0.1,0.6-0.6,1.3c-0.6,0.5-1.2,0.3-1.7,0.6c-0.5,0.3-0.6,1.3,0.1,2c0.3,0.5,0.6,0.8,0.3,1.2
			c-0.2,0.2-0.7,0.6-0.7,0.8s0.1,0.3,0.2,0.4c0.2,0.1,0.4,0.4,0.4,0.6C-192.7,293.5-192.6,293.7-192.9,294.1z"/>
	</g>
</g>
</svg>
