<?xml version="1.0" encoding="utf-8"?>
<!-- Generator: Adobe Illustrator 18.1.1, SVG Export Plug-In . SVG Version: 6.00 Build 0)  -->
<svg version="1.1" id="Layer_1" xmlns="http://www.w3.org/2000/svg" xmlns:xlink="http://www.w3.org/1999/xlink" x="0px" y="0px"
	 width="114px" height="49.8px" viewBox="-380.7 235.2 114 49.8" enable-background="new -380.7 235.2 114 49.8"
	 xml:space="preserve">
<text transform="matrix(0.87 0 0 1 -334.0889 255.0662)" fill="#F7F7F8" font-family="'Lato-Bold'" font-size="16.4848">ENERGY</text>
<g>
	<g>
		<text transform="matrix(0.87 0 0 1 -305.4697 269.282)" fill="#F7F7F8" font-family="'Lato-Bold'" font-size="16.4848">LIFE</text>
	</g>
</g>
<g>
	<text transform="matrix(0.87 0 0 1 -334.0889 269.282)" fill="#D5D7DB" font-family="'Lato-Thin'" font-size="16.4848">FOR</text>
</g>
<g>
	<path fill="#F5DC07" d="M-356.8,246.4c-1.6-0.3-3.1-0.2-4.9-0.1c0.2-0.4,0.4-0.8,0.5-1.1c0.6-1.5,0.9-3,1-4.6
		c0.1-1.8,0.5-3.5,1.1-5.1c0.1-0.1,0.1-0.1,0.1-0.3c0.1,0.4,0.1,0.7,0.2,1.1c0.2,1.4,0.6,2.7,1.1,4c0.3,0.8,0.5,1.4,0.8,2.1
		c0.4,1.2,0.4,2.6,0.1,3.8C-356.8,246.3-356.8,246.4-356.8,246.4z"/>
	<path fill="#F5DC07" d="M-380.7,255.1c0.9-0.2,1.9-0.4,2.9-0.6c1.3-0.4,2.7-0.9,4-1.2c1.5-0.4,3-0.6,4.6-0.4
		c0.3,0.1,0.4,0.1,0.3,0.4c-0.1,0.9-0.1,1.7-0.1,2.6c0,0.6,0.1,1.1,0.1,1.7c-0.1,0-0.1,0-0.1-0.1c-1.5-0.8-3.1-1.1-4.9-1.2
		c-1.9-0.2-3.6-0.4-5.4-0.9C-380.1,255.3-380.3,255.2-380.7,255.1z"/>
	<path fill="#F5DC07" d="M-366.3,248.9c-1.1,1.2-1.8,2.6-2.6,4c-1.2-1.8-2.9-3.1-4.7-4.4c-1.5-1-2.9-2.1-4-3.6
		c0.1,0.1,0.3,0.1,0.4,0.1c0.1,0.1,0.2,0.1,0.3,0.1c1.7,0.7,3.6,1.1,5.4,1.4c1.9,0.4,3.6,1,5,2.1
		C-366.6,248.7-366.5,248.8-366.3,248.9z"/>
	<path fill="#F5DC07" d="M-352.1,249.1c1.9-0.1,3.6-0.6,5.4-1.3c1.2-0.6,2.6-1.1,4-1.5c0.7-0.2,1.4-0.4,2.1-0.4
		c-0.4,0.4-1,0.7-1.4,1.1c-1.2,1.1-2.3,2.3-3.4,3.5c-1.1,1.2-2.5,2.1-4.1,2.8c-0.1,0.1-0.3,0.1-0.4-0.1c-0.5-1.2-1.2-2.5-2.1-3.7
		C-352.1,249.2-352.1,249.1-352.1,249.1z"/>
	<path fill="#F5DC07" d="M-352.4,248.9c-1.2-1-2.7-1.7-4.1-2.4c0-0.1,0.1-0.1,0.1-0.1c1.6-1,2.9-2.2,3.8-3.6
		c0.9-1.1,1.8-2.4,2.9-3.4c0.4-0.4,1-0.9,1.4-1.2c-0.4,1-0.7,2-1,2.9c-0.3,1-0.4,1.9-0.6,2.9c-0.4,1.7-1,3.4-2.2,4.8
		C-352.3,248.8-352.3,248.9-352.4,248.9z"/>
	<path fill="#F5DC07" d="M-366.2,248.6c-0.1-2.4-1-4.4-2-6.4c-0.6-1.2-1.1-2.7-1.2-4.1c-0.1-0.2-0.1-0.4-0.1-0.5
		c0.3,0.4,0.4,0.6,0.7,0.9c1.1,1.3,2.6,2.5,3.9,3.6c1.2,1.1,2.3,2.4,2.9,3.9c0.1,0.2,0.1,0.3-0.1,0.4c-1.4,0.5-2.7,1.2-3.8,2.1
		C-366.1,248.6-366.1,248.6-366.2,248.6z"/>
	<path fill="#F5DC07" d="M-366.6,262.1c-1.9,0.1-3.6,0.6-5.4,1.3c-1.2,0.6-2.4-1.4-1.4-2.6c1.1-1.2,2.5-2.1,4.1-2.8
		c0.1-0.1,0.3-0.1,0.4,0.1c0.5,1.2,1.2,2.5,2.1,3.7C-366.7,261.9-366.6,261.9-366.6,262.1z"/>
	<circle fill="#F5DC07" cx="-358.6" cy="255.9" r="10.9"/>
</g>
<g>
	<g>
		<path fill="#87D37C" d="M-339.4,261.6c-0.1,0.2-0.6,0.9-0.6,1c0.1,0.4,0.4,1.4,0.4,1.7v0.1c0.1,0.9-0.4,1.6-1.3,1.7
			c-0.6,0.1-1.5,0.2-2.5,0.1c-0.5,0-0.9,0.5-0.5,1c1.9,2.9,5.4,4.9,2.6,5.9c-2.4-1-7.4-2.6-10.5-3.1c-2.7-0.4-7-1.9-9.8-1.5
			c-1.2,0.2-2.9,0-3.5,0.8c-0.4,0.6,0.1,2.1-0.4,2.4c-0.9,0.8-2.2-2.9-2.9-3.1c-2.6-1.6-5-1.4-5.6-2.4c-8.4-10.4,5.9-2.6,15-0.9
			c3.5,0.6,5.2,0.7,6,0.2c2.1-1.4-1-2.4,0.2-3.5c0.9-0.9-3.6-4.2-4.4-5.1c-1.1-1.1-1.2-2.9-0.6-4.3c0.1-0.1,0.4-1.8,0.4-1.9
			c-1-5-5.4-4-6.9-4.8c-1.6-0.9-1.5-2.9,0.2-3.1c3.7-0.4,8.1-1.4,11.2,0.1c5,2.5,9.6,1.8,10.1,2.4c1.1,1.2,2.2,3.7,2.1,4.5
			c-0.1,0.4-0.3,0.9-0.2,1.2c0.2,0.9,1,1.7,1.4,2.1c0.2,0.2,0.7,0.9,0.9,1c0.2,0.2,0.4,0.4,0.4,0.5c0,0,0,0,0,0.1
			c0.4,0.4,0.5,0.9,0.5,1.1c-0.1,0.3,0.1,0.4-0.4,0.9c-0.4,0.4-0.9,0.2-1.2,0.4s-0.4,0.9,0.1,1.4c0.2,0.4,0.4,0.6,0.2,0.9
			c-0.1,0.1-0.5,0.4-0.5,0.6c0,0.1,0.1,0.2,0.1,0.3c0.1,0.1,0.3,0.3,0.3,0.4C-339.3,261.1-339.2,261.3-339.4,261.6z"/>
	</g>
</g>
</svg>
