<!-- Created with Inkscape (http://www.inkscape.org/) -->
<svg id="svg3403" xmlns:rdf="http://www.w3.org/1999/02/22-rdf-syntax-ns#" xmlns="http://www.w3.org/2000/svg" height="50" width="335" version="1.1" xmlns:cc="http://creativecommons.org/ns#" xmlns:xlink="http://www.w3.org/1999/xlink" xmlns:dc="http://purl.org/dc/elements/1.1/">
 <defs id="defs3405"></defs>
 <metadata id="metadata3408">
  <rdf:RDF>
   <cc:Work rdf:about="">
    <dc:format>image/svg+xml</dc:format>
    <dc:type rdf:resource="http://purl.org/dc/dcmitype/StillImage"/>
    <dc:title/>
   </cc:Work>
  </rdf:RDF>
 </metadata>
 <g id="layer1" transform="translate(-4.7378883,18.152101)">
  <path id="path3181_4_" fill="#a361aa" d="m171.89-16.741c0.19734,1.2097,0.19734,2.8226,0.19734,4.2339v3.8307h0.19721c1.1836-2.8226,3.3538-5.0403,6.3126-6.8548,2.9589-1.8145,5.9178-2.621,9.2714-2.621,5.7206,0,10.06,1.8145,12.822,5.4435,2.9588,3.629,4.3395,8.4677,4.3395,14.315v29.636h-6.5096v-26.411c0-2.621-0.19729-4.8387-0.5919-6.8548-0.39441-2.0161-0.98619-3.8306-1.9726-5.2419-0.98631-1.4113-2.1697-2.621-3.748-3.4274-1.5782-0.80645-3.5507-1.2097-5.9178-1.2097-1.7756,0-3.3537,0.40323-5.129,1.2097-1.5781,0.80645-3.1563,2.0161-4.3399,3.4274-1.1834,1.6129-2.3673,3.629-3.1562,5.8468-0.78915,2.4194-1.1836,5.2419-1.1836,8.4677v24.798h-6.5097v-38.105-5.0403c0-2.0161-0.19723-3.8307-0.19723-5.6451l6.115,0.2016z"/>
  <path id="path3183_4_" fill="#a361aa" d="m283.46-0.3521c0-4.2-0.98631-7.2-3.1561-9.2-1.9728-2-5.1291-3-9.0742-3-2.762,0-5.129,0.6-7.4962,1.6-2.3671,1-4.34,2.4-5.9181,4.2l-3.748-4.6c1.9729-2,4.34-3.6,7.299-4.8,3.156-1.2,6.5097-2,10.455-2,2.3671,0,4.7344,0.39999,6.9042,0.99999,2.1699,0.6,3.9451,1.8,5.5233,3.2,1.5781,1.4,2.9589,3.2,3.7479,5.4,0.78914,2.2,1.381,4.8,1.381,7.6v21c0,1.8,0,3.8,0.19706,5.8,0.19723,2,0.19723,3.6,0.5919,5h-5.91c-0.19718-1.1999-0.39441-2.4-0.39441-3.8-0.19739-1.4-0.19739-2.6-0.19739-4h-0.19728c-1.9726,3.2-4.34,5.6-7.1012,6.8-2.5649,1.4-5.721,2-9.469,2-1.7753,0-3.5507-0.19997-5.326-0.8-1.7754-0.60001-3.5508-1.4-5.1289-2.6-1.5782-1.2-2.7617-2.6-3.7481-4.6-0.98625-1.8-1.578-4.2-1.578-6.8,0-3.6,0.98626-6.6,2.5645-8.8s4.1423-3.8,7.1014-4.8c2.959-0.99998,6.3126-1.8,10.258-2,3.748-0.19999,7.8903-0.39999,11.835-0.39999l0.59196-1.4zm-1.9726,7c-2.7617,0-5.5234,0.2-8.0878,0.4-2.5645,0.19999-5.129,0.6-7.496,1.4-2.17,0.6-4.1426,1.8-5.5233,3.2-1.381,1.4-2.1701,3.2-2.1701,5.4,0,1.6,0.19723,3.2,0.98631,4.2,0.59178,1.2,1.3809,2,2.5645,2.8,0.98627,0.59999,2.1699,1.2,3.3534,1.6,1.1836,0.19999,2.5645,0.4,3.7481,0.4,2.3672,0,4.3398-0.4,6.1153-1.2,1.7753-0.79997,3.3533-2,4.537-3.6,1.1834-1.4,2.1701-3.2,2.7616-5,0.59159-2,0.98632-3.8,0.98632-6v-3.6001h-1.7753z"/>
  <path id="path3189_4_" fill="#a361aa" d="m339.74,5.0622v1.5873,1.7857h-37.48c0,2.3809,0.5916,4.5635,1.3808,6.746,0.7889,2.1825,1.9728,3.9683,3.5509,5.5556,1.578,1.5873,3.3533,2.7778,5.129,3.7698,1.9724,0.99208,4.1423,1.3889,6.5093,1.3889,3.3538,0,6.3129-0.79366,8.8772-2.5794s4.34-3.5714,5.7205-5.754l4.9316,4.1667c-2.7616,3.5714-5.7206,6.1508-9.0741,7.7381s-6.707,2.381-10.455,2.381c-3.3533,0-6.5093-0.59521-9.2712-1.9841-2.9589-1.1905-5.3262-2.9762-7.2988-5.1587-1.9725-2.1826-3.748-4.7619-4.9315-7.9365-1.1837-2.9762-1.7754-6.3492-1.7754-9.9206s0.59169-6.9445,1.7754-9.9206c1.1836-2.9762,2.7618-5.754,4.7343-7.9365,1.9727-2.1825,4.5371-3.9683,7.2988-5.1587,2.7617-1.1905,5.7204-1.9841,9.0741-1.9841,3.5507,0,6.7071,0.59523,9.2715,1.9841,2.7618,1.1905,4.9315,2.9762,6.9041,5.1587,1.7753,2.1825,3.1563,4.5635,4.1426,7.3413,0.59181,2.381,0.98643,5.3571,0.98643,8.7301zm-6.7072-2.1825c-0.19717-4.5635-1.578-8.1349-4.1424-11.111-2.5645-2.9762-6.1154-4.3651-10.85-4.3651-2.1699,0-4.1425,0.39684-6.1151,1.1905-1.9726,0.79365-3.5508,1.9841-4.9314,3.373-1.381,1.3889-2.5649,3.1746-3.3538,4.9603-0.78923,1.9841-1.3808,3.7698-1.3808,5.754l30.773,0.19841z"/>
  <path id="path3191_4_" fill="#a361aa" d="m239.61-5.7505c-0.98631-1.9685-2.5644-3.5433-4.7342-4.7244-2.1701-1.1811-4.5371-1.9685-7.2988-1.9685-1.1837,0-2.5645,0.19684-3.7481,0.39368-1.1836,0.19687-2.3671,0.59056-3.3535,1.378-0.98619,0.59056-1.7753,1.378-2.3672,2.3622-0.59167,0.98426-0.98619,2.1654-0.98619,3.3465,0,2.1654,0.98619,3.937,2.7616,5.1181,1.9726,1.1811,4.7346,2.1654,8.8769,2.9528,5.7208,1.1811,10.061,2.9528,12.822,5.1181,2.762,2.1653,4.1426,5.1181,4.1426,8.8583,0,2.7559-0.59164,5.1181-1.578,6.8898-0.98642,1.9685-2.5645,3.3465-4.1425,4.5275-1.7754,1.1811-3.7482,1.9685-5.9181,2.5591-2.1699,0.59055-4.537,0.7874-6.7071,0.7874h-16.965v-5.9055h9.0744,8.0878c1.5781,0,2.9589-0.19685,4.3398-0.3937,1.3809-0.19684,2.5645-0.7874,3.7481-1.378,0.98625-0.59055,1.9727-1.5748,2.5645-2.5591,0.59169-0.98426,0.98631-2.3622,0.98631-3.937,0-2.559-1.1838-4.3307-3.7482-5.7087-2.5643-1.1811-6.1151-2.3622-10.652-3.5433-1.381-0.39371-2.9591-0.7874-4.7344-1.1811-1.5781-0.59055-3.1563-1.1811-4.5369-2.1654-1.381-0.98425-2.5648-2.1653-3.551-3.7402-0.98631-1.5748-1.3808-3.3465-1.3808-5.5118,0-2.3622,0.39447-4.5276,1.3808-6.2992,0.98619-1.7717,2.3672-3.1496,3.9454-4.3307,1.5781-1.1811,3.5508-1.9685,5.5234-2.5591,2.1697-0.59055,4.1426-0.7874,6.5097-0.7874,3.3534,0,6.707,0.7874,9.8631,2.1653,3.3537,1.5748,5.5234,3.5433,7.299,6.2992l-5.5235,3.937z"/>
  <path id="path3193_4_" fill="#a361aa" d="m104.71-5.7505c-0.98629-1.9685-2.5644-3.5433-4.7343-4.7244s-4.5371-1.9685-7.2988-1.9685c-1.1836,0-2.5644,0.19684-3.748,0.39368-1.1836,0.19687-2.3672,0.59056-3.3535,1.378-0.98633,0.59056-1.7754,1.378-2.3672,2.3622-0.59181,0.98426-0.98633,2.1654-0.98633,3.3465,0,2.1654,0.98633,3.937,2.7617,5.1181,1.9726,1.1811,4.7343,2.1654,8.8769,2.9528,5.7206,1.1811,10.061,2.9528,12.822,5.1181,2.7618,2.1653,4.1427,5.1181,4.1427,8.8583,0,2.7559-0.59176,5.1181-1.5781,6.8898-0.9865,1.9685-2.5646,3.3465-4.1428,4.5275-1.7752,1.1811-3.748,1.9685-5.9179,2.5591-2.1699,0.59055-4.5371,0.7874-6.707,0.7874h-17.355v-5.9055h9.0742,8.0878c1.5781,0,2.959-0.19685,4.3398-0.3937,1.3808-0.19684,2.5644-0.7874,3.748-1.378,0.98627-0.59055,1.9727-1.5748,2.5644-2.5591,0.59179-0.98426,0.9865-2.3622,0.9865-3.937,0-2.559-1.1836-4.3307-3.7481-5.7087-2.561-1.18-6.112-2.3612-10.649-3.5423-1.381-0.3937-2.959-0.7874-4.734-1.1811-1.579-0.5906-3.157-1.1811-4.537-2.1654-1.381-0.9842-2.565-2.1653-3.551-3.7401-0.98631-1.5748-1.3808-3.3465-1.3808-5.5118,0-2.3622,0.39452-4.5276,1.3808-6.2992,0.98633-1.7717,2.3672-3.1496,3.9453-4.3307s3.5508-1.9685,5.5234-2.5591c2.1699-0.59055,4.1426-0.7874,6.5097-0.7874,3.3535,0,6.707,0.7874,9.8632,2.1653,3.3536,1.5748,5.5235,3.5433,7.2987,6.2992l-5.1288,3.937z"/>
  <path id="path3189_4_-1" fill="#a361aa" d="m160.4,5.0622v1.5873,1.7857h-37.48c0,2.3809,0.5916,4.5635,1.3808,6.746,0.78891,2.1825,1.9728,3.9683,3.5509,5.5556,1.578,1.5873,3.3533,2.7778,5.129,3.7698,1.9724,0.99208,4.1423,1.3889,6.5093,1.3889,3.3538,0,6.3128-0.79366,8.8772-2.5794,2.5643-1.7857,4.34-3.5714,5.7205-5.754l4.9316,4.1667c-2.7616,3.5714-5.7206,6.1508-9.0741,7.7381s-6.707,2.381-10.455,2.381c-3.3533,0-6.5093-0.59521-9.2712-1.9841-2.9589-1.1905-5.3262-2.9762-7.2988-5.1587-1.9725-2.1826-3.748-4.7619-4.9315-7.9365-1.1837-2.9762-1.7754-6.3492-1.7754-9.9206s0.59169-6.9445,1.7754-9.9206c1.1836-2.9762,2.7618-5.754,4.7343-7.9365,1.9727-2.1825,4.5371-3.9683,7.2988-5.1587,2.7617-1.1905,5.7204-1.9841,9.0741-1.9841,3.5507,0,6.7071,0.59523,9.2715,1.9841,2.7618,1.1905,4.9315,2.9762,6.9041,5.1587,1.7753,2.1825,3.1563,4.5635,4.1426,7.3413,0.59181,2.381,0.98643,5.3571,0.98643,8.7301zm-6.7072-2.1825c-0.19718-4.5635-1.578-8.1349-4.1424-11.111-2.5645-2.9762-6.1154-4.3651-10.85-4.3651-2.1698,0-4.1425,0.39684-6.1151,1.1905-1.9726,0.79365-3.5508,1.9841-4.9314,3.373-1.381,1.3889-2.5649,3.1746-3.3538,4.9603-0.78923,1.9841-1.3808,3.7698-1.3808,5.754l30.773,0.19841z"/>
  <g id="g5053">
   <path id="path4692" fill="#ffffff" d="M4.8291-6.4516c-1.3746,22.055,12.952,37.106,32.204,38.298,2.166-19.126-10.2-35.819-32.204-38.298z"/>
   <path id="path4694" fill="#ffffff" d="M69.239-6.4516c1.374,22.055-12.952,37.106-32.204,38.298-2.166-19.126,10.2-35.819,32.204-38.298z"/>
   <path id="path4696" fill="#ffffff" d="M19.888-15.132c-8.851,20.256-0.547,39.288,17.135,46.98,8.591-17.234,2.693-37.14-17.135-46.98z"/>
   <path id="path4698" fill="#ffffff" d="M54.161-15.132c8.851,20.256,0.547,39.288-17.135,46.98-8.591-17.234-2.692-37.14,17.135-46.98z"/>
   <path id="path4700" fill="#ffffff" d="m37.025-18.152c-15.259,16.013-13.98,36.732,0,49.995,13.98-13.262,15.259-33.981,0-49.995z"/>
   <path id="path4520" opacity="0.8" d="M4.8296-6.4516c-1.3832,22.055,13.033,37.106,32.407,38.298,2.179-19.126-10.264-35.819-32.407-38.298z" fill="#8c3a95"/>
   <path id="path4522" opacity="0.8" fill="#8c3a95" d="M69.646-6.4516c1.383,22.055-13.033,37.106-32.407,38.298-2.179-19.126,10.264-35.819,32.407-38.298z"/>
   <path id="path4516" opacity="0.8" d="M19.984-15.132c-8.907,20.256-0.551,39.288,17.243,46.98,8.645-17.234,2.709-37.14-17.243-46.98z" fill="#f790da"/>
   <path id="path4518" opacity="0.8" fill="#f790da" d="M54.473-15.132c8.907,20.256,0.55,39.288-17.243,46.98-8.645-17.234-2.71-37.14,17.243-46.98z"/>
   <path id="path3741" opacity="0.8" fill="#eecde1" d="m37.228-18.152c-15.356,16.013-14.068,36.732,0,49.995,14.068-13.262,15.356-33.981,0-49.995z"/>
  </g>
 </g>
</svg>
